<?xml version="1.0" standalone="no"?>
<!DOCTYPE svg PUBLIC "-//W3C//DTD SVG 20010904//EN"
 "http://www.w3.org/TR/2001/REC-SVG-20010904/DTD/svg10.dtd">
<svg version="1.0" xmlns="http://www.w3.org/2000/svg"
 width="270.000000pt" height="270.000000pt" viewBox="0 0 270.000000 270.000000"
 preserveAspectRatio="xMidYMid meet">
<metadata>
Created by potrace 1.14, written by Peter Selinger 2001-2017
</metadata>
<g transform="translate(0.000000,270.000000) scale(0.100000,-0.100000)"
fill="#000000" stroke="none">
<path d="M1219 2696 c-2 -2 -30 -7 -62 -10 -33 -4 -70 -11 -83 -16 -13 -5 -24
-8 -24 -5 0 6 -116 -30 -195 -60 -241 -91 -472 -276 -619 -495 -105 -156 -178
-330 -212 -506 -27 -139 -27 -375 1 -512 106 -537 540 -970 1073 -1068 12 -2
34 -7 50 -10 15 -3 92 -7 172 -9 147 -3 245 7 369 40 382 99 702 361 871 710
104 217 140 382 135 625 -3 157 -23 273 -72 414 -156 452 -537 782 -1018 882
-70 14 -375 30 -386 20z"/>
</g>
</svg>
