<svg width="30" height="31" viewBox="0 0 30 31" fill="none" xmlns="http://www.w3.org/2000/svg">
<path d="M15 0.5C6.735 0.5 0 7.235 0 15.5C0 23.765 6.735 30.5 15 30.5C23.265 30.5 30 23.765 30 15.5C30 7.235 23.265 0.5 15 0.5ZM21.09 14.405L15.795 19.7C15.57 19.925 15.285 20.03 15 20.03C14.715 20.03 14.43 19.925 14.205 19.7L8.91 14.405C8.475 13.97 8.475 13.25 8.91 12.815C9.345 12.38 10.065 12.38 10.5 12.815L15 17.315L19.5 12.815C19.935 12.38 20.655 12.38 21.09 12.815C21.525 13.25 21.525 13.955 21.09 14.405Z" fill="#292D32"/>
</svg>
