<svg width="35" height="35" viewBox="0 0 35 35" fill="none" xmlns="http://www.w3.org/2000/svg">
<path d="M2.93357 34.9062C2.40508 34.9062 1.87658 34.7301 1.52425 34.2897C0.731501 33.4969 0.731501 32.2638 1.52425 31.471L28.2134 4.7819H6.8973C5.84031 4.7819 4.95948 3.90107 4.95948 2.84407C4.95948 1.78708 5.84031 0.90625 6.8973 0.90625H32.8818C33.9388 0.90625 34.8196 1.78708 34.8196 2.84407V29.0047C34.8196 30.0617 33.9388 30.9425 32.8818 30.9425C31.8248 30.9425 30.9439 30.0617 30.9439 29.0047V7.77672L4.3429 34.3778C3.99057 34.7301 3.46207 34.9062 2.93357 34.9062Z" fill="black"/>
</svg>
