<svg width="58" height="58" viewBox="0 0 58 58" fill="none" xmlns="http://www.w3.org/2000/svg">
<g id="braces-alt">
<g id="Group">
<path id="Vector" d="M19.7199 30.2083C19.482 30.2035 19.2508 30.1286 19.0553 29.993C18.8598 29.8574 18.7087 29.667 18.6209 29.4459C18.5332 29.2247 18.5127 28.9825 18.562 28.7498C18.6113 28.517 18.7282 28.3039 18.8982 28.1374C19.0681 27.9708 19.2834 27.8581 19.5171 27.8134C19.7508 27.7687 19.9925 27.794 20.2119 27.8861C20.4313 27.9782 20.6186 28.1331 20.7503 28.3312C20.8821 28.5294 20.9524 28.762 20.9524 29C20.9524 29.1607 20.9204 29.3198 20.8582 29.468C20.7959 29.6162 20.7048 29.7505 20.59 29.863C20.4752 29.9756 20.3391 30.0641 20.1897 30.1233C20.0403 30.1826 19.8806 30.2115 19.7199 30.2083Z" fill="black"/>
<path id="Vector_2" d="M29 30.2083C29.6674 30.2083 30.2084 29.6673 30.2084 29C30.2084 28.3326 29.6674 27.7916 29 27.7916C28.3327 27.7916 27.7917 28.3326 27.7917 29C27.7917 29.6673 28.3327 30.2083 29 30.2083Z" fill="black"/>
<path id="Vector_3" d="M38.6667 30.2566C38.4219 30.2614 38.1813 30.1932 37.9755 30.0608C37.7696 29.9283 37.6079 29.7375 37.5109 29.5128C37.4139 29.288 37.386 29.0395 37.4308 28.7988C37.4756 28.5582 37.591 28.3363 37.7624 28.1615C37.9338 27.9867 38.1533 27.8669 38.393 27.8174C38.6327 27.7678 38.8818 27.7908 39.1084 27.8833C39.335 27.9759 39.529 28.1338 39.6655 28.3369C39.802 28.5401 39.875 28.7793 39.875 29.0241C39.8782 29.1848 39.8493 29.3446 39.7901 29.494C39.7308 29.6434 39.6423 29.7794 39.5298 29.8942C39.4172 30.009 39.2829 30.1002 39.1347 30.1624C38.9865 30.2246 38.8274 30.2567 38.6667 30.2566Z" fill="black"/>
<path id="Vector_4" d="M3.98763 30.2079C3.71892 30.2118 3.45659 30.1259 3.24213 29.964C3.02766 29.802 2.87331 29.5732 2.80346 29.3137C2.76351 29.1598 2.75434 28.9995 2.77647 28.842C2.79859 28.6845 2.85159 28.533 2.93242 28.396C3.01324 28.2591 3.12031 28.1394 3.24747 28.0439C3.37464 27.9484 3.5194 27.879 3.67346 27.8396C3.67346 27.8396 10.0535 26.0996 10.0535 21.7496V10.8746C10.0335 10.1297 10.1655 9.38853 10.4414 8.69634C10.7173 8.00415 11.1314 7.37543 11.6583 6.84852C12.1852 6.32162 12.8139 5.90759 13.5061 5.63168C14.1983 5.35577 14.9394 5.22377 15.6843 5.24373C16.0048 5.24373 16.3121 5.37104 16.5387 5.59764C16.7653 5.82425 16.8926 6.13159 16.8926 6.45206C16.8864 6.7706 16.7571 7.07436 16.5319 7.29964C16.3066 7.52492 16.0028 7.65421 15.6843 7.6604C15.2576 7.64338 14.8321 7.71487 14.4344 7.87038C14.0368 8.02588 13.6756 8.26203 13.3737 8.56395C13.0718 8.86588 12.8356 9.22704 12.6801 9.6247C12.5246 10.0224 12.4531 10.4479 12.4701 10.8746V21.7496C12.4701 27.9846 4.61596 30.1112 4.27763 30.1837L3.98763 30.2079Z" fill="black"/>
<path id="Vector_5" d="M15.6841 52.7558H15.3699C15.0316 52.7558 7.17739 50.5325 7.17739 44.2975V33.4225C7.19786 32.997 7.12955 32.572 6.9768 32.1743C6.82406 31.7767 6.59022 31.4153 6.29017 31.1129C5.99012 30.8106 5.63042 30.5741 5.23397 30.4183C4.83752 30.2626 4.41298 30.1911 3.98739 30.2083C3.66692 30.2083 3.35957 30.081 3.13297 29.8544C2.90636 29.6278 2.77905 29.3204 2.77905 29C2.77905 28.6795 2.90636 28.3722 3.13297 28.1456C3.35957 27.919 3.66692 27.7916 3.98739 27.7916C4.73508 27.7616 5.48098 27.8855 6.17881 28.1556C6.87664 28.4258 7.51151 28.8365 8.04402 29.3622C8.57654 29.8879 8.99535 30.5174 9.27446 31.2117C9.55357 31.906 9.68702 32.6503 9.66655 33.3983V44.2733C9.66655 48.6716 15.9982 50.3633 16.0466 50.3875C16.367 50.4259 16.6591 50.5901 16.8585 50.8439C17.0579 51.0977 17.1483 51.4203 17.1099 51.7408C17.0714 52.0613 16.9072 52.3534 16.6534 52.5528C16.3996 52.7522 16.077 52.8426 15.7566 52.8041L15.6841 52.7558Z" fill="black"/>
<path id="Vector_6" d="M54.0129 30.2083H53.7229C53.3845 30.2083 45.5304 28.0091 45.5304 21.7741V10.875C45.5511 10.4474 45.4822 10.0202 45.328 9.62086C45.1738 9.22152 44.9377 8.85884 44.635 8.55614C44.3323 8.25344 43.9697 8.01742 43.5703 7.86322C43.171 7.70903 42.7438 7.64008 42.3162 7.6608C41.9977 7.65462 41.6939 7.52533 41.4686 7.30005C41.2434 7.07477 41.1141 6.771 41.1079 6.45247C41.1079 6.132 41.2352 5.82466 41.4618 5.59805C41.6884 5.37144 41.9957 5.24414 42.3162 5.24414C43.0599 5.22082 43.8006 5.34971 44.4927 5.62291C45.1848 5.8961 45.8138 6.30783 46.341 6.83284C46.8683 7.35785 47.2828 7.98507 47.5589 8.676C47.8351 9.36693 47.9672 10.107 47.947 10.8508V21.75C47.947 26.1483 54.2787 27.84 54.327 27.8641C54.4811 27.9036 54.6259 27.973 54.753 28.0685C54.8802 28.164 54.9873 28.2837 55.0681 28.4206C55.1489 28.5576 55.2019 28.7091 55.224 28.8666C55.2462 29.0241 55.237 29.1844 55.197 29.3383C55.1227 29.5933 54.9665 29.8167 54.7524 29.974C54.5383 30.1312 54.2784 30.2136 54.0129 30.2083Z" fill="black"/>
<path id="Vector_7" d="M42.3161 52.7558C42.0505 52.7584 41.7917 52.6717 41.5813 52.5095C41.3709 52.3474 41.2212 52.1192 41.1561 51.8616C41.1162 51.7077 41.107 51.5474 41.1291 51.3899C41.1513 51.2324 41.2043 51.0809 41.2851 50.9439C41.3659 50.807 41.473 50.6873 41.6001 50.5918C41.7273 50.4963 41.8721 50.4269 42.0261 50.3874C42.0261 50.3874 48.3336 48.6474 48.3336 44.2733V33.4224C48.3103 32.6787 48.4392 31.9381 48.7124 31.246C48.9856 30.5539 49.3973 29.9249 49.9223 29.3976C50.4473 28.8703 51.0745 28.4559 51.7655 28.1797C52.4564 27.9036 53.1965 27.7715 53.9403 27.7916C54.2608 27.7916 54.5681 27.9189 54.7947 28.1455C55.0213 28.3721 55.1486 28.6795 55.1486 28.9999C55.1486 29.3204 55.0213 29.6278 54.7947 29.8544C54.5681 30.081 54.2608 30.2083 53.9403 30.2083C53.5135 30.1945 53.0885 30.2691 52.692 30.4276C52.2955 30.5861 51.9361 30.825 51.6364 31.1292C51.3368 31.4334 51.1034 31.7963 50.9508 32.1952C50.7983 32.594 50.73 33.0201 50.7503 33.4466V44.2733C50.7503 50.5083 42.8961 52.6349 42.5578 52.7316L42.3161 52.7558Z" fill="black"/>
</g>
</g>
</svg>
