<svg width="63" height="63" viewBox="0 0 63 63" fill="none" xmlns="http://www.w3.org/2000/svg">
<g id="chat-code">
<g id="Group">
<path id="Vector" d="M34.3347 53.13C30.7631 53.1332 27.243 52.2779 24.071 50.6363C23.9176 50.557 23.7813 50.4482 23.6699 50.3163C23.5585 50.1843 23.4742 50.0317 23.4218 49.8672C23.3694 49.7027 23.3499 49.5294 23.3645 49.3574C23.379 49.1853 23.4273 49.0178 23.5066 48.8644C23.5859 48.711 23.6946 48.5747 23.8266 48.4633C23.9585 48.3519 24.1111 48.2676 24.2757 48.2152C24.4402 48.1628 24.6134 48.1433 24.7855 48.1579C24.9576 48.1724 25.1251 48.2207 25.2785 48.3C29.527 50.4614 34.4142 51.0125 39.0374 49.8514C43.6606 48.6904 47.7075 45.8956 50.4307 41.9834C53.154 38.0711 54.3696 33.3055 53.853 28.5669C53.3365 23.8282 51.1227 19.4365 47.6205 16.2028C44.1184 12.9691 39.5644 11.1119 34.7996 10.9742C30.0348 10.8365 25.3812 12.4275 21.6981 15.4535C18.015 18.4795 15.5512 22.736 14.7618 27.437C13.9724 32.1379 14.9108 36.9657 17.4035 41.0288C17.5793 41.3294 17.6311 41.6867 17.5478 42.0249C17.4644 42.3631 17.2526 42.6555 16.9572 42.84C16.8092 42.9305 16.6448 42.9908 16.4734 43.0173C16.3019 43.0439 16.127 43.0362 15.9585 42.9947C15.7901 42.9532 15.6316 42.8787 15.4921 42.7755C15.3526 42.6724 15.235 42.5426 15.146 42.3938C12.2653 37.7808 11.1687 32.2745 12.0621 26.9098C12.9556 21.5452 15.7776 16.6915 19.9979 13.2612C24.2181 9.83082 29.546 8.05995 34.98 8.2814C40.414 8.50285 45.5801 10.7014 49.5072 14.4638C52.54 17.2747 54.732 20.8732 55.8385 24.8575C56.945 28.8419 56.9225 33.0553 55.7736 37.0276C54.6246 40.9999 52.3944 44.5748 49.3318 47.3533C46.2692 50.1317 42.4948 52.0045 38.4297 52.7625C37.0794 53.0138 35.7083 53.1369 34.3347 53.13Z" fill="black"/>
<path id="Vector_2" d="M13.9648 54.495C13.4559 54.4854 12.9573 54.3506 12.5129 54.1024C12.0686 53.8543 11.6922 53.5005 11.4172 53.0723C11.1421 52.6441 10.9767 52.1547 10.9358 51.6474C10.8948 51.1401 10.9795 50.6306 11.1823 50.1638L15.1723 41.1863C15.315 40.866 15.5791 40.6156 15.9064 40.49C16.2338 40.3645 16.5976 40.3742 16.9179 40.5169C17.2381 40.6596 17.4886 40.9237 17.6141 41.2511C17.7396 41.5784 17.73 41.9423 17.5873 42.2625L13.571 51.24C13.5199 51.3082 13.4923 51.3911 13.4923 51.4763C13.4923 51.5615 13.5199 51.6444 13.571 51.7125C13.6284 51.7781 13.7037 51.8255 13.7876 51.8489C13.8716 51.8722 13.9605 51.8704 14.0435 51.8438L24.1498 48.2475C24.4742 48.1404 24.8276 48.1641 25.1349 48.3135C25.4422 48.4629 25.6791 48.7262 25.7954 49.0475C25.9116 49.3688 25.8979 49.7227 25.7573 50.0341C25.6167 50.3455 25.3602 50.5898 25.0423 50.715L15.0148 54.3113C14.6789 54.436 14.323 54.4983 13.9648 54.495Z" fill="black"/>
</g>
</g>
</svg>
