<svg width="63" height="63" viewBox="0 0 63 63" fill="none" xmlns="http://www.w3.org/2000/svg">
<g id="gallery">
<g id="Group">
<path id="Vector" d="M45.9375 55.125H17.0625C14.6258 55.125 12.2889 54.157 10.566 52.434C8.84297 50.7111 7.875 48.3742 7.875 45.9375V17.0625C7.875 14.6258 8.84297 12.2889 10.566 10.566C12.2889 8.84297 14.6258 7.875 17.0625 7.875H45.9375C48.3742 7.875 50.7111 8.84297 52.434 10.566C54.157 12.2889 55.125 14.6258 55.125 17.0625V45.9375C55.125 48.3742 54.157 50.7111 52.434 52.434C50.7111 54.157 48.3742 55.125 45.9375 55.125ZM17.0625 10.5C15.322 10.5 13.6528 11.1914 12.4221 12.4221C11.1914 13.6528 10.5 15.322 10.5 17.0625V45.9375C10.5 47.678 11.1914 49.3472 12.4221 50.5779C13.6528 51.8086 15.322 52.5 17.0625 52.5H45.9375C47.678 52.5 49.3472 51.8086 50.5779 50.5779C51.8086 49.3472 52.5 47.678 52.5 45.9375V17.0625C52.5 15.322 51.8086 13.6528 50.5779 12.4221C49.3472 11.1914 47.678 10.5 45.9375 10.5H17.0625Z" fill="black"/>
<path id="Vector_2" d="M9.18768 44.1262C8.99646 44.1283 8.80726 44.0869 8.63444 44.005C8.46161 43.9232 8.30969 43.803 8.19018 43.6537C8.07761 43.5238 7.99223 43.3726 7.9391 43.2091C7.88597 43.0455 7.86616 42.873 7.88084 42.7017C7.89552 42.5304 7.9444 42.3638 8.02459 42.2117C8.10477 42.0596 8.21463 41.9251 8.34768 41.8162L20.6852 31.5C22.5563 29.9484 24.966 29.2015 27.3867 29.4229C29.8073 29.6443 32.0416 30.8159 33.6002 32.6812L36.5402 36.1987C37.0983 36.8713 37.7857 37.425 38.5616 37.8273C39.3374 38.2295 40.1861 38.4721 41.0574 38.5406C41.9287 38.6091 42.8048 38.5022 43.6341 38.2262C44.4633 37.9502 45.2288 37.5107 45.8852 36.9337L52.9464 30.765C53.2129 30.5396 53.5569 30.4272 53.905 30.4517C54.2531 30.4763 54.5779 30.6357 54.8102 30.8962C54.9243 31.0245 55.0115 31.1744 55.0668 31.3369C55.1221 31.4995 55.1443 31.6714 55.132 31.8427C55.1198 32.0139 55.0734 32.181 54.9956 32.334C54.9178 32.4871 54.8101 32.623 54.6789 32.7337L47.6177 38.9025C46.6974 39.7158 45.6231 40.3358 44.4584 40.7256C43.2938 41.1154 42.0627 41.2671 40.8383 41.1716C39.6138 41.0761 38.4211 40.7354 37.331 40.1697C36.2409 39.604 35.2757 38.8249 34.4927 37.8787L31.5002 34.44C30.9508 33.7792 30.2765 33.2332 29.5159 32.8333C28.7553 32.4334 27.9233 32.1874 27.0675 32.1093C26.2117 32.0313 25.3489 32.1228 24.5285 32.3786C23.7081 32.6344 22.9462 33.0494 22.2864 33.6L9.94893 43.8375C9.72888 44.0061 9.46421 44.1065 9.18768 44.1262Z" fill="black"/>
</g>
</g>
</svg>
