<svg width="39" height="47" viewBox="0 0 39 47" fill="none" xmlns="http://www.w3.org/2000/svg">
<g id="Group">
<path id="Vector" d="M19.2971 23.557C19.1066 23.5579 18.9187 23.5128 18.7494 23.4256L0.719261 13.107C0.548118 13.016 0.404798 12.8804 0.304511 12.7145C0.204225 12.5487 0.150714 12.3588 0.149658 12.1649C0.151406 11.9684 0.20499 11.7757 0.305001 11.6065C0.405011 11.4372 0.547908 11.2974 0.719261 11.201L18.7494 0.904323C18.9159 0.808182 19.1048 0.757568 19.2971 0.757568C19.4894 0.757568 19.6783 0.808182 19.8448 0.904323L37.8749 11.201C38.0463 11.2974 38.1892 11.4372 38.2892 11.6065C38.3892 11.7757 38.4428 11.9684 38.4445 12.1649C38.4435 12.3588 38.3899 12.5487 38.2897 12.7145C38.1894 12.8804 38.0461 13.016 37.8749 13.107L19.8448 23.4256C19.6755 23.5128 19.4876 23.5579 19.2971 23.557ZM3.45774 12.1649L19.2971 21.2129L35.1364 12.1649L19.2971 3.11701L3.45774 12.1649Z" fill="black"/>
<path id="Vector_2" d="M19.2971 46.7574C19.1034 46.7612 18.9129 46.7079 18.7494 46.6041L0.719261 36.3074C0.547908 36.211 0.405011 36.0712 0.305001 35.9019C0.20499 35.7327 0.151406 35.54 0.149658 35.3434V12.165C0.149658 11.8745 0.265065 11.5958 0.470491 11.3904C0.675916 11.185 0.954533 11.0696 1.24505 11.0696C1.53556 11.0696 1.81418 11.185 2.01961 11.3904C2.22503 11.5958 2.34044 11.8745 2.34044 12.165V34.7081L19.2971 44.3914L36.2537 34.7081V12.165C36.2537 11.8745 36.3691 11.5958 36.5746 11.3904C36.78 11.185 37.0586 11.0696 37.3491 11.0696C37.6396 11.0696 37.9183 11.185 38.1237 11.3904C38.3291 11.5958 38.4445 11.8745 38.4445 12.165V35.3434C38.4428 35.54 38.3892 35.7327 38.2892 35.9019C38.1892 36.0712 38.0463 36.211 37.8749 36.3074L19.8448 46.6041C19.6812 46.7079 19.4908 46.7612 19.2971 46.7574Z" fill="black"/>
<path id="Vector_3" d="M19.2971 46.7574C19.0066 46.7574 18.7279 46.642 18.5225 46.4366C18.3171 46.2312 18.2017 45.9526 18.2017 45.662V24.5648L2.40616 35.5187C2.16793 35.6872 1.87253 35.7542 1.58493 35.7049C1.29734 35.6556 1.04111 35.494 0.872608 35.2558C0.704109 35.0176 0.637145 34.7222 0.686447 34.4346C0.735749 34.147 0.897279 33.8908 1.1355 33.7223L18.6618 21.4758C18.8277 21.3666 19.0198 21.3037 19.2182 21.2935C19.4166 21.2832 19.6141 21.3261 19.7904 21.4176C19.9667 21.5091 20.1155 21.646 20.2213 21.8141C20.3271 21.9822 20.3862 22.1755 20.3925 22.374V45.662C20.3925 45.9526 20.2771 46.2312 20.0716 46.4366C19.8662 46.642 19.5876 46.7574 19.2971 46.7574Z" fill="black"/>
<path id="Vector_4" d="M36.8234 35.8035C36.5967 35.8025 36.3755 35.7338 36.188 35.6063L18.6618 23.3599C18.4236 23.1914 18.262 22.9351 18.2127 22.6475C18.1634 22.36 18.2304 22.0645 18.3989 21.8263C18.5674 21.5881 18.8236 21.4266 19.1112 21.3773C19.3988 21.328 19.6942 21.3949 19.9324 21.5634L37.4587 33.8099C37.6932 33.9812 37.8519 34.2371 37.9009 34.5234C37.95 34.8097 37.8857 35.1038 37.7216 35.3435C37.621 35.4879 37.4865 35.6054 37.3299 35.6856C37.1733 35.7658 36.9993 35.8063 36.8234 35.8035Z" fill="black"/>
</g>
</svg>
