<svg width="48" height="48" viewBox="0 0 48 48" fill="none" xmlns="http://www.w3.org/2000/svg">
<path fill-rule="evenodd" clip-rule="evenodd" d="M21.3571 1C10.1142 1 1 10.1142 1 21.3571C1 32.6 10.1142 41.7141 21.3571 41.7141C26.5476 41.7141 31.2845 39.7715 34.8802 36.5737L45.3065 47L47 45.3065L36.5737 34.8802C39.7715 31.2845 41.7141 26.5476 41.7141 21.3571C41.7141 10.1142 32.6 1 21.3571 1ZM3.39495 21.3571C3.39495 11.4369 11.4369 3.39495 21.3571 3.39495C31.2773 3.39495 39.3192 11.4369 39.3192 21.3571C39.3192 31.2773 31.2773 39.3192 21.3571 39.3192C11.4369 39.3192 3.39495 31.2773 3.39495 21.3571Z" fill="black" stroke="black" stroke-linecap="square" stroke-linejoin="round"/>
</svg>
