<svg width="243" height="243" viewBox="0 0 243 243" fill="none" xmlns="http://www.w3.org/2000/svg">
<path d="M99.0659 225.936C99.1272 226.69 99.3044 227.435 99.5976 228.171C99.8898 228.913 100.301 229.601 100.83 230.233C101.352 230.871 101.995 231.407 102.76 231.842C103.518 232.276 104.396 232.562 105.395 232.699C106.922 232.909 108.331 232.694 109.624 232.054C110.908 231.421 111.986 230.411 112.858 229.025C113.721 227.646 114.291 225.95 114.568 223.938C114.841 221.946 114.749 220.166 114.291 218.598C113.832 217.029 113.064 215.759 111.986 214.786C110.901 213.82 109.566 213.228 107.983 213.01C106.569 212.816 105.271 212.971 104.091 213.475C102.903 213.979 101.92 214.797 101.14 215.93C100.361 217.063 99.8616 218.479 99.6426 220.176L99.2086 219.891L106.554 220.9L106.386 222.125L98.2171 221.002L98.3854 219.778C98.6475 217.871 99.2392 216.278 100.16 215C101.074 213.727 102.225 212.81 103.614 212.248C104.996 211.686 106.511 211.517 108.157 211.744C110.015 211.999 111.573 212.683 112.832 213.795C114.092 214.907 114.991 216.346 115.53 218.112C116.06 219.884 116.172 221.885 115.866 224.116C115.636 225.791 115.209 227.28 114.585 228.585C113.961 229.89 113.178 230.973 112.235 231.833C111.292 232.699 110.225 233.316 109.034 233.683C107.843 234.057 106.572 234.151 105.221 233.966C103.997 233.797 102.924 233.442 102.002 232.899C101.079 232.364 100.309 231.706 99.6921 230.926C99.0672 230.152 98.5907 229.316 98.2625 228.417C97.9334 227.526 97.7509 226.637 97.715 225.751L99.0659 225.936Z" fill="black"/>
<path d="M91.3871 208.267L92.6769 208.828L76.7635 225.703L75.3564 225.092L76.8277 201.943L78.1175 202.504L76.6944 223.803L76.7921 223.845L91.3871 208.267ZM86.2875 215.008L76.6724 210.831L77.1647 209.698L86.7798 213.874L86.2875 215.008Z" fill="black"/>
<path d="M67.7558 195.958L53.9866 212.882L48.7721 208.64C47.7033 207.77 46.9535 206.813 46.5229 205.766C46.0922 204.72 45.9728 203.657 46.1647 202.577C46.3521 201.503 46.8448 200.475 47.6426 199.495C48.4314 198.525 49.3328 197.839 50.3466 197.437C51.3559 197.04 52.4143 196.949 53.5218 197.164C54.6237 197.373 55.7091 197.913 56.7779 198.783L61.4471 202.581L60.6604 203.548L56.0161 199.77C55.1456 199.061 54.2696 198.619 53.3881 198.442C52.5067 198.265 51.6631 198.334 50.8574 198.649C50.0473 198.97 49.3172 199.529 48.6673 200.328C48.0129 201.133 47.609 201.967 47.4554 202.831C47.2974 203.7 47.3953 204.553 47.7489 205.39C48.097 206.223 48.7063 206.993 49.5768 207.701L53.7335 211.083L66.7228 195.117L67.7558 195.958ZM54.5667 197.972L56.6408 186.915L57.8308 187.883L55.7319 198.92L54.5667 197.972Z" fill="black"/>
<path d="M50.4137 179.969L51.2246 181.117L28.8597 187.268L27.975 186.014L41.2597 167L42.0706 168.149L29.7879 185.608L29.8493 185.695L50.4137 179.969ZM42.5544 183.078L36.5091 174.514L37.5187 173.801L43.564 182.365L42.5544 183.078Z" fill="black"/>
<path d="M11.193 150.784L31.7515 143.478L32.1867 144.702L18.5663 164.309L18.6091 164.43L36.8888 157.933L37.3348 159.188L16.7763 166.494L16.3375 165.259L29.978 145.646L29.9352 145.525L11.6354 152.029L11.193 150.784Z" fill="black"/>
<path d="M12.8732 122.311C11.5275 122.517 10.4706 123.144 9.70235 124.194C8.9336 125.236 8.60279 126.54 8.7099 128.106C8.78212 129.161 9.04119 130.087 9.48713 130.882C9.93307 131.677 10.5086 132.286 11.2137 132.708C11.9189 133.129 12.7072 133.31 13.5787 133.251C14.1385 133.212 14.6379 133.071 15.0768 132.828C15.5082 132.578 15.8875 132.242 16.2146 131.821C16.5347 131.4 16.8071 130.908 17.032 130.345C17.2568 129.781 17.4459 129.163 17.5992 128.491L18.1379 126.062C18.3301 125.23 18.5657 124.459 18.8447 123.75C19.1231 123.033 19.4716 122.404 19.8902 121.863C20.3012 121.315 20.7982 120.879 21.3811 120.554C21.9635 120.223 22.648 120.03 23.4345 119.976C24.5824 119.897 25.6301 120.125 26.5778 120.658C27.525 121.184 28.2981 121.975 28.8971 123.03C29.4885 124.079 29.8346 125.34 29.9354 126.814C30.0314 128.217 29.8776 129.455 29.4741 130.529C29.0702 131.596 28.4672 132.46 27.6652 133.12C26.8561 133.78 25.9015 134.187 24.8015 134.341L24.7084 132.98C25.6035 132.848 26.3633 132.508 26.9878 131.96C27.6048 131.405 28.0616 130.694 28.3582 129.826C28.6548 128.959 28.7661 127.983 28.6919 126.899C28.6119 125.73 28.343 124.712 27.8851 123.847C27.4202 122.982 26.8127 122.322 26.0626 121.868C25.3125 121.414 24.4628 121.219 23.5133 121.284C22.748 121.336 22.1049 121.562 21.5841 121.961C21.0632 122.359 20.6286 122.926 20.2802 123.662C19.9314 124.391 19.6367 125.287 19.3962 126.35L18.8047 128.942C18.4038 130.678 17.7877 132.027 16.9565 132.987C16.1247 133.941 15.0428 134.464 13.7107 134.555C12.5911 134.632 11.5788 134.402 10.6736 133.866C9.76136 133.33 9.02233 132.569 8.45654 131.583C7.89026 130.589 7.56302 129.448 7.47481 128.158C7.38611 126.861 7.55938 125.7 7.99461 124.673C8.42275 123.647 9.05273 122.814 9.88453 122.174C10.7092 121.533 11.6756 121.143 12.7837 121.004L12.8732 122.311Z" fill="black"/>
<path d="M10.0974 97.1949L31.4593 101.634L31.1883 102.938L9.8265 98.4988L10.0974 97.1949Z" fill="black"/>
<path d="M49.7269 62.9555L33.7814 48.0635L38.6169 42.8858C39.5186 41.9204 40.451 41.2654 41.4141 40.921C42.3772 40.5765 43.3275 40.5215 44.2651 40.7558C45.2076 40.9849 46.0889 41.4824 46.909 42.2483C47.5527 42.8494 48.0267 43.4865 48.3311 44.1595C48.6354 44.8325 48.7766 45.5086 48.7546 46.1877C48.7322 46.8568 48.5506 47.4986 48.2098 48.1133L48.3033 48.2005C48.8587 47.6891 49.5282 47.3572 50.3119 47.2048C51.0905 47.0476 51.9037 47.0977 52.7517 47.3551C53.6045 47.6074 54.4176 48.0947 55.191 48.817C56.0059 49.5781 56.56 50.4259 56.8532 51.3606C57.1461 52.2853 57.1442 53.2602 56.8476 54.2854C56.5458 55.3057 55.915 56.3297 54.9551 57.3575L49.7269 62.9555ZM49.7327 61.1388L54.052 56.514C55.1718 55.315 55.7312 54.1125 55.7302 52.9065C55.734 51.6953 55.261 50.6462 54.3111 49.7591C53.6416 49.1337 52.8942 48.7321 52.069 48.5543C51.2487 48.3713 50.4261 48.4144 49.6012 48.6838C48.771 48.9484 48.0142 49.4466 47.3307 50.1784L42.9823 54.8344L49.7327 61.1388ZM42.0947 54.0054L46.334 49.4663C46.9691 48.7863 47.3592 48.072 47.5045 47.3233C47.6546 46.5695 47.5969 45.8353 47.3313 45.1208C47.0705 44.401 46.6365 43.7576 46.0292 43.1904C45.043 42.2694 43.9758 41.846 42.8276 41.9204C41.6794 41.9948 40.5769 42.5978 39.5201 43.7293L35.5935 47.9337L42.0947 54.0054Z" fill="black"/>
<path d="M68.7459 45.3444L57.4095 26.7026L67.7863 20.3923L68.4284 21.4482L59.1894 27.0665L63.8889 34.7945L72.5727 29.5138L73.2148 30.5697L64.531 35.8504L69.2416 43.5966L78.6991 37.8454L79.3412 38.9013L68.7459 45.3444Z" fill="black"/>
<path d="M90.3202 34.1653L84.4337 13.1562L91.2555 11.2449C92.5275 10.8885 93.6645 10.8133 94.6663 11.0194C95.6682 11.2255 96.5088 11.6722 97.1882 12.3596C97.8744 13.045 98.3689 13.928 98.6717 15.0086C98.9093 15.8566 98.9833 16.6472 98.8937 17.3804C98.8041 18.1136 98.5734 18.7646 98.2017 19.3334C97.835 19.8934 97.3463 20.3475 96.7358 20.6956L96.7703 20.8187C97.5105 20.6703 98.2551 20.7346 99.0039 21.0116C99.7507 21.2817 100.42 21.7471 101.01 22.4077C101.608 23.0663 102.049 23.9051 102.335 24.9241C102.636 25.9979 102.669 27.0102 102.434 27.9612C102.203 28.9034 101.695 29.7354 100.909 30.4572C100.121 31.1722 99.05 31.7194 97.6959 32.0988L90.3202 34.1653ZM91.2691 32.6161L97.3625 30.9088C98.9423 30.4662 100.045 29.7294 100.671 28.6985C101.303 27.6656 101.444 26.5234 101.094 25.2719C100.847 24.3897 100.417 23.6583 99.804 23.0776C99.1982 22.495 98.4729 22.1045 97.6281 21.906C96.7814 21.7007 95.8759 21.7331 94.9116 22.0033L88.7771 23.7221L91.2691 32.6161ZM88.4494 22.5527L94.43 20.877C95.3259 20.6259 96.0304 20.2183 96.5436 19.6542C97.0635 19.088 97.3956 18.4307 97.54 17.6822C97.6911 16.9318 97.6546 16.1565 97.4304 15.3564C97.0663 14.057 96.3745 13.1408 95.3548 12.6078C94.3351 12.0747 93.0798 12.0171 91.5889 12.4348L86.0494 13.9869L88.4494 22.5527Z" fill="black"/>
<path d="M114.161 29H112.755L120.628 7.18182H122.162L130.035 29H128.629L121.448 8.89702H121.342L114.161 29ZM116.154 20.7862L126.636 20.7862V22.022L116.154 22.022V20.7862Z" fill="black"/>
<path d="M156.509 18.3001C156.765 16.9632 156.528 15.7571 155.797 14.6819C155.072 13.6085 153.954 12.8601 152.443 12.4367C151.424 12.1512 150.465 12.0853 149.566 12.2392C148.668 12.3931 147.901 12.7316 147.268 13.2548C146.635 13.7781 146.2 14.4603 145.964 15.3015C145.813 15.8417 145.779 16.3595 145.861 16.8546C145.952 17.3449 146.142 17.8146 146.429 18.2639C146.718 18.7063 147.09 19.1278 147.546 19.5284C148.002 19.929 148.521 20.3141 149.103 20.6838L151.211 22.0047C151.931 22.4644 152.578 22.9445 153.153 23.4449C153.735 23.9473 154.211 24.4863 154.581 25.062C154.959 25.6327 155.204 26.2471 155.315 26.905C155.432 27.5649 155.385 28.2744 155.172 29.0335C154.862 30.1414 154.297 31.0526 153.477 31.767C152.664 32.4833 151.66 32.947 150.465 33.158C149.279 33.364 147.974 33.2678 146.552 32.8692C145.198 32.4898 144.082 31.9302 143.205 31.1903C142.335 30.4523 141.724 29.595 141.37 28.6183C141.019 27.6348 140.955 26.599 141.179 25.5111L142.492 25.879C142.317 26.7667 142.383 27.5965 142.69 28.3686C143.007 29.1358 143.524 29.8043 144.242 30.3743C144.96 30.9443 145.842 31.3758 146.888 31.669C148.017 31.9852 149.065 32.0725 150.034 31.9309C151.005 31.7826 151.83 31.431 152.509 30.8763C153.188 30.3217 153.656 29.5861 153.913 28.6697C154.12 27.9311 154.123 27.2496 153.922 26.6253C153.72 26.001 153.332 25.4015 152.755 24.827C152.185 24.2543 151.44 23.6766 150.519 23.0941L148.274 21.6685C146.773 20.7094 145.708 19.6773 145.081 18.5722C144.461 17.4691 144.331 16.2747 144.691 14.989C144.994 13.9084 145.549 13.0314 146.358 12.3581C147.168 11.6778 148.132 11.2363 149.251 11.0335C150.377 10.8326 151.562 10.9066 152.807 11.2553C154.058 11.606 155.095 12.1582 155.916 12.9121C156.74 13.659 157.314 14.5317 157.639 15.53C157.966 16.5215 158.01 17.5627 157.771 18.6536L156.509 18.3001Z" fill="black"/>
<path d="M184.752 54.0451L200.697 39.153L205.286 44.0659C206.226 45.0729 206.839 46.1239 207.123 47.219C207.407 48.3141 207.38 49.3835 207.043 50.4273C206.711 51.4661 206.083 52.417 205.159 53.2799C204.246 54.1331 203.26 54.6899 202.2 54.9501C201.147 55.2056 200.086 55.1518 199.018 54.7887C197.955 54.4307 196.953 53.7483 196.012 52.7413L191.904 48.3423L192.815 47.4915L196.901 51.8672C197.667 52.6873 198.475 53.245 199.324 53.5404C200.173 53.8357 201.018 53.8822 201.859 53.6797C202.706 53.4725 203.505 53.0174 204.258 52.3145C205.016 51.6067 205.529 50.8353 205.799 50.0003C206.074 49.1605 206.093 48.3019 205.857 47.4245C205.625 46.5523 205.127 45.7061 204.361 44.886L200.703 40.9697L185.661 55.0183L184.752 54.0451ZM198.093 53.845L194.532 64.5171L193.485 63.3959L197.067 52.7472L198.093 53.845Z" fill="black"/>
<path d="M200.473 73.6312L219.845 63.5934L225.432 74.3767L224.335 74.9452L219.36 65.3443L211.33 69.5055L216.005 78.5294L214.908 79.098L210.232 70.0741L202.183 74.245L207.275 84.0729L206.178 84.6415L200.473 73.6312Z" fill="black"/>
<path d="M228.738 104.924C230.043 104.536 231.005 103.771 231.623 102.627C232.243 101.49 232.393 100.153 232.074 98.6159C231.858 97.5798 231.476 96.6981 230.926 95.971C230.375 95.2438 229.722 94.7194 228.966 94.3977C228.211 94.0761 227.405 94.0041 226.55 94.1818C226 94.296 225.525 94.5036 225.123 94.8047C224.73 95.1113 224.4 95.4954 224.133 95.9571C223.873 96.4173 223.67 96.9419 223.524 97.5308C223.378 98.1197 223.275 98.7577 223.215 99.4449L223.012 101.924C222.935 102.775 222.806 103.57 222.626 104.311C222.448 105.059 222.189 105.73 221.848 106.323C221.515 106.921 221.082 107.421 220.549 107.822C220.017 108.23 219.365 108.514 218.593 108.675C217.467 108.909 216.398 108.826 215.386 108.427C214.376 108.035 213.503 107.357 212.766 106.393C212.037 105.435 211.522 104.232 211.222 102.786C210.936 101.409 210.919 100.161 211.173 99.042C211.428 97.9299 211.907 96.9924 212.612 96.2294C213.324 95.4649 214.214 94.9317 215.283 94.6298L215.56 95.9649C214.692 96.218 213.985 96.6585 213.441 97.2866C212.905 97.9202 212.55 98.6869 212.374 99.5867C212.198 100.486 212.221 101.468 212.442 102.532C212.68 103.68 213.085 104.651 213.657 105.446C214.235 106.24 214.927 106.811 215.732 107.158C216.537 107.506 217.405 107.583 218.337 107.39C219.088 107.234 219.694 106.923 220.156 106.457C220.618 105.991 220.971 105.37 221.216 104.593C221.462 103.824 221.632 102.897 221.726 101.811L221.959 99.1618C222.12 97.3874 222.546 95.9676 223.239 94.9024C223.933 93.8442 224.934 93.1792 226.241 92.9076C227.34 92.6792 228.374 92.769 229.344 93.1768C230.321 93.5832 231.156 94.2365 231.851 95.1367C232.547 96.0438 233.027 97.1302 233.29 98.3957C233.555 99.6683 233.541 100.843 233.25 101.919C232.965 102.993 232.455 103.905 231.718 104.653C230.988 105.399 230.084 105.917 229.005 106.207L228.738 104.924Z" fill="black"/>
<path d="M234.908 129.427L213.141 127.939L213.232 126.61L234.999 128.099L234.908 129.427Z" fill="black"/>
<path d="M210.019 146.376L230.577 153.683L230.132 154.938L218.196 150.696L218.146 150.836L226.229 165.92L225.636 167.586L219.081 155.205L205.106 160.199L205.663 158.633L218.463 154.081L216.269 150.011L209.573 147.631L210.019 146.376Z" fill="black"/>
<path d="M199.864 188.294C198.024 186.995 196.642 185.542 195.718 183.933C194.799 182.328 194.361 180.688 194.404 179.015C194.442 177.347 194.984 175.773 196.028 174.293C197.077 172.808 198.382 171.765 199.945 171.164C201.51 170.573 203.202 170.442 205.022 170.77C206.847 171.103 208.677 171.916 210.511 173.21C212.35 174.509 213.729 175.96 214.648 177.565C215.563 179.176 216.001 180.815 215.962 182.483C215.929 184.155 215.389 185.734 214.34 187.219C213.296 188.699 211.994 189.736 210.435 190.331C208.873 190.932 207.178 191.066 205.353 190.734C203.533 190.405 201.703 189.592 199.864 188.294ZM200.613 187.232C202.267 188.399 203.897 189.132 205.503 189.431C207.104 189.736 208.58 189.634 209.93 189.126C211.285 188.623 212.407 187.741 213.296 186.482C214.185 185.223 214.642 183.873 214.669 182.431C214.701 180.993 214.305 179.566 213.48 178.149C212.656 176.742 211.414 175.452 209.755 174.281C208.113 173.122 206.49 172.385 204.887 172.07C203.285 171.765 201.806 171.865 200.451 172.369C199.096 172.872 197.969 173.76 197.072 175.03C196.184 176.29 195.726 177.64 195.699 179.082C195.679 180.527 196.08 181.954 196.904 183.361C197.723 184.774 198.96 186.064 200.613 187.232Z" fill="black"/>
<path d="M161.915 214.113L163.959 218.952L167.042 214.685L167.969 215.375L164.771 219.563L170.015 220.084L169.886 221.232L164.664 220.574L166.805 225.37L165.769 225.82L163.726 220.981L160.642 225.247L159.716 224.558L162.914 220.369L157.67 219.848L157.799 218.7L163.021 219.359L160.88 214.563L161.915 214.113Z" fill="black"/>
</svg>
