<svg width="46" height="46" viewBox="0 0 46 46" fill="none" xmlns="http://www.w3.org/2000/svg">
<g id="vector">
<path d="M33.7065 11.983C32.9683 11.2448 31.7714 11.2448 31.0332 11.983C30.295 12.7212 30.295 13.9181 31.0332 14.6563C31.7714 15.3945 32.9683 15.3945 33.7065 14.6563C34.4447 13.9181 34.4447 12.7212 33.7065 11.983Z" fill="black"/>
<path fill-rule="evenodd" clip-rule="evenodd" d="M45.9631 0L43.9571 18.0535L37.0182 24.8223L40.2935 36.0037L30.2973 46L22.8957 38.5984L17.0544 44.2964L1.01446 28.2564L6.85579 22.5584L0 15.7026L9.99626 5.70632L20.8671 8.89072L27.927 2.00401L45.9631 0ZM24.7 36.8383L34.9755 26.8148L37.4547 35.2782L30.2973 42.4356L24.7 36.8383ZM3.5644 15.7026L8.66012 20.7983L18.7965 10.9105L10.7218 8.54518L3.5644 15.7026ZM29.0666 4.41331L4.60113 28.2787L17.0764 40.754L41.5517 16.879L43.1101 2.85291L29.0666 4.41331Z" fill="black"/>
</g>
</svg>
