<svg width="122" height="50" viewBox="0 0 122 50" fill="none" xmlns="http://www.w3.org/2000/svg">
<circle cx="24.7397" cy="24.7397" r="24.6776" fill="#CDF44F"/>
<path d="M9.992 33V16.2H17.264C18.768 16.2 20.064 16.448 21.152 16.944C22.24 17.424 23.08 18.12 23.672 19.032C24.264 19.944 24.56 21.032 24.56 22.296C24.56 23.544 24.264 24.624 23.672 25.536C23.08 26.432 22.24 27.12 21.152 27.6C20.064 28.08 18.768 28.32 17.264 28.32H12.152L13.88 26.616V33H9.992ZM20.672 33L16.472 26.904H20.624L24.872 33H20.672ZM13.88 27.048L12.152 25.224H17.048C18.248 25.224 19.144 24.968 19.736 24.456C20.328 23.928 20.624 23.208 20.624 22.296C20.624 21.368 20.328 20.648 19.736 20.136C19.144 19.624 18.248 19.368 17.048 19.368H12.152L13.88 17.52V27.048ZM33.1604 33.288C31.8164 33.288 30.5284 33.112 29.2964 32.76C28.0644 32.392 27.0724 31.92 26.3204 31.344L27.6404 28.416C28.3604 28.928 29.2084 29.352 30.1844 29.688C31.1764 30.008 32.1764 30.168 33.1844 30.168C33.9524 30.168 34.5684 30.096 35.0324 29.952C35.5124 29.792 35.8644 29.576 36.0884 29.304C36.3124 29.032 36.4244 28.72 36.4244 28.368C36.4244 27.92 36.2484 27.568 35.8964 27.312C35.5444 27.04 35.0804 26.824 34.5044 26.664C33.9284 26.488 33.2884 26.328 32.5844 26.184C31.8964 26.024 31.2004 25.832 30.4964 25.608C29.8084 25.384 29.1764 25.096 28.6004 24.744C28.0244 24.392 27.5524 23.928 27.1844 23.352C26.8324 22.776 26.6564 22.04 26.6564 21.144C26.6564 20.184 26.9124 19.312 27.4244 18.528C27.9524 17.728 28.7364 17.096 29.7764 16.632C30.8324 16.152 32.1524 15.912 33.7364 15.912C34.7924 15.912 35.8324 16.04 36.8564 16.296C37.8804 16.536 38.7844 16.904 39.5684 17.4L38.3684 20.352C37.5844 19.904 36.8004 19.576 36.0164 19.368C35.2324 19.144 34.4644 19.032 33.7124 19.032C32.9604 19.032 32.3444 19.12 31.8644 19.296C31.3844 19.472 31.0404 19.704 30.8324 19.992C30.6244 20.264 30.5204 20.584 30.5204 20.952C30.5204 21.384 30.6964 21.736 31.0484 22.008C31.4004 22.264 31.8644 22.472 32.4404 22.632C33.0164 22.792 33.6484 22.952 34.3364 23.112C35.0404 23.272 35.7364 23.456 36.4244 23.664C37.1284 23.872 37.7684 24.152 38.3444 24.504C38.9204 24.856 39.3844 25.32 39.7364 25.896C40.1044 26.472 40.2884 27.2 40.2884 28.08C40.2884 29.024 40.0244 29.888 39.4964 30.672C38.9684 31.456 38.1764 32.088 37.1204 32.568C36.0804 33.048 34.7604 33.288 33.1604 33.288Z" fill="black"/>
<path d="M58.44 24V9.1H63.98C64.9933 9.1 65.8867 9.28667 66.66 9.66C67.4467 10.02 68.06 10.5533 68.5 11.26C68.94 11.9533 69.16 12.8 69.16 13.8C69.16 14.8267 68.9133 15.7 68.42 16.42C67.94 17.14 67.2867 17.6733 66.46 18.02L69.88 24H66.8L63.14 17.46L64.9 18.5H61.16V24H58.44ZM61.16 16.1H64.02C64.5133 16.1 64.94 16.0067 65.3 15.82C65.66 15.62 65.94 15.3467 66.14 15C66.34 14.6533 66.44 14.2533 66.44 13.8C66.44 13.3333 66.34 12.9333 66.14 12.6C65.94 12.2533 65.66 11.9867 65.3 11.8C64.94 11.6 64.5133 11.5 64.02 11.5H61.16V16.1ZM75.9972 24.24C74.8772 24.24 73.8972 23.9867 73.0572 23.48C72.2172 22.9733 71.5639 22.2867 71.0972 21.42C70.6305 20.5533 70.3972 19.5933 70.3972 18.54C70.3972 17.4467 70.6305 16.48 71.0972 15.64C71.5772 14.7867 72.2239 14.1133 73.0372 13.62C73.8639 13.1267 74.7839 12.88 75.7972 12.88C76.6505 12.88 77.3972 13.02 78.0372 13.3C78.6905 13.58 79.2439 13.9667 79.6972 14.46C80.1505 14.9533 80.4972 15.52 80.7372 16.16C80.9772 16.7867 81.0972 17.4667 81.0972 18.2C81.0972 18.3867 81.0839 18.58 81.0572 18.78C81.0439 18.98 81.0105 19.1533 80.9572 19.3H72.5572V17.3H79.4772L78.2372 18.24C78.3572 17.6267 78.3239 17.08 78.1372 16.6C77.9639 16.12 77.6705 15.74 77.2572 15.46C76.8572 15.18 76.3705 15.04 75.7972 15.04C75.2505 15.04 74.7639 15.18 74.3372 15.46C73.9105 15.7267 73.5839 16.1267 73.3572 16.66C73.1439 17.18 73.0639 17.8133 73.1172 18.56C73.0639 19.2267 73.1505 19.82 73.3772 20.34C73.6172 20.8467 73.9639 21.24 74.4172 21.52C74.8839 21.8 75.4172 21.94 76.0172 21.94C76.6172 21.94 77.1239 21.8133 77.5372 21.56C77.9639 21.3067 78.2972 20.9667 78.5372 20.54L80.6572 21.58C80.4439 22.1 80.1105 22.56 79.6572 22.96C79.2039 23.36 78.6639 23.6733 78.0372 23.9C77.4239 24.1267 76.7439 24.24 75.9972 24.24ZM83.0833 24V13.12H85.5433V15.26L85.3433 14.88C85.5966 14.2267 86.0099 13.7333 86.5833 13.4C87.1699 13.0533 87.8499 12.88 88.6233 12.88C89.4233 12.88 90.1299 13.0533 90.7433 13.4C91.3699 13.7467 91.8566 14.2333 92.2033 14.86C92.5499 15.4733 92.7233 16.1867 92.7233 17V24H90.1033V17.62C90.1033 17.14 90.0099 16.7267 89.8233 16.38C89.6366 16.0333 89.3766 15.7667 89.0433 15.58C88.7233 15.38 88.3433 15.28 87.9033 15.28C87.4766 15.28 87.0966 15.38 86.7633 15.58C86.4299 15.7667 86.1699 16.0333 85.9833 16.38C85.7966 16.7267 85.7033 17.14 85.7033 17.62V24H83.0833ZM100.099 24.24C98.9788 24.24 97.9988 23.9867 97.1588 23.48C96.3188 22.9733 95.6654 22.2867 95.1988 21.42C94.7321 20.5533 94.4988 19.5933 94.4988 18.54C94.4988 17.4467 94.7321 16.48 95.1988 15.64C95.6788 14.7867 96.3254 14.1133 97.1388 13.62C97.9654 13.1267 98.8854 12.88 99.8988 12.88C100.752 12.88 101.499 13.02 102.139 13.3C102.792 13.58 103.345 13.9667 103.799 14.46C104.252 14.9533 104.599 15.52 104.839 16.16C105.079 16.7867 105.199 17.4667 105.199 18.2C105.199 18.3867 105.185 18.58 105.159 18.78C105.145 18.98 105.112 19.1533 105.059 19.3H96.6587V17.3H103.579L102.339 18.24C102.459 17.6267 102.425 17.08 102.239 16.6C102.065 16.12 101.772 15.74 101.359 15.46C100.959 15.18 100.472 15.04 99.8988 15.04C99.3521 15.04 98.8654 15.18 98.4388 15.46C98.0121 15.7267 97.6854 16.1267 97.4588 16.66C97.2454 17.18 97.1654 17.8133 97.2188 18.56C97.1654 19.2267 97.2521 19.82 97.4788 20.34C97.7188 20.8467 98.0654 21.24 98.5188 21.52C98.9854 21.8 99.5188 21.94 100.119 21.94C100.719 21.94 101.225 21.8133 101.639 21.56C102.065 21.3067 102.399 20.9667 102.639 20.54L104.759 21.58C104.545 22.1 104.212 22.56 103.759 22.96C103.305 23.36 102.765 23.6733 102.139 23.9C101.525 24.1267 100.845 24.24 100.099 24.24ZM110.446 24.24C109.686 24.24 109.026 24.1133 108.466 23.86C107.906 23.6067 107.472 23.2467 107.166 22.78C106.859 22.3 106.706 21.7467 106.706 21.12C106.706 20.52 106.839 19.9867 107.106 19.52C107.372 19.04 107.786 18.64 108.346 18.32C108.906 18 109.612 17.7733 110.466 17.64L114.026 17.06V19.06L110.966 19.58C110.446 19.6733 110.059 19.84 109.806 20.08C109.552 20.32 109.426 20.6333 109.426 21.02C109.426 21.3933 109.566 21.6933 109.846 21.92C110.139 22.1333 110.499 22.24 110.926 22.24C111.472 22.24 111.952 22.1267 112.366 21.9C112.792 21.66 113.119 21.3333 113.346 20.92C113.586 20.5067 113.706 20.0533 113.706 19.56V16.76C113.706 16.2933 113.519 15.9067 113.146 15.6C112.786 15.28 112.306 15.12 111.706 15.12C111.146 15.12 110.646 15.2733 110.206 15.58C109.779 15.8733 109.466 16.2667 109.266 16.76L107.126 15.72C107.339 15.1467 107.672 14.6533 108.126 14.24C108.592 13.8133 109.139 13.48 109.766 13.24C110.392 13 111.072 12.88 111.806 12.88C112.699 12.88 113.486 13.0467 114.166 13.38C114.846 13.7 115.372 14.1533 115.746 14.74C116.132 15.3133 116.326 15.9867 116.326 16.76V24H113.846V22.14L114.406 22.1C114.126 22.5667 113.792 22.96 113.406 23.28C113.019 23.5867 112.579 23.8267 112.086 24C111.592 24.16 111.046 24.24 110.446 24.24ZM63.76 42.24C62.8133 42.24 61.9333 42.0667 61.12 41.72C60.32 41.3733 59.6267 40.8933 59.04 40.28C58.4667 39.6533 58.0467 38.9267 57.78 38.1L60.04 37.12C60.4 37.9733 60.92 38.6467 61.6 39.14C62.28 39.62 63.0467 39.86 63.9 39.86C64.38 39.86 64.7933 39.7867 65.14 39.64C65.5 39.48 65.7733 39.2667 65.96 39C66.16 38.7333 66.26 38.4133 66.26 38.04C66.26 37.6 66.1267 37.24 65.86 36.96C65.6067 36.6667 65.22 36.44 64.7 36.28L61.84 35.36C60.68 35 59.8067 34.46 59.22 33.74C58.6333 33.02 58.34 32.1733 58.34 31.2C58.34 30.3467 58.5467 29.5933 58.96 28.94C59.3867 28.2867 59.9733 27.78 60.72 27.42C61.48 27.0467 62.3467 26.86 63.32 26.86C64.2133 26.86 65.0333 27.02 65.78 27.34C66.5267 27.6467 67.1667 28.08 67.7 28.64C68.2467 29.1867 68.6533 29.8333 68.92 30.58L66.68 31.58C66.3867 30.8333 65.9467 30.26 65.36 29.86C64.7733 29.4467 64.0933 29.24 63.32 29.24C62.8667 29.24 62.4667 29.32 62.12 29.48C61.7733 29.6267 61.5 29.84 61.3 30.12C61.1133 30.3867 61.02 30.7067 61.02 31.08C61.02 31.4933 61.1533 31.86 61.42 32.18C61.6867 32.4867 62.0933 32.7267 62.64 32.9L65.38 33.76C66.5667 34.1467 67.4533 34.68 68.04 35.36C68.64 36.04 68.94 36.88 68.94 37.88C68.94 38.7333 68.72 39.4867 68.28 40.14C67.84 40.7933 67.2333 41.3067 66.46 41.68C65.6867 42.0533 64.7867 42.24 63.76 42.24ZM76.1292 42.12C74.9026 42.12 73.9492 41.7867 73.2692 41.12C72.6026 40.44 72.2692 39.4867 72.2692 38.26V33.46H70.3892V31.12H70.5892C71.1226 31.12 71.5359 30.98 71.8292 30.7C72.1226 30.42 72.2692 30.0133 72.2692 29.48V28.64H74.8892V31.12H77.3892V33.46H74.8892V38.12C74.8892 38.48 74.9492 38.7867 75.0692 39.04C75.2026 39.2933 75.4026 39.4867 75.6692 39.62C75.9492 39.7533 76.3026 39.82 76.7292 39.82C76.8226 39.82 76.9292 39.8133 77.0492 39.8C77.1826 39.7867 77.3092 39.7733 77.4292 39.76V42C77.2426 42.0267 77.0292 42.0533 76.7892 42.08C76.5492 42.1067 76.3292 42.12 76.1292 42.12ZM83.3109 42.24C82.4709 42.24 81.7376 42.0533 81.1109 41.68C80.4976 41.3067 80.0243 40.7867 79.6909 40.12C79.3709 39.4533 79.2109 38.6733 79.2109 37.78V31.12H81.8309V37.56C81.8309 38.0133 81.9176 38.4133 82.0909 38.76C82.2776 39.0933 82.5376 39.36 82.8709 39.56C83.2176 39.7467 83.6043 39.84 84.0309 39.84C84.4576 39.84 84.8376 39.7467 85.1709 39.56C85.5043 39.36 85.7643 39.0867 85.9509 38.74C86.1376 38.3933 86.2309 37.98 86.2309 37.5V31.12H88.8509V42H86.3709V39.86L86.5909 40.24C86.3376 40.9067 85.9176 41.4067 85.3309 41.74C84.7576 42.0733 84.0843 42.24 83.3109 42.24ZM96.3464 42.24C95.2931 42.24 94.3531 41.9933 93.5264 41.5C92.6997 40.9933 92.0464 40.3067 91.5664 39.44C91.0864 38.5733 90.8464 37.6133 90.8464 36.56C90.8464 35.4933 91.0864 34.5333 91.5664 33.68C92.0464 32.8267 92.6997 32.1467 93.5264 31.64C94.3664 31.1333 95.2997 30.88 96.3264 30.88C97.1531 30.88 97.8864 31.0467 98.5264 31.38C99.1797 31.7 99.6931 32.1533 100.066 32.74L99.6664 33.28V26.86H102.286V42H99.8064V39.9L100.086 40.42C99.7131 41.0067 99.1931 41.46 98.5264 41.78C97.8597 42.0867 97.1331 42.24 96.3464 42.24ZM96.6264 39.84C97.2264 39.84 97.7531 39.7 98.2064 39.42C98.6597 39.14 99.0131 38.7533 99.2664 38.26C99.5331 37.7667 99.6664 37.2 99.6664 36.56C99.6664 35.9333 99.5331 35.3733 99.2664 34.88C99.0131 34.3733 98.6597 33.98 98.2064 33.7C97.7531 33.42 97.2264 33.28 96.6264 33.28C96.0397 33.28 95.5131 33.4267 95.0464 33.72C94.5797 34 94.2131 34.3867 93.9464 34.88C93.6931 35.36 93.5664 35.92 93.5664 36.56C93.5664 37.2 93.6931 37.7667 93.9464 38.26C94.2131 38.7533 94.5797 39.14 95.0464 39.42C95.5131 39.7 96.0397 39.84 96.6264 39.84ZM104.724 42V31.12H107.344V42H104.724ZM104.724 29.9V27.1H107.344V29.9H104.724ZM115.083 42.24C114.016 42.24 113.043 41.9933 112.163 41.5C111.296 41.0067 110.603 40.3333 110.083 39.48C109.576 38.6267 109.323 37.6533 109.323 36.56C109.323 35.4667 109.576 34.4933 110.083 33.64C110.603 32.7867 111.296 32.1133 112.163 31.62C113.03 31.1267 114.003 30.88 115.083 30.88C116.15 30.88 117.116 31.1267 117.983 31.62C118.85 32.1133 119.536 32.7867 120.043 33.64C120.563 34.48 120.823 35.4533 120.823 36.56C120.823 37.6533 120.563 38.6267 120.043 39.48C119.523 40.3333 118.83 41.0067 117.963 41.5C117.096 41.9933 116.136 42.24 115.083 42.24ZM115.083 39.84C115.67 39.84 116.183 39.7 116.623 39.42C117.076 39.14 117.43 38.7533 117.683 38.26C117.95 37.7533 118.083 37.1867 118.083 36.56C118.083 35.92 117.95 35.36 117.683 34.88C117.43 34.3867 117.076 34 116.623 33.72C116.183 33.4267 115.67 33.28 115.083 33.28C114.483 33.28 113.956 33.4267 113.503 33.72C113.05 34 112.69 34.3867 112.423 34.88C112.17 35.36 112.043 35.92 112.043 36.56C112.043 37.1867 112.17 37.7533 112.423 38.26C112.69 38.7533 113.05 39.14 113.503 39.42C113.956 39.7 114.483 39.84 115.083 39.84Z" fill="#F2F2F2"/>
</svg>
