<svg width="59" height="46" viewBox="0 0 59 46" fill="none" xmlns="http://www.w3.org/2000/svg">
<g id="vector">
<path fill-rule="evenodd" clip-rule="evenodd" d="M29.1947 13.8C24.1137 13.8 19.9947 17.919 19.9947 23C19.9947 28.081 24.1137 32.2 29.1947 32.2C34.2757 32.2 38.3947 28.081 38.3947 23C38.3947 17.919 34.2757 13.8 29.1947 13.8ZM23.0614 23C23.0614 19.6127 25.8074 16.8667 29.1947 16.8667C32.5821 16.8667 35.3281 19.6127 35.3281 23C35.3281 26.3873 32.5821 29.1333 29.1947 29.1333C25.8074 29.1333 23.0614 26.3873 23.0614 23Z" fill="black"/>
<path fill-rule="evenodd" clip-rule="evenodd" d="M29.1947 0C17.8668 0 10.56 5.69264 6.139 11.3193C3.93592 14.1233 2.43864 16.92 1.49141 19.0138C1.01694 20.0627 0.678101 20.9404 0.456155 21.5619C0.345128 21.8728 0.263189 22.12 0.208025 22.2929C0.180438 22.3793 0.159532 22.4473 0.14502 22.4953C0.137763 22.5194 0.132104 22.5385 0.128005 22.5524C0.125956 22.5594 0.124297 22.5651 0.123023 22.5695L0.121401 22.5751L0.120806 22.5772C0.120568 22.578 0.120354 22.5788 1.59469 23L0.120354 22.5788L0 23L0.120354 23.4212L1.59469 23C0.120354 23.4212 0.120568 23.422 0.120806 23.4228L0.121401 23.4249L0.123023 23.4305C0.124296 23.4349 0.125956 23.4406 0.128005 23.4476C0.132104 23.4615 0.137763 23.4806 0.14502 23.5047C0.159532 23.5527 0.180438 23.6207 0.208025 23.7071C0.263189 23.88 0.345128 24.1272 0.456155 24.4381C0.678101 25.0596 1.01694 25.9373 1.49141 26.9862C2.43864 29.08 3.93592 31.8767 6.139 34.6807C10.56 40.3074 17.8668 46 29.1947 46C40.5226 46 47.8294 40.3074 52.2504 34.6807C54.4535 31.8767 55.9507 29.08 56.898 26.9862C57.3724 25.9373 57.7113 25.0596 57.9332 24.4381C58.0443 24.1272 58.1262 23.88 58.1814 23.7071C58.2089 23.6207 58.2299 23.5527 58.2444 23.5047C58.2516 23.4806 58.2573 23.4615 58.2614 23.4476C58.2634 23.4406 58.2651 23.4349 58.2664 23.4305L58.2686 23.4228C58.2688 23.422 58.269 23.4212 56.7947 23L58.269 23.4212L58.3894 23L58.269 22.5788L56.7947 23C58.269 22.5788 58.2688 22.578 58.2686 22.5772L58.2664 22.5695L58.263 22.5579L58.2614 22.5524C58.2593 22.5452 58.2567 22.5367 58.2538 22.5268C58.251 22.5175 58.2479 22.507 58.2444 22.4953C58.2299 22.4473 58.2089 22.3793 58.1814 22.2929C58.1262 22.12 58.0443 21.8728 57.9332 21.5619C57.7113 20.9404 57.3724 20.0627 56.898 19.0138C55.9507 16.92 54.4535 14.1233 52.2504 11.3193C47.8294 5.69264 40.5226 0 29.1947 0ZM3.34416 23.4067C3.28845 23.2507 3.24161 23.1145 3.20326 23C3.24161 22.8855 3.28845 22.7493 3.34416 22.5933C3.54149 22.0408 3.84952 21.2415 4.28547 20.2778C5.15908 18.3467 6.5368 15.7767 8.55038 13.214C12.5627 8.10736 19.0559 3.06667 29.1947 3.06667C39.3335 3.06667 45.8266 8.10736 49.839 13.214C51.8526 15.7767 53.2303 18.3467 54.1039 20.2778C54.5399 21.2415 54.8479 22.0408 55.0452 22.5933C55.1009 22.7493 55.1478 22.8855 55.1861 23C55.1478 23.1145 55.1009 23.2507 55.0452 23.4067C54.8479 23.9592 54.5399 24.7585 54.1039 25.7222C53.2303 27.6533 51.8526 30.2233 49.839 32.786C45.8266 37.8926 39.3335 42.9333 29.1947 42.9333C19.0559 42.9333 12.5627 37.8926 8.55038 32.786C6.5368 30.2233 5.15908 27.6533 4.28547 25.7222C3.84953 24.7585 3.54149 23.9592 3.34416 23.4067Z" fill="black"/>
</g>
</svg>
