<svg width="75" height="75" viewBox="0 0 75 75" fill="none" xmlns="http://www.w3.org/2000/svg">
<g id="spark, sparks, sparkle, stars, 30">
<path id="Vector" d="M12.7303 25.0839C14.4182 25.9319 16.1057 26.9579 17.5215 28.3772C18.219 29.0883 18.832 29.8776 19.3481 30.7295C19.8502 31.5677 20.2767 32.449 20.6226 33.3628C21.3396 35.2837 21.7287 37.2709 22.0306 39.2181C22.1097 39.7012 22.181 40.1841 22.2482 40.6654L22.4415 42.1065L20.6805 42.3258C20.3982 40.059 20.177 37.7296 20.3708 35.3667C20.5553 33.0141 21.1736 30.6169 22.4279 28.5172C22.7427 27.9893 23.0969 27.4859 23.4877 27.0114C23.8794 26.5281 24.3147 26.0818 24.7882 25.6782C24.9035 25.5721 25.0288 25.48 25.1514 25.3839C25.2757 25.2904 25.3953 25.1889 25.524 25.1025C25.7808 24.9284 26.0355 24.7488 26.3043 24.5974C26.8317 24.2836 27.3814 24.0089 27.9489 23.7756C28.5063 23.5452 29.076 23.3458 29.6554 23.1784C30.2292 23.0182 30.8054 22.87 31.38 22.754C32.5303 22.5097 33.6733 22.345 34.8004 22.1831L34.9116 24.3191L33.9072 24.2975C32.8159 24.277 31.7147 24.2185 30.605 24.1288C29.4691 24.0472 28.3409 23.8804 27.23 23.6299C26.0588 23.3683 24.9365 22.9224 23.905 22.309C23.3721 21.9799 22.8795 21.5897 22.437 21.1464C21.9964 20.7007 21.6128 20.2019 21.2952 19.6615C20.6677 18.6059 20.2829 17.5014 19.954 16.4389C19.6218 15.3699 19.3452 14.2844 19.1252 13.1868C18.8997 12.0911 18.7387 10.9831 18.6429 9.86851C18.5968 9.31146 18.5608 8.75376 18.5435 8.19547L18.5306 7.77685C18.5273 7.63735 18.5309 7.49755 18.5191 7.35826C18.5031 7.07943 18.4996 6.80016 18.4894 6.5209L20.3829 6.61054C20.2238 8.64807 20.0535 10.7204 19.6608 12.8029C19.6073 13.0627 19.5583 13.3237 19.5005 13.5829L19.3063 14.3593L19.0844 15.1327L18.8321 15.9009C18.4745 16.9328 18.0181 17.9278 17.4691 18.8719C16.4076 20.6566 14.9517 22.1746 13.213 23.3097C12.5407 23.7617 11.8053 24.1117 11.0306 24.3483C10.7477 24.4293 10.4588 24.4876 10.1666 24.5227C10.0364 24.5369 9.91366 24.5462 9.79846 24.5505L9.71336 24.5529L9.64451 24.5443C9.59617 24.5377 9.54954 24.5313 9.50462 24.5252C8.94754 24.4438 8.63824 24.3469 9.06743 23.9249C9.12952 23.8664 9.19518 23.8117 9.26402 23.7613C9.30002 23.7333 9.35089 23.7016 9.38333 23.6751C9.41349 23.6499 9.44499 23.6235 9.47783 23.5961C9.60908 23.4873 9.76766 23.3809 9.94271 23.255C10.1163 23.1261 10.3181 23.0036 10.53 22.8521C10.6375 22.7803 10.7498 22.7054 10.867 22.6272C10.9819 22.5458 11.1022 22.4632 11.2278 22.3793C11.878 21.9333 12.4983 21.4453 13.0848 20.9183C13.6838 20.3886 14.241 19.8135 14.7515 19.1981C15.4474 18.3494 16.0323 17.4155 16.4921 16.419C16.9569 15.4013 17.3267 14.3428 17.5968 13.257C18.1766 11.0687 18.4387 8.76697 18.6847 6.44701L18.6849 6.44569C18.7053 6.25349 18.7985 6.07638 18.9453 5.95063C19.0921 5.82489 19.2814 5.76003 19.4745 5.76934C19.6676 5.77865 19.8498 5.86143 19.9838 6.00071C20.1178 6.14 20.1935 6.32525 20.1954 6.51853C20.1988 6.8949 20.1864 7.27198 20.2128 7.64803C20.2366 8.02395 20.2649 8.3994 20.303 8.77387C20.3757 9.52312 20.4838 10.2679 20.6072 11.0087C20.8514 12.4895 21.2093 13.9493 21.6777 15.3751C21.9773 16.3501 22.3664 17.2954 22.8402 18.1987C23.063 18.607 23.3257 18.9922 23.6244 19.3488C23.9159 19.6838 24.2387 19.9901 24.5886 20.2636C24.917 20.5094 25.2656 20.7268 25.6308 20.9136C26.0128 21.1016 26.407 21.2636 26.8109 21.3984C27.6561 21.6681 28.5246 21.8582 29.4052 21.9661C31.2088 22.2009 33.0833 22.2351 34.9686 22.3047L34.9797 22.3051C35.2159 22.3138 35.4402 22.411 35.6081 22.5774C35.776 22.7437 35.8752 22.9671 35.8861 23.2032C35.897 23.4393 35.8188 23.6708 35.6669 23.8519C35.515 24.0331 35.3007 24.1505 35.0663 24.1809C33.6349 24.3667 32.2265 24.561 30.8729 24.8764C29.525 25.1986 28.2197 25.6208 27.067 26.2836C26.5753 26.5645 26.111 26.8908 25.6803 27.2583C25.2522 27.6341 24.86 28.049 24.5089 28.4975C23.8079 29.4251 23.2568 30.4569 22.8757 31.5553C22.4857 32.6699 22.2341 33.8281 22.1266 35.004C22.0148 36.1993 21.9899 37.4012 22.0522 38.6001C22.1023 39.7672 22.221 40.9412 22.3587 42.1194L22.3596 42.1273C22.3842 42.3386 22.3241 42.551 22.1923 42.7181C22.0606 42.8851 21.868 42.9931 21.6567 43.0183C21.4455 43.0436 21.2329 42.9841 21.0655 42.8528C20.8981 42.7215 20.7895 42.5292 20.7637 42.318C20.5324 40.4257 20.2883 38.5495 19.8508 36.7409C19.6453 35.8408 19.3827 34.9546 19.0646 34.0878C18.747 33.2364 18.35 32.4168 17.8789 31.6397C17.7552 31.4519 17.6404 31.257 17.5103 31.0741L17.1083 30.5339C16.8256 30.1863 16.5249 29.8538 16.2075 29.5376C15.5506 28.908 14.8307 28.3477 14.0592 27.8654C13.6707 27.6187 13.2702 27.3862 12.8611 27.1645C12.6566 27.0537 12.4501 26.9455 12.2416 26.8397L11.9276 26.6827L11.7707 26.6057L11.6215 26.5389C11.427 26.4454 11.2135 26.3697 11.0062 26.2877C10.7904 26.2174 10.5794 26.1375 10.358 26.0769C9.92195 25.9413 9.47173 25.8384 9.0218 25.7409C8.14915 25.559 7.26375 25.4447 6.37351 25.399C5.51065 25.3565 4.6592 25.4073 3.95155 25.6523L3.74815 24.8432L3.74749 24.7897H3.7483H3.75328H3.75994H3.77327L3.79993 24.7899C3.81722 24.7902 3.83494 24.7906 3.85984 24.7894L3.99754 24.7849L4.27762 24.7733C4.46548 24.7649 4.65227 24.7565 4.83799 24.7482C5.21088 24.7334 5.57921 24.7187 5.94299 24.7042C6.67175 24.6779 7.38323 24.6621 8.07838 24.6475C8.31489 24.6385 8.55174 24.6478 8.78684 24.6751C8.87803 24.6824 8.93252 24.7099 9.01661 24.7096C9.07135 24.7081 9.12526 24.7233 9.17111 24.7532L9.30911 24.5922C9.28961 24.6657 9.26261 24.6981 9.27548 24.7047C9.28427 24.7113 9.33218 24.6905 9.37598 24.6202C9.38128 24.6117 9.38464 24.6022 9.38583 24.5923C9.38701 24.5824 9.38599 24.5724 9.38285 24.5629C9.3797 24.5534 9.37449 24.5448 9.36761 24.5376C9.36072 24.5303 9.35233 24.5247 9.34303 24.5211C9.33372 24.5175 9.32374 24.5161 9.31379 24.5168C9.30384 24.5175 9.29418 24.5204 9.28548 24.5253C9.27679 24.5302 9.26929 24.5369 9.26351 24.5451C9.25773 24.5532 9.25383 24.5625 9.25207 24.5723L9.20908 24.8151C9.20108 24.86 9.14044 24.9286 9.02786 25.0049C8.94971 25.0686 8.8646 25.1233 8.77415 25.1678C8.49539 25.3041 8.20138 25.4067 7.89833 25.4735C7.24186 25.6245 6.5807 25.758 5.90972 25.8849C5.57443 25.9481 5.23681 26.009 4.89686 26.0674L4.38236 26.1527L4.11796 26.1932L3.98033 26.2127C3.92863 26.2195 3.85133 26.2264 3.78779 26.2319C3.56017 26.2515 3.33286 26.1908 3.14525 26.0604C2.95764 25.9301 2.82155 25.7382 2.76056 25.518C2.69957 25.2978 2.71752 25.0632 2.8113 24.8549C2.90509 24.6466 3.06879 24.4776 3.27406 24.3773L3.33968 24.3457C3.86841 24.0996 4.43003 23.9316 5.00701 23.8468C5.27426 23.8144 5.54687 23.7726 5.80894 23.763C5.94094 23.7558 6.07429 23.745 6.20539 23.7416L6.59672 23.7385C7.63515 23.7487 8.66953 23.8696 9.68234 24.0991C10.1941 24.2095 10.7 24.3455 11.1982 24.5065L11.576 24.6326L11.9555 24.777C12.0811 24.8218 12.2103 24.8827 12.3378 24.9382L12.5294 25.023L12.7 25.1053C12.7099 25.0979 12.7191 25.091 12.7303 25.0839Z" fill="black"/>
<path id="Vector_2" d="M57.5975 29.4625C58.4775 30.5176 59.1872 31.7038 59.7007 32.9781C59.7636 33.1377 59.8315 33.295 59.8894 33.4563L60.0439 33.9478C60.093 34.1123 60.1506 34.2739 60.1918 34.4406L60.305 34.9437C60.3395 35.112 60.3864 35.2773 60.4097 35.4479L60.4797 35.9592L60.514 36.2147C60.5258 36.299 60.5372 36.3842 60.5431 36.4779C60.557 36.6617 60.564 36.8516 60.5592 37.0493C60.5545 37.4047 60.4967 37.7573 60.3878 38.0956C60.3202 38.2927 60.2296 38.4811 60.1181 38.6572C59.9939 38.8448 59.8433 39.0137 59.6711 39.1585L59.6589 39.1687C59.5163 39.2884 59.3408 39.3622 59.1555 39.3804C58.9703 39.3985 58.7838 39.3602 58.6207 39.2705C58.4576 39.1808 58.3254 39.0439 58.2415 38.8777C58.1576 38.7115 58.1259 38.5238 58.1507 38.3392C58.2661 37.4844 58.43 36.6368 58.6416 35.8006C58.9859 34.4024 59.5193 33.0578 60.2271 31.804C60.9524 30.522 61.9003 29.3795 63.0263 28.43C64.1791 27.4775 65.5106 26.7649 66.9426 26.334C68.4136 25.8966 69.9689 25.8235 71.4745 26.121C71.6956 26.1666 71.8971 26.2798 72.0511 26.445C72.2051 26.6101 72.304 26.819 72.3342 27.0428C72.3643 27.2665 72.3242 27.4941 72.2194 27.6941C72.1145 27.8941 71.9502 28.0566 71.749 28.1591L71.7291 28.1691C71.2391 28.4112 70.714 28.5747 70.1732 28.6535C69.6759 28.7233 69.173 28.7433 68.6718 28.7134C68.1914 28.6896 67.7338 28.6326 67.2939 28.5695C66.8552 28.505 66.4365 28.4423 65.9821 28.3593C65.3285 28.2493 64.6889 28.0684 64.0745 27.8197C63.7383 27.6786 63.4167 27.5046 63.1145 27.3005C62.806 27.0899 62.5212 26.8465 62.2651 26.5746C61.7896 26.0536 61.4011 25.4594 61.1145 24.8148C60.849 24.2194 60.6406 23.6001 60.4921 22.9653C59.8927 20.5054 59.9434 17.9319 60.639 15.4974L60.64 15.4939C60.7009 15.2817 60.8225 15.092 60.9899 14.948C61.1573 14.8041 61.3631 14.7123 61.582 14.6839C61.8009 14.6554 62.0233 14.6917 62.2219 14.7881C62.4205 14.8845 62.5865 15.0369 62.6995 15.2265C63.054 15.8423 63.2459 16.5382 63.2571 17.2486C63.2685 17.8714 63.1915 18.4927 63.0281 19.0938C62.9559 19.3838 62.8623 19.652 62.7731 19.923C62.6735 20.1903 62.5764 20.459 62.4581 20.7183C62.2325 21.2408 61.9679 21.7456 61.6665 22.2285C60.4688 24.1786 58.7326 25.7406 56.6673 26.7263C55.3534 27.3422 53.9266 27.6806 52.476 27.7203C51.9068 27.74 51.3385 27.662 50.7958 27.4896C50.6857 27.4527 50.5828 27.4147 50.4868 27.3746C50.391 27.3306 50.3021 27.2856 50.2201 27.2398C50.0699 27.1595 49.9302 27.061 49.8041 26.9465C49.4724 26.6476 49.5354 26.407 49.8649 26.2497C50.1956 26.0958 50.7932 26.0144 51.6051 25.933L51.9941 25.891L52.3877 25.8384C52.6511 25.7982 52.918 25.7647 53.1838 25.7149C53.7144 25.6211 54.239 25.4957 54.7547 25.3394C55.7498 25.0298 56.6841 24.5509 57.5164 23.9236C59.1983 22.6594 60.42 20.8791 60.9945 18.855C61.1317 18.3938 61.2013 17.9152 61.2012 17.434C61.2073 17.0369 61.1007 16.6462 60.8937 16.3073L62.6628 16.0746C62.4827 16.7907 62.37 17.5222 62.3265 18.2593C62.2422 19.6204 62.4278 21.0198 62.6621 22.3058C62.8245 23.2222 63.1088 24.0897 63.5709 24.7566C63.7885 25.0773 64.0643 25.3544 64.3839 25.5736C64.7325 25.7952 65.1122 25.9636 65.5105 26.0731C65.9647 26.1986 66.4261 26.2967 66.892 26.3667C67.3885 26.447 67.8827 26.5275 68.3478 26.575C69.2832 26.6757 70.1449 26.6375 70.8037 26.3147L71.0313 28.1458L70.7047 28.0838L70.5416 28.0516L70.376 28.0321L70.0447 27.9919L69.71 27.9751C68.9492 27.9462 68.1885 28.0353 67.455 28.2393C66.7082 28.4489 65.9922 28.7557 65.3253 29.1518C64.6542 29.5486 64.0347 30.0269 63.481 30.5758C62.922 31.133 62.4254 31.7495 62.0001 32.4145C60.8325 34.2185 60.1438 36.3548 59.8579 38.538L58.566 37.842C58.6431 37.7771 58.7013 37.6927 58.7348 37.5977C58.7885 37.4497 58.8192 37.2943 58.8257 37.137C58.8359 36.9415 58.8307 36.7455 58.8102 36.5509L58.7173 35.8996C58.6855 35.6821 58.6415 35.4665 58.5855 35.2539L58.5116 34.9319C58.4891 34.8239 58.4468 34.7212 58.4156 34.6154C58.3456 34.4062 58.286 34.193 58.2086 33.986L57.9549 33.3718C57.5874 32.5602 57.1304 31.7922 56.5925 31.0821C56.0418 30.3766 55.4185 29.731 54.7329 29.1557C53.8671 28.4478 52.9247 27.8391 51.9234 27.341C51.8632 27.3095 51.804 27.2755 51.7434 27.2457L51.5587 27.1645L51.1917 26.9983C50.9507 26.8759 50.6997 26.7947 50.4537 26.6957L50.085 26.5485C49.9643 26.5051 49.8447 26.466 49.7244 26.4355C49.4866 26.3615 49.2322 26.3604 48.9939 26.4324C48.9356 26.4547 48.8825 26.4821 48.8406 26.501C48.8398 26.5014 48.839 26.502 48.8383 26.5027C48.8377 26.5034 48.8372 26.5042 48.8368 26.5051L48.832 26.5186C48.8162 26.5676 48.8196 26.6209 48.8414 26.6675C48.8612 26.7104 48.8895 26.7487 48.9246 26.7802C48.988 26.8369 49.0673 26.8726 49.1518 26.8825C49.1917 26.8879 49.2323 26.8847 49.2709 26.8733C49.3055 26.8667 49.3395 26.8575 49.3727 26.8459C49.4286 26.8247 49.4694 26.8114 49.4926 26.8263C49.515 26.8402 49.5216 26.8843 49.4886 26.9593C49.4644 27.0052 49.4323 27.0464 49.3936 27.081C49.3472 27.1365 49.2867 27.1785 49.2186 27.2028C49.0551 27.269 48.8734 27.2749 48.706 27.2194C48.5822 27.1784 48.4711 27.1061 48.3835 27.0094C48.3207 26.9393 48.271 26.8583 48.2371 26.7705C48.1982 26.6663 48.1806 26.5554 48.1853 26.4443C48.1885 26.36 48.2159 26.2784 48.2643 26.2093L48.3856 26.0354C48.4492 25.9439 48.5238 25.8606 48.6076 25.7872C48.6543 25.7463 48.704 25.7089 48.7562 25.6752C48.8118 25.644 48.8694 25.6166 48.9288 25.5932C49.2093 25.4867 49.5078 25.435 49.8078 25.4411C50.0423 25.4422 50.2762 25.4627 50.5073 25.5026L51.1425 25.6037L51.3023 25.6311L51.4589 25.6707L51.7732 25.7517C52.6205 25.972 53.4387 26.2918 54.2108 26.7044C55.4862 27.4184 56.6223 28.3567 57.5643 29.4743C57.575 29.4704 57.585 29.4669 57.5975 29.4625Z" fill="black"/>
<path id="Vector_3" d="M37.8187 52.133L38.4878 52.5076L39.1317 52.9252L39.2919 53.0305L39.4456 53.1457L39.7525 53.3765C39.8542 53.4542 39.9578 53.5293 40.0576 53.6093L40.3483 53.8611C40.7372 54.1951 41.107 54.5507 41.4561 54.9262L41.9579 55.5085C42.1222 55.7046 42.267 55.9157 42.4216 56.1188C43.0146 56.946 43.5174 57.8342 43.9214 58.7683C44.3122 59.7013 44.6084 60.6712 44.8055 61.6633C44.8503 61.9271 44.9051 62.1892 44.9391 62.4547L45.0275 63.2528L45.0665 64.0553C45.0803 64.3227 45.0627 64.5912 45.0619 64.8588C45.027 65.9315 44.8743 66.997 44.6063 68.0362L44.3968 68.7674C44.3365 68.9775 44.2024 69.1587 44.0191 69.2778C43.8358 69.3968 43.6157 69.4456 43.3992 69.4152C43.1828 69.3849 42.9846 69.2773 42.8412 69.1124C42.6977 68.9475 42.6187 68.7363 42.6186 68.5178L42.6189 68.4755C42.621 66.1158 42.6159 63.6825 43.0694 61.2384C43.2923 60.0013 43.657 58.794 44.1562 57.6404C44.6661 56.4548 45.3653 55.3599 46.2263 54.3985C47.1095 53.4463 48.147 52.65 49.2952 52.0432C50.4096 51.4614 51.5819 50.9981 52.7929 50.6608C53.3882 50.4908 53.9851 50.3455 54.5841 50.217C55.1846 50.09 55.7997 49.9782 56.435 49.9088C57.0844 49.832 57.7393 49.8126 58.3921 49.8508C59.0769 49.8912 59.7537 50.0192 60.406 50.2317C60.6209 50.3018 60.809 50.4365 60.9445 50.6174C61.08 50.7983 61.1564 51.0167 61.1632 51.2427C61.17 51.4686 61.1069 51.6912 60.9825 51.88C60.8581 52.0687 60.6785 52.2145 60.4682 52.2974L60.4446 52.3065C59.4176 52.6888 58.3317 52.8885 57.2359 52.8969C56.0731 52.9039 54.9119 52.8116 53.7649 52.6209C52.6276 52.463 51.5017 52.2324 50.394 51.9304C49.8215 51.7718 49.2593 51.5784 48.7104 51.3513C48.1451 51.1219 47.5996 50.8464 47.0795 50.5275C46.5459 50.2019 46.0452 49.8253 45.5843 49.4031C45.1258 48.9785 44.7107 48.5093 44.3452 48.0024C43.6503 47.0227 43.0861 45.9565 42.6668 44.8309C41.8428 42.6684 41.3337 40.3987 41.1553 38.0914C41.1344 37.8036 41.1165 37.5156 41.1066 37.2272C41.1001 37.0831 41.0955 36.9389 41.0937 36.7946C41.0914 36.6491 41.0862 36.5144 41.0892 36.3375C41.0891 35.9488 41.1465 35.5622 41.2597 35.1904C41.3372 34.9447 41.453 34.7127 41.6028 34.5031C41.7818 34.2552 42.0131 34.0498 42.2803 33.9013L42.2917 33.8951C42.4224 33.8238 42.566 33.779 42.7141 33.7631C42.8622 33.7473 43.012 33.7608 43.1549 33.8028C43.2979 33.8449 43.4311 33.9146 43.547 34.0082C43.663 34.1017 43.7593 34.2172 43.8307 34.348C43.9072 34.4897 43.9533 34.6458 43.966 34.8064C44.3006 39.4034 43.114 43.9829 40.5892 47.8391C40.0013 48.735 39.3045 49.5546 38.5147 50.2788C38.1102 50.6444 37.677 50.9767 37.2192 51.2726C36.7594 51.57 36.273 51.824 35.7663 52.0314C34.9626 52.3726 34.0922 52.5279 33.2201 52.4857C32.6611 52.465 32.1152 52.3102 31.6285 52.0342C31.105 51.7009 31.2087 51.4707 31.6646 51.3635C31.8964 51.2965 32.2203 51.2551 32.6272 51.1775C33.1188 51.0858 33.604 50.9623 34.0796 50.8077C34.8097 50.5609 35.5 50.209 36.1286 49.7632C36.7827 49.2948 37.3802 48.752 37.9091 48.1458C38.6727 47.2595 39.3283 46.2856 39.862 45.2446C40.4151 44.1994 40.8644 43.1026 41.2033 41.9697C41.8862 39.7036 42.1306 37.3281 41.9235 34.9705L43.2723 35.6947C43.2727 35.6955 43.2746 35.6982 43.2727 35.695L43.2675 35.6878C43.2684 35.6893 43.2694 35.6907 43.2705 35.692C43.2733 35.6956 43.276 35.6981 43.2745 35.6962V35.699C43.2668 35.71 43.2603 35.7218 43.2552 35.7343C43.2201 35.8172 43.1974 35.9049 43.1878 35.9944C43.17 36.1349 43.1629 36.2765 43.1667 36.418L43.1866 36.9542C43.2237 37.6832 43.3009 38.4094 43.4066 39.1304C43.6236 40.5703 43.9867 41.9843 44.4901 43.3506C44.8377 44.3211 45.2912 45.2502 45.8425 46.1212C46.1057 46.5307 46.4007 46.9188 46.7249 47.2819C46.8809 47.4567 47.0457 47.6236 47.2184 47.7818C47.3057 47.859 47.387 47.9419 47.4764 48.0162L47.7448 48.2385C48.549 48.8548 49.4503 49.3328 50.4117 49.6528C51.4287 49.9966 52.4727 50.2546 53.5328 50.4239C54.595 50.6214 55.6697 50.7447 56.7491 50.7929C57.7516 50.8415 58.7541 50.6961 59.7016 50.3648L59.7357 52.1998C58.7977 51.8809 57.7382 51.8286 56.6501 51.9382C56.1058 51.9896 55.5532 52.0797 54.9949 52.1872C54.4358 52.2963 53.8804 52.4192 53.3345 52.5605C52.1649 52.8486 51.0364 53.2834 49.9759 53.8545C48.9451 54.4075 48.0307 55.1543 47.2828 56.0538C46.5418 56.9775 45.9564 58.0159 45.5496 59.128C45.1304 60.2668 44.8377 61.4482 44.6766 62.6509C44.4062 64.5453 44.3774 66.5021 44.3523 68.4851L42.7513 68.2222C43.8178 65.0785 43.4458 61.4549 41.8497 58.5077C41.7453 58.3262 41.6527 58.137 41.5392 57.961L41.1978 57.4333C41.0818 57.2589 40.9488 57.0971 40.8253 56.9279C40.7614 56.8452 40.7023 56.7581 40.6345 56.6786L40.4284 56.4422C40.1551 56.1252 39.866 55.8222 39.5622 55.5343C39.2435 55.2622 38.9345 54.9772 38.5892 54.7361C38.4236 54.6063 38.2515 54.4851 38.0736 54.3728C37.8956 54.2606 37.7218 54.1411 37.5404 54.0339L36.9866 53.7278C36.8034 53.6229 36.6064 53.5446 36.417 53.4512C35.6492 53.094 34.8462 52.8176 34.0212 52.6264C32.0553 52.1648 30.0139 52.1251 28.0315 52.51L28.0107 51.7232C29.1978 52.0842 30.4439 52.2106 31.6793 52.0953C32.3805 52.0293 32.7365 52.0104 32.7335 52.1613C32.7289 52.2279 32.6362 52.3434 32.4365 52.4749C32.3154 52.5547 32.1886 52.6255 32.0572 52.6868C31.9805 52.7242 31.8967 52.762 31.8052 52.7972C31.7595 52.8148 31.7125 52.8351 31.6629 52.851C31.6129 52.8655 31.5612 52.8798 31.5079 52.8939C30.2688 53.2194 28.9744 53.2754 27.7119 53.0582C27.503 53.0215 27.3123 52.916 27.1702 52.7585C27.0282 52.6009 26.943 52.4003 26.9281 52.1887C26.9133 51.9771 26.9696 51.7666 27.0883 51.5907C27.2069 51.4148 27.381 51.2837 27.5828 51.2182L27.6629 51.1926C28.9171 50.7927 30.2258 50.5899 31.5422 50.5914C32.6232 50.5882 33.7 50.7259 34.7454 51.001C35.7981 51.2734 36.8179 51.6596 37.7868 52.153C37.7971 52.1459 37.8068 52.1395 37.8187 52.133Z" fill="black"/>
</g>
</svg>
