<svg width="90" height="89" viewBox="0 0 90 89" fill="none" xmlns="http://www.w3.org/2000/svg">
<path d="M2.0453 70.1306C2.19059 70.1489 2.31771 70.1671 2.463 70.1671C3.60716 70.1671 4.38811 69.3642 4.60605 67.9772C4.64237 67.7583 4.67868 67.5393 4.73317 67.3203C4.78765 67.0648 4.84214 66.8093 4.87847 66.5538C5.02376 65.5501 5.18721 64.5464 5.3325 63.561C5.82286 60.4222 6.34953 57.1556 6.44034 53.8891C6.4585 53.4146 6.45849 52.9401 6.47665 52.4657C6.5493 50.0203 6.60379 47.4837 6.82172 45.0018C7.47553 37.3008 8.60153 29.6363 10.1997 22.2454L10.3269 21.6432C10.8717 19.1066 11.4347 16.497 12.252 13.9969C12.6697 12.7378 13.0692 11.5333 13.9955 10.6391C14.5221 10.1282 14.9762 9.89092 15.4121 9.89092C15.8661 9.89092 16.3383 10.1829 16.8468 10.7851C17.6277 11.7158 17.9002 12.902 18.0636 13.9422C18.8264 18.7416 18.8627 23.6871 18.2089 29.0705C18.0273 30.6217 17.8093 32.3736 17.4643 34.0707C17.2463 35.1474 17.5733 36.0234 18.3905 36.5343C18.7901 36.7898 19.2259 36.9176 19.6618 36.9176C20.0432 36.9176 20.4427 36.8081 20.8241 36.6256C21.6777 36.1876 21.9138 35.3664 22.0591 34.5452C23.058 28.5231 23.403 23.5411 23.1488 18.8876C23.1306 18.4132 23.0398 17.9387 22.9672 17.4825C22.8219 16.6065 22.6766 15.7853 22.9127 15.0554C23.1306 14.3802 23.2759 13.6684 23.4212 13.0115C23.5665 12.318 23.6936 11.6793 23.9116 11.0406C24.2385 10.0917 24.6199 9.37995 25.1647 8.81423C25.5098 8.44925 25.655 8.41276 25.7095 8.41276C25.7459 8.41276 25.9093 8.44926 26.1817 9.01497C27.1624 10.9494 27.3804 13.048 27.453 14.8546L27.4712 15.4203C27.7073 20.7855 27.9434 26.3332 27.8344 31.7896C27.8344 32.0816 27.8344 32.3736 27.8344 32.6473C27.8344 32.8481 27.8344 33.0488 27.8344 33.2495C27.8344 34.0342 28.2158 34.6182 28.9786 35.0014C29.3418 35.1839 29.7232 35.2934 30.1046 35.2934C31.1943 35.2934 32.066 34.527 32.2476 33.3955C32.3203 32.9758 32.3021 32.5743 32.3021 32.1729C32.3021 32.0816 32.3021 31.9721 32.3021 31.8809C32.2658 25.8405 32.2295 19.5993 32.175 13.2852C32.1568 11.8436 32.1568 10.3654 32.8833 9.03322C33.3918 8.12077 34.1001 7.66455 35.0445 7.6463H35.0626C35.8617 7.6463 36.2794 8.19377 36.6972 9.05147C36.9877 9.67193 37.1875 10.1829 37.2965 10.6756C37.7324 12.6465 37.9684 14.7451 37.9684 16.9168C37.9684 20.3111 37.6052 23.7419 37.242 27.0632L37.1693 27.7566C37.133 28.0303 37.1149 28.2858 37.0785 28.5596C36.8969 30.202 36.7153 31.8991 36.6063 33.5598C36.5337 34.7824 37.3873 35.7861 38.6404 35.9321C38.7312 35.9504 38.8039 35.9504 38.8947 35.9504C39.8754 35.9504 40.7108 35.2752 41.0014 34.2167C41.1104 33.8153 41.2012 33.432 41.2193 33.0853C41.2557 32.6108 41.3101 32.1364 41.3646 31.6619C41.5099 30.2932 41.637 28.8515 41.7097 27.4464C41.8368 24.5813 42.6904 22.3549 44.3794 20.4205C46.8857 17.5737 49.4828 16.2415 52.552 16.2415C52.9516 16.2415 53.3693 16.2598 53.7688 16.3145C57.1105 16.6795 58.7814 17.9204 59.5623 20.5848L59.5805 20.6578C59.7984 21.406 59.9074 21.844 59.4715 22.2637C59.2899 22.4462 59.1083 22.5192 58.8722 22.5192C58.5997 22.5192 58.2729 22.4097 57.9823 22.3184L57.7462 22.2454C56.7473 21.917 55.7121 21.5702 54.6769 21.2782C53.8778 21.0593 53.0969 20.9498 52.3159 20.9498C50.5361 20.9498 48.8653 21.5337 47.485 22.6469C46.25 23.6506 45.3238 25.0193 44.8698 26.5157C43.6166 30.6217 43.3987 34.8554 44.216 39.0892C44.3612 39.8009 44.5974 40.4944 44.9061 41.0783C45.7415 42.6112 46.7949 44.3084 48.6655 45.2391C45.4509 46.3705 42.4361 47.9947 39.5122 49.5823C39.0763 49.8196 38.6586 50.0568 38.2227 50.2758C37.7868 50.513 37.2783 50.7868 36.788 51.097C36.007 51.5897 35.6801 52.3562 35.898 53.2139C36.116 54.1081 36.788 54.6738 37.7687 54.8015C37.8776 54.8198 38.0048 54.8198 38.1137 54.8198C38.6404 54.8198 39.1671 54.6738 39.7301 54.3635C40.4566 53.9621 41.292 53.5059 42.1274 53.0679L42.4906 52.8671C46.2137 50.878 50.0821 48.8159 54.3863 48.0859C55.4034 47.9217 56.3841 47.5749 57.3466 47.2647C57.6009 47.1735 57.837 47.1005 58.0912 47.0092C61.7961 45.8048 64.4295 41.7535 63.9573 37.9943C63.8302 36.9723 63.5941 36.0051 63.358 35.1109C63.3217 35.0014 63.3035 34.8919 63.2672 34.7825C62.9403 33.5415 62.6134 32.3736 62.7587 31.1327C62.904 29.837 63.5396 29.107 64.5567 29.107C64.9017 29.107 65.3013 29.1983 65.719 29.3625C67.2082 29.9465 68.1163 31.0779 68.5703 32.9028C69.2605 35.6584 70.0051 38.9432 70.3138 42.3193C70.5318 44.6916 70.7134 47.4837 70.441 50.2575C70.1322 53.3599 69.0244 56.4804 67.0448 59.7835C65.4284 62.4843 63.5396 65.0574 61.7053 67.5393C60.9971 68.5065 60.2706 69.5102 59.5623 70.4956C57.0015 74.0724 54.4045 77.9777 53.1877 82.6129C52.8608 83.8903 52.4794 85.332 52.552 86.8466C52.6065 88.0876 53.333 88.854 54.5498 88.9818C54.6224 88.9818 54.6951 89 54.7677 89C55.7484 89 56.5475 88.3978 56.8744 87.4488C56.9471 87.2299 56.9652 87.0109 56.9834 86.7919C57.0016 86.6824 57.0015 86.5912 57.0197 86.4999C57.5827 82.9414 58.8903 79.6018 60.9062 76.5542C62.1957 74.6016 63.5941 72.6125 65.1742 70.4409L65.5374 69.9299C67.5896 67.1013 69.7327 64.1815 71.5125 61.0791C73.7282 57.2469 74.8905 53.4146 75.0721 49.3816C75.3082 44.1442 74.6725 38.7425 73.038 32.3553C72.4205 29.9282 71.2945 28.0668 69.6963 26.8077C68.1163 25.5667 66.0459 24.8915 63.5578 24.8368H63.4307L63.3399 24.9098C63.3217 24.928 63.3035 24.928 63.2854 24.9463C64.2298 23.6689 64.5385 22.1724 64.2116 20.5118C63.5941 17.5007 62.1231 15.2926 59.7984 13.9787C57.6372 12.756 55.0946 12.099 52.4794 12.099C49.1195 12.099 45.9413 13.194 43.544 15.1831C43.3987 15.2926 43.2716 15.4203 43.1444 15.5481C42.9447 15.7488 42.7449 15.9313 42.5269 16.0773C42.4906 15.7123 42.4543 15.3473 42.418 15.0006C42.309 13.8327 42.2 12.7378 42.0548 11.6246C41.6552 8.28502 40.5474 6.67911 39.7483 5.76666C38.4407 4.27025 36.8788 3.5403 34.9718 3.5403C34.9355 3.5403 34.8992 3.5403 34.8629 3.5403C32.8833 3.57679 31.1216 4.37975 29.5234 6.0039C28.1795 4.72648 26.999 4.12426 25.8003 4.12426C24.1113 4.12426 22.4042 5.29219 20.134 8.02953C20.0977 7.99303 20.0432 7.93829 19.9705 7.86529C19.9161 7.79229 19.8434 7.73755 19.7708 7.66455C18.3905 6.44187 16.7923 5.78491 15.1578 5.78491C12.9603 5.78491 10.908 6.98934 9.56408 9.06972C8.89211 10.1099 8.36543 11.2596 7.92956 12.6283C6.53114 17.1357 5.62307 21.844 4.75132 26.3879C4.66052 26.8989 4.55155 27.3916 4.46075 27.9026C3.31658 33.7605 2.5538 39.9651 2.19058 46.334C2.11793 47.5384 2.06345 48.7611 2.00896 49.9473C1.79103 54.5278 1.5731 59.2543 0.683197 63.853C0.628713 64.145 0.574225 64.4369 0.519741 64.7289C0.338127 65.6231 0.1565 66.5356 0.0293707 67.448C-0.170404 68.7802 0.665036 69.9299 2.0453 70.1306ZM57.6735 32.4831C57.7825 33.6145 58.0731 34.7277 58.3455 35.7861C58.5271 36.4614 58.7087 37.1548 58.8358 37.8483C59.1446 39.4359 58.5998 40.8228 57.2921 41.8448C56.4749 42.4835 55.5668 43.0857 54.6042 43.0857C54.241 43.0857 53.8778 42.9945 53.5146 42.8302C51.1536 41.7353 49.7007 40.0199 49.0469 37.5928C48.4839 35.4759 48.7745 33.3408 49.0469 31.2787C49.0832 31.0232 49.1195 30.7677 49.1558 30.5122C49.7188 26.2237 51.2262 25.6397 52.6247 25.6397C53.3875 25.6397 54.3318 25.8405 55.476 26.2602C56.4749 26.6252 57.6372 27.0084 58.8722 27.0084C58.963 27.0084 59.0538 27.0084 59.1446 27.0084C57.9278 28.3406 57.4556 30.1107 57.6735 32.4831Z" fill="#9F40FE"/>
<path d="M70.7315 18.9241C70.4046 19.0701 70.0777 19.1979 69.7871 19.4169C69.1697 19.8548 68.8246 20.4753 68.8609 21.1505C68.8791 21.844 69.2786 22.4644 69.9506 22.8477C70.3138 23.0666 70.6952 23.1579 71.0948 23.1579C71.6578 23.1579 72.2026 22.9571 72.693 22.7382C77.5239 20.6578 82.5183 18.8694 87.222 17.2452C87.8032 17.0445 88.3117 16.8255 88.7658 16.5883C89.7283 16.0955 90.1279 15.3838 89.9644 14.4531C89.7828 13.4495 88.8202 12.7377 87.6034 12.683H87.5489L87.4945 12.7013C87.44 12.7195 87.3855 12.7195 87.3129 12.7377C87.1131 12.7742 86.8406 12.829 86.5682 12.9385C85.9507 13.1575 85.3333 13.3765 84.7158 13.5954C80.1209 15.2196 75.3627 16.9168 70.8042 18.8876L70.7315 18.9241Z" fill="#9F40FE"/>
<path d="M64.7928 14.5626C64.8291 14.5626 64.8654 14.5626 64.9018 14.5626C65.7372 14.5626 66.391 14.1064 66.9358 13.1575C67.971 11.3691 69.1697 9.65368 70.332 7.99303C70.6952 7.46381 71.0766 6.93459 71.4398 6.38712C71.6396 6.09514 71.8576 5.78491 72.0573 5.49293C72.5658 4.76297 73.0925 3.99652 73.601 3.23006C74.1822 2.35411 74.1277 1.45991 73.4194 0.784704C72.8746 0.255485 72.3297 0 71.7304 0C71.458 0 71.1674 0.0547468 70.8768 0.182489C70.2775 0.419725 69.8053 0.839452 69.3694 1.47816C67.4807 4.252 65.3195 7.40906 63.2309 10.4749C63.1219 10.6574 63.0311 10.8216 62.9403 11.0041C62.8677 11.1501 62.795 11.2961 62.7042 11.4238C62.3228 12.0078 62.2865 12.7195 62.6134 13.34C63.0675 14.1064 63.8847 14.5626 64.7928 14.5626Z" fill="#9F40FE"/>
</svg>
