<svg width="24" height="25" viewBox="0 0 24 25" fill="none" xmlns="http://www.w3.org/2000/svg">
<g id="Misc_01">
<g id="Group">
<g id="Group_2">
<path id="Vector" d="M10.7117 7.72261L11.1999 8.77418C12.4956 11.5651 14.438 12.8927 16.7595 13.501L16.6848 14.0809L16.8717 14.4237C15.3649 15.2449 14.0508 16.2449 13.3778 17.2011L13.3775 17.2015C13.2779 17.3428 13.1617 17.5893 13.0373 17.9399C12.916 18.2819 12.7979 18.6902 12.6838 19.1321L11.7052 19.0814C11.5812 18.257 11.4156 17.394 11.2007 16.6665L11.2006 16.6661C10.9544 15.8298 10.6375 15.1933 10.3263 14.8451L10.7117 7.72261ZM10.7117 7.72261L10.282 8.7994M10.7117 7.72261L10.282 8.7994M10.282 8.7994C9.69391 10.273 8.82815 11.5836 7.69355 12.6307L6.99592 13.2745M10.282 8.7994L6.99592 13.2745M6.99592 13.2745L7.92145 13.4856M6.99592 13.2745L7.92145 13.4856M7.92145 13.4856C8.84028 13.6952 9.66909 14.1113 10.3263 14.845L7.92145 13.4856ZM10.0045 4.97149L10.0101 4.90886L10.0001 4.84679C9.93779 4.46173 9.89107 4.08234 9.86093 3.70396L9.86092 3.70378C9.83264 3.35022 9.83327 3.02073 9.83394 2.67048C9.83437 2.44525 9.83481 2.21144 9.8276 1.95711L9.82759 1.95673C9.82574 1.89341 9.82234 1.79922 9.81861 1.69591C9.81511 1.59893 9.81132 1.4939 9.80825 1.39881C9.80496 1.2966 9.80234 1.20197 9.80122 1.12817C9.80056 1.08435 9.80069 1.05733 9.80076 1.04306C9.80081 1.0326 9.80082 1.02898 9.80047 1.0306C9.83614 0.769078 9.94254 0.660594 10.0216 0.605236C10.1199 0.536405 10.2313 0.514508 10.2864 0.507868L10.2934 0.507017L10.3004 0.505966C10.3004 0.505979 10.3004 0.505977 10.3005 0.505962C10.3027 0.505666 10.3428 0.500335 10.4022 0.503062C10.4651 0.505952 10.5378 0.517344 10.6069 0.544449C10.673 0.570384 10.7356 0.610381 10.7897 0.675527C10.8436 0.740523 10.9065 0.851574 10.9427 1.04527L10.9428 1.04556C11.1786 2.30405 11.2539 3.56986 11.1706 4.80831L11.1664 4.87089L11.1778 4.93258C11.3863 6.0622 11.7425 7.18705 12.2142 8.20782L12.2142 8.2079C13.1736 10.2828 14.587 11.4459 16.2605 12.0698C17.9058 12.6832 19.7791 12.766 21.6489 12.7481L21.6519 12.748C21.9356 12.7436 22.2068 12.9813 22.2243 13.3267C22.242 13.6789 21.9928 13.9469 21.7092 13.9735L21.7059 13.9738C20.5795 14.0872 19.0718 14.6029 17.6959 15.3069C16.3269 16.0073 14.9964 16.9409 14.2871 17.9465L14.2869 17.9467C14.0927 18.2223 13.9694 18.6335 13.8734 19.0141C13.8113 19.26 13.75 19.5411 13.6889 19.8215C13.6525 19.9887 13.6161 20.1556 13.5796 20.3147C13.4372 20.9324 13.2837 21.5361 13.1209 22.0449C12.9529 22.5697 12.7919 22.9377 12.6534 23.125L12.6534 23.125L12.6487 23.1315C12.6488 23.1313 12.6482 23.1321 12.6468 23.1338C12.6382 23.1444 12.6 23.1917 12.5292 23.2748C12.4551 23.3619 12.3591 23.4722 12.2588 23.5835C12.1578 23.6956 12.0559 23.8047 11.9693 23.8909C11.9022 23.9577 11.8625 23.9921 11.8467 24.0057C11.8396 24.0119 11.8373 24.0139 11.8395 24.0127C11.6845 24.1001 11.5698 24.1075 11.4886 24.097C11.3976 24.0854 11.3134 24.0461 11.2402 23.9973C11.1202 23.9173 10.9401 23.7302 10.8644 23.3652L10.8643 23.3651C10.8238 23.1697 10.8166 22.8296 10.8239 22.464C10.8266 22.3287 10.8309 22.1998 10.8349 22.0821C10.8361 22.0472 10.8372 22.0133 10.8383 21.9806C10.8424 21.8528 10.8466 21.7119 10.84 21.6222L10.84 21.622C10.7786 20.7881 10.6178 19.1372 10.2854 17.7064L10.2854 17.7062C10.1979 17.33 10.1029 16.9476 9.98699 16.6113C9.87414 16.284 9.72458 15.9481 9.50277 15.7003L9.50274 15.7003C8.82634 14.9448 7.95507 14.6381 7.08514 14.5434C6.22813 14.4501 5.33401 14.5587 4.57049 14.6631C4.47962 14.6746 4.3893 14.6872 4.30255 14.6993L4.30248 14.6993C4.21393 14.7117 4.12906 14.7235 4.04479 14.7342L4.00206 14.7397L3.96088 14.7523C3.36499 14.9355 2.73104 15.0722 2.05956 15.1535L2.05892 15.1536C1.87769 15.1757 1.7647 15.1465 1.69364 15.113C1.62003 15.0783 1.56076 15.0245 1.51124 14.9558C1.40632 14.8102 1.375 14.6393 1.37328 14.6297C1.36703 14.5811 1.35546 14.4442 1.40001 14.3053C1.43749 14.1884 1.51768 14.0517 1.75115 13.9601C1.75233 13.9598 1.75538 13.959 1.76055 13.9576C1.77496 13.9537 1.80585 13.9454 1.85864 13.9322C1.93187 13.9138 2.0256 13.8912 2.12611 13.8674C2.26008 13.8356 2.40118 13.8028 2.51801 13.7755C2.57723 13.7617 2.63021 13.7494 2.67288 13.7394C3.00148 13.6628 3.33722 13.6024 3.6835 13.5449L3.72024 13.5388L3.75567 13.5274C7.60917 12.2797 9.66139 8.78195 10.0045 4.97149Z" fill="black" stroke="black"/>
</g>
</g>
</g>
</svg>
