<svg width="10" height="129" viewBox="0 0 10 129" fill="none" xmlns="http://www.w3.org/2000/svg">
<g clip-path="url(#clip0_221_29)">
<path d="M8.5782 104.998C8.72038 104.854 8.67299 104.711 8.53081 104.52C8.38863 104.328 8.34123 104.185 8.67299 104.28C8.67299 104.28 8.72038 104.137 8.72038 104.089C8.34123 103.659 8.5782 103.229 8.72038 102.798C8.81517 102.511 9.24171 102.225 8.67299 101.938C8.67299 101.938 8.67299 101.842 8.67299 101.794C8.95735 101.651 8.86256 101.364 8.90995 101.125C9.00474 100.79 8.86256 100.838 8.67299 100.981C8.67299 100.886 8.5782 100.742 8.62559 100.647C8.76777 100.312 8.90995 100.025 9.09953 99.7382C9.2891 99.4035 9.38389 99.1166 9.09953 98.8298C9.00474 98.7341 9.00474 98.6863 9.14692 98.5429C9.47867 98.3038 9.09953 97.8257 9.33649 97.5388C9.33649 97.491 9.19431 97.3476 9.14692 97.2519C9.14692 97.2041 9.14692 97.1563 9.14692 97.1085C9.76303 97.1085 9.33649 96.726 9.2891 96.5347C9.2891 96.3913 9.24171 96.3435 9.38389 96.2957C9.62085 96.2 9.57346 96.0566 9.52607 95.8175C9.43128 95.5785 9.38389 95.3394 9.47867 95.0525C9.62085 94.3831 9.57346 94.3831 9.33649 93.8094C9.33649 93.8094 9.33649 93.8094 9.33649 93.8572C9.2891 93.8094 9.24171 93.8094 9.19431 93.7616C9.19431 93.7616 9.24171 93.7138 9.24171 93.6659C9.2891 93.7138 9.2891 93.7138 9.33649 93.8094C9.38389 93.8094 9.52607 93.7616 9.52607 93.7616C9.52607 93.5225 9.52607 93.2834 9.47867 93.0922C9.47867 92.9966 9.33649 92.9487 9.24171 92.9009C8.95735 92.8531 8.95735 92.7575 9.19431 92.614C9.2891 92.5662 9.38389 92.4706 9.43128 92.375C9.47867 92.2794 9.47867 92.1359 9.43128 92.0403C9.24171 91.61 9.19431 91.2753 9.2891 90.9884C9.2891 90.9884 9.2891 90.9884 9.2891 91.0362C9.24171 90.9884 9.19431 90.9884 9.14692 90.9406C9.14692 90.9406 9.19431 90.8928 9.19431 90.845C9.24171 90.8928 9.24171 90.8928 9.2891 90.9884C9.38389 90.9406 9.52607 90.845 9.62085 90.7015C9.66825 90.6059 9.71564 90.5103 9.71564 90.4146C9.71564 90.3668 9.57346 90.319 9.47867 90.319C9.38389 90.319 9.2891 90.319 9.24171 90.3668C9.05213 90.4625 9.00474 90.319 9.09953 90.2234C9.57346 89.6018 9.43128 88.8368 9.66825 88.1196C9.66825 88.0718 9.71564 87.9762 9.66825 87.9284C9.57346 87.3546 9.57346 87.3546 9.76303 87.1155C9.90522 86.9721 9.85782 86.8765 9.81043 86.733C9.71564 86.494 9.62085 86.2071 9.57346 85.9202C9.47867 85.6333 9.52607 85.203 9.66825 84.6292C9.66825 84.6292 9.71564 84.5814 9.76303 84.5814C9.24171 84.0077 9.95261 83.1949 9.38389 82.6211C9.57346 81.9995 9.00474 81.4258 9.33649 80.8042C9.47867 80.5173 9.00474 80.1826 9.47867 79.9436C9.38389 79.7523 9.2891 79.6089 9.19431 79.4176C9.14692 79.3698 9.09953 79.2742 9.09953 79.2742C9.2891 78.796 9.2891 78.796 9.24171 78.4613C9.24171 78.2701 9.24171 78.0788 9.2891 77.9354C9.33649 77.5529 9.38389 77.1226 9.52607 76.7401C9.66825 76.4054 9.38389 76.0707 9.66825 75.7838C9.76303 75.6882 9.62085 75.4013 9.62085 75.21C9.62085 75.0188 9.71564 74.8275 9.52607 74.6841C9.66825 74.5885 9.76303 74.4929 9.85782 74.3972C9.90522 74.3494 9.95261 74.206 9.95261 74.1582C9.71564 73.9191 9.85782 73.68 9.90522 73.441C9.95261 73.2497 9.85782 73.1063 9.76304 72.915C9.71564 72.8672 9.62085 72.7238 9.66825 72.6759C10.1896 72.1978 9.52607 71.6719 9.71564 71.1937C9.43128 70.62 9.57346 70.0462 9.66825 69.4246C9.71564 68.8987 10.0474 68.3728 9.81043 67.799C10.0474 67.5599 10.1896 67.3209 9.90522 67.034C10.1896 66.8427 9.62086 66.508 10 66.3168C9.85782 65.9821 9.66825 65.6952 9.85782 65.3127C9.90522 65.1215 9.95261 64.9302 9.95261 64.7868C9.95261 64.6911 9.95261 64.5477 9.90522 64.4521C9.66825 63.9739 9.66825 63.8783 9.85782 63.1611C9.62086 62.9699 10.0948 62.683 9.76304 62.5396C9.71564 62.5396 9.71564 62.3961 9.71564 62.3961C9.95261 62.1092 10 61.7745 9.90522 61.4877C9.81043 61.2486 10.2844 61.1052 9.95261 60.8183C9.66825 60.627 9.95261 60.2445 9.85782 60.0533C9.66825 59.7186 9.85782 59.4317 9.85782 59.1448C9.81043 58.8579 9.71564 58.5711 9.66825 58.2842C9.62086 57.9973 9.66825 57.7104 9.66825 57.3757C9.66825 57.2801 9.81043 57.1845 9.76304 57.1367C9.66825 56.8976 10.1896 56.8976 9.95261 56.6585C9.71564 56.3716 10.1896 56.3716 10.1896 56.1326C10.1422 55.7979 10.1422 55.511 10.0474 55.1763C10.0474 55.1285 9.85782 55.1285 9.76304 55.1285C9.76304 55.1285 9.76304 55.1285 9.81043 55.1285C9.76304 55.1763 9.76304 55.2241 9.71564 55.2719C9.71564 55.2719 9.66825 55.2241 9.62086 55.2241C9.66825 55.1763 9.66825 55.1763 9.76304 55.1285C10.0948 54.6982 10.0948 54.746 9.81043 54.3157C9.57346 53.981 9.38389 53.5985 9.19432 53.216C9.14692 53.1682 9.24171 53.0247 9.2891 52.9769C9.57346 52.8335 9.52607 52.4988 9.52607 52.3075C9.38389 51.7338 9.52607 51.16 9.66825 50.5863C9.76304 50.1559 9.2891 50.5862 9.3365 50.2994C9.38389 50.0603 9.43128 49.8212 9.47868 49.5822C9.52607 49.2953 9.57346 49.0084 9.62086 48.7693C9.66825 48.5303 9.43128 48.2912 9.71564 48.0522C9.81043 48.0043 9.52607 47.6218 9.66825 47.3828C9.24171 47.0003 9.43128 46.5221 9.52607 46.0918C9.38389 46.044 9.47868 45.6615 9.00474 45.4224C8.95735 45.3746 9.09953 45.0877 9.05214 44.8965C9.62086 44.8487 9.52607 44.7052 9.14692 44.4183C9.05214 44.3705 9.24171 43.988 9.19432 43.7968C9.09953 43.5099 9.57346 43.4143 9.38389 43.0796C9.2891 42.8883 9.38389 42.6014 9.3365 42.4102C9.3365 42.1711 9.2891 41.8842 9.2891 41.6452C9.2891 41.5017 9.2891 41.3583 9.2891 41.2149C9.38389 40.7367 9.52607 40.2108 9.24171 39.7327C9.00474 39.398 9.47868 39.1589 9.38389 38.7764C9.2891 38.4895 9.19432 38.1548 9.3365 37.8201C9.38389 37.7245 9.71564 37.6767 9.43128 37.5332C9.24171 37.4376 9.19432 37.3898 9.24171 37.1986C9.2891 37.0551 9.2891 36.9117 9.3365 36.7204C9.3365 36.4335 8.90996 36.2423 9.09953 35.9076C9.24171 35.6685 9.3365 35.3817 9.43128 35.0948C9.43128 35.047 9.3365 34.9035 9.24171 34.7601C9.24171 34.8079 9.2891 34.8557 9.2891 34.9035C9.2891 34.9991 9.24171 35.047 9.19432 35.1426C9.14692 35.1426 9.09953 35.0948 9.09953 35.0948C9.09953 34.9991 9.14692 34.9035 9.24171 34.8079C9.2891 34.521 9.19432 34.1385 9.3365 33.8994C9.47868 33.6604 9.43128 33.5648 9.3365 33.3257C9.24171 33.1344 9.3365 32.8476 9.2891 32.6085C9.24171 32.6085 9.14692 32.6085 9.14692 32.6085C9.09953 32.7519 9.05214 33.0388 8.86256 32.7041C8.72038 32.5129 8.76778 32.3694 8.95735 32.2738C9.09953 32.1782 9.24171 32.1782 9.14692 31.8913C9.05214 31.5566 9.24171 31.1741 9.14692 30.7438C9.05214 30.4091 9.38389 30.2178 9.52607 29.9788C9.57346 29.8831 9.71564 29.6919 9.66825 29.6919C9.19432 29.3094 9.81043 28.9269 9.66825 28.5922C9.47868 28.1619 9.71564 27.7794 9.71564 27.349C9.71564 27.0622 9.81043 26.8231 9.62086 26.584C9.43128 26.345 9.52607 26.0581 9.76304 25.7712C9.90522 25.6278 10.0948 25.3409 9.66825 25.2453C9.62086 25.2453 9.62086 24.9584 9.62086 24.9584C10 24.8149 9.57346 24.6237 9.66825 24.4324C9.85782 24.0977 9.52607 24.1455 9.3365 24.0499C9.19432 24.0021 9.19432 23.7152 9.2891 23.7152C9.76304 23.8109 9.57346 23.3327 9.76304 23.1893C9.81043 23.1415 9.85782 23.0458 9.81043 22.998C9.47868 22.6633 9.66825 22.3286 9.71564 21.9461C9.76304 21.5636 9.71564 21.1811 9.71564 20.7986C9.71564 20.4161 9.81043 20.0336 9.71564 19.6511C9.66825 19.4599 9.62086 19.2686 9.66825 19.0295C9.71564 18.8383 9.57346 18.7905 9.52607 18.6948C9.38389 18.408 9.38389 18.1211 9.3365 17.7864C9.2891 17.5951 9.2891 17.4039 9.24171 17.1648C9.19432 16.9258 9.19432 16.6867 9.2891 16.3998C9.38389 16.1607 9.19432 15.7782 9.09953 15.4914C9.00474 15.1567 9.05214 14.8698 9.14692 14.6307C9.24171 14.2482 8.95735 14.057 8.76778 13.8179C8.5782 13.5788 8.6256 13.4354 8.81517 13.2441C9.00474 13.0529 9.19432 12.8616 8.90996 12.5748C8.67299 12.3835 8.95735 12.0488 8.86256 11.9054C8.6256 11.4751 8.72038 10.9969 8.6256 10.5666C8.6256 10.5188 8.5782 10.4232 8.5782 10.4232C8.86256 10.2319 8.67299 9.89722 8.72038 9.65815C8.86256 8.89314 8.6256 8.22376 8.43602 7.50656C8.29384 7.12405 8.43602 6.64592 8.19906 6.2156C8.19906 6.16779 8.19906 6.07216 8.24645 6.07216C8.48342 5.92872 8.48342 5.73747 8.48342 5.54622C8.43602 5.30715 8.43602 4.97246 8.29384 4.82902C7.72512 4.20745 7.9147 3.49025 7.9147 2.77305C7.9147 2.43836 7.8673 2.15148 7.81991 1.81679C7.77252 1.57772 7.58294 1.52991 7.34598 1.57772C7.25119 1.62553 7.10901 1.62553 7.01422 1.57772C6.96683 1.57772 6.91943 1.52991 6.87204 1.48209C6.87204 1.43428 6.91944 1.38647 6.91944 1.38647C7.01422 1.29084 7.1564 1.24303 7.2038 1.1474C7.25119 1.00396 7.29858 0.764896 7.25119 0.717083C6.72986 0.478017 7.01422 0.286764 7.29858 0.0955116C7.34598 0.0476984 7.34598 -0.047928 7.39337 -0.0957412C7.34598 -0.0957412 7.25119 -0.143554 7.2038 -0.143554C6.96683 -0.047928 6.58768 0.143325 6.49289 0.0476984C6.25593 -0.143554 6.01896 -0.047928 5.82939 -0.000114833C5.7346 0.143325 5.68721 0.238951 5.68721 0.478017C5.68721 0.573644 5.63981 0.52583 5.63981 0.478017C5.63981 0.430204 5.7346 0.334578 5.7346 0.334578C5.82939 0.382391 5.87678 0.430204 5.97157 0.478017C5.87678 0.52583 5.78199 0.621457 5.63981 0.478017C5.35545 0.0955115 5.0237 0.478017 4.78673 0.143325C4.78673 0.143325 4.73934 0.621457 4.50237 0.430204C4.21801 0.238951 4.07583 0.238951 3.93365 0.573643C3.83886 0.812709 3.69668 0.66927 3.5545 0.66927C3.12796 0.717083 2.65403 0.812709 2.22749 0.860523C1.99052 0.908336 2.03792 1.33865 1.80095 1.19521C1.56398 1.09959 1.37441 1.24303 1.18483 1.19521C0.947868 1.1474 0.995261 1.38647 1.04265 1.62553C1.09005 1.72116 0.995261 1.62553 0.947868 1.57772C0.995261 1.57772 1.04265 1.48209 1.04265 1.52991C1.13744 1.57772 1.18483 1.62553 1.27962 1.67335C1.23223 1.67335 1.18483 1.72116 1.04265 1.62553C0.758294 1.52991 0.473934 1.29084 0.42654 1.57772C0.379147 1.72116 0.0473933 2.05585 0.521327 2.24711C0.663507 2.29492 0.379147 2.5818 0.521327 2.72524C0.42654 2.72524 0.28436 2.72524 0.189573 2.72524C0.189573 2.82086 0.14218 3.01212 0.189573 3.05993C0.28436 3.20337 0.521327 3.34681 0.568721 3.49025C0.616114 3.58587 0.42654 3.77713 0.331754 3.92057C0.236967 4.06401 0.236967 5.8331 0.28436 6.02435C0.331753 6.11997 0.42654 6.2156 0.473934 6.31123C0.663507 6.59811 0.947867 6.88499 0.853081 7.26749C0.947867 7.26749 0.995261 7.84125 1.18483 7.3153C1.18483 7.26749 1.23223 7.26749 1.23223 7.26749C1.27962 7.26749 1.32701 7.3153 1.32701 7.36312C1.32701 7.45874 1.32701 7.55437 1.27962 7.65C1.04265 7.88906 0.853081 8.17594 1.13744 8.51063C1.13744 8.55845 1.13744 8.60626 1.09005 8.65407C0.947867 8.94095 0.663507 9.61034 0.758294 9.65815C1.27962 9.99284 0.995261 10.5188 1.09005 10.9013C1.18483 11.3316 1.04265 11.8576 1.04265 12.3357C1.04265 12.7182 1.23223 12.3357 1.27962 12.3835C1.37441 12.4791 1.4218 12.5748 1.51659 12.6704C1.04265 12.9573 1.75355 13.6266 1.18483 13.9135C1.23223 14.2004 1.27962 14.4395 1.32701 14.7263C1.46919 15.061 1.56398 15.4435 1.51659 15.9695C1.46919 16.3042 1.56398 16.5433 1.65877 16.8301C1.84834 17.2126 1.89573 17.2604 1.84834 17.8342C1.84834 17.882 1.80095 17.9298 1.84834 17.9776C2.1327 18.3123 2.1327 18.5992 1.89573 18.9339C1.84834 18.9817 1.80095 19.0295 1.84834 19.0295C2.27488 19.6511 1.84834 20.3205 2.03791 20.9421C2.1801 21.5158 2.1327 22.1852 2.36967 22.7112C2.55924 23.0937 1.99052 23.2849 2.32228 23.5718C2.22749 23.8587 2.1327 24.1455 2.08531 24.4324C2.65403 24.6237 2.1327 25.0062 2.22749 25.2453C2.36967 25.7712 2.22749 26.2493 2.1327 26.7753C2.1327 26.8231 2.18009 26.8709 2.22749 26.9187C2.27488 26.8709 2.32228 26.8231 2.32228 26.7753C2.36967 26.6796 2.36967 26.5362 2.51185 26.6796C2.60664 26.7753 2.74882 27.0143 2.70142 27.2056C2.65403 27.3968 2.55924 27.5881 2.60664 27.6837C2.70142 27.875 2.74882 28.0184 2.55924 28.1619C2.51185 28.1619 2.55924 28.3053 2.60664 28.3531C2.74882 28.5444 2.93839 28.7356 2.60664 28.9269L2.65403 29.0703C2.8436 29.0703 2.93839 29.1659 2.8436 29.3572C2.79621 29.405 2.60664 29.405 2.55924 29.4528C2.46446 29.5484 2.36967 29.7875 2.41706 29.8353C2.60664 30.1222 2.55924 30.2656 2.32227 30.4569C2.27488 30.5047 2.27488 30.6481 2.27488 30.7438C2.41706 31.3175 2.22749 31.7957 2.18009 32.3694C2.18009 32.5607 2.32227 32.7519 2.41706 32.9432C2.60663 33.2301 2.55924 33.2779 2.27488 33.2779C2.22749 33.2779 2.18009 33.3735 2.18009 33.4213C2.27488 33.9951 1.89573 34.7123 2.36967 35.3338C2.41706 35.4295 2.32227 35.6685 2.41706 35.7642C2.51185 35.9554 1.84834 36.1467 2.41706 36.2901C2.36967 36.3379 2.36967 36.4335 2.32227 36.4814C2.18009 36.577 1.94313 36.6248 2.03791 36.8639C2.1327 37.1029 2.36967 37.342 2.1327 37.5332C1.89573 37.7245 2.36967 38.0592 1.94313 38.2026C1.94313 38.2026 1.89573 38.3461 1.94313 38.3939C2.08531 38.5851 1.99052 38.9676 2.36967 39.0155C2.22749 39.2067 1.99052 39.398 2.18009 39.637C2.36967 39.9239 2.08531 40.2108 2.22749 40.402C2.41706 40.6411 2.22749 40.8802 2.22749 41.1192C2.22749 41.4061 2.1327 41.693 2.08531 41.9321C2.08531 42.0755 1.99052 42.2189 2.03791 42.3146C2.60663 43.3665 2.03791 44.514 2.46445 45.5659C2.51185 45.6615 2.55924 45.8049 2.51185 45.9006C2.36967 46.6178 2.36967 47.2871 2.51185 48.0043C2.51185 48.1 2.51185 48.2912 2.41706 48.339C1.99052 48.6737 2.36967 49.0562 2.41706 49.3909C2.46445 49.7256 2.65403 50.395 2.60663 50.6819C2.55924 51.16 2.74881 51.6381 2.55924 52.1163C2.55924 52.1641 2.65403 52.2597 2.70142 52.2597C2.93839 52.3075 3.12796 52.3553 2.98578 52.6422C2.89099 52.8813 2.8436 53.1682 2.74881 53.4072C2.74881 53.4072 2.65403 53.455 2.70142 53.455C2.8436 53.6941 3.03317 53.8854 2.74881 54.1722C2.65403 54.3157 2.74881 54.6504 2.79621 54.8894C2.79621 54.9373 2.8436 55.0329 2.89099 55.0807C2.93839 54.9851 2.93839 54.8894 2.98578 54.8416C3.03317 54.7938 3.17535 54.746 3.22275 54.7938C3.27014 54.7938 3.31753 54.9373 3.31753 54.9851C3.27014 55.1285 3.17535 55.2241 3.12796 55.3676C3.08057 55.4632 2.55924 55.5588 3.12796 55.7023C3.12796 55.7501 3.12796 55.8457 3.08057 55.8935C2.98578 56.0848 2.8436 56.2282 2.74881 56.3716C2.74881 56.4195 2.79621 56.5151 2.8436 56.5151C2.93839 56.5151 3.08057 56.3238 3.08057 56.5629C3.03317 57.4714 3.12796 58.4276 2.98578 59.3361C2.93839 59.7186 2.93839 60.1489 3.03317 60.5792C3.12796 60.8661 3.03317 61.0573 3.03317 61.2964C3.03317 61.4877 3.41232 61.2964 3.27014 61.6311C3.17535 61.7745 3.12796 61.9658 3.08057 62.1092C2.98578 62.3961 2.93839 62.683 3.22275 62.9699C3.27014 63.0177 3.27014 63.2089 3.22275 63.2567C2.93839 63.5436 2.93839 63.8783 3.03317 64.2608C3.08057 64.4043 3.08057 64.5955 3.03317 64.6911C2.70142 65.1693 2.8436 65.6474 2.93839 66.1733C2.98578 66.3646 2.89099 66.5559 2.89099 66.6993C2.89099 66.8427 2.79621 67.034 2.8436 67.1296C3.12796 67.6556 2.98578 68.1815 2.89099 68.7075C2.89099 68.8509 2.93839 68.9943 2.93839 69.1378C2.89099 69.5203 3.27014 69.9984 2.79621 70.3809C2.74881 70.4287 2.89099 70.7156 2.89099 70.859C2.8436 71.0503 2.60663 71.3372 2.65403 71.4806C2.74881 71.7675 2.65403 71.9587 2.65403 72.1978C2.65403 72.4369 2.70142 72.6759 2.70142 72.8672C2.70142 72.915 2.70142 73.0106 2.65403 73.0585C2.51185 73.68 2.65403 74.3016 2.74881 74.8754C2.74881 74.971 2.89099 75.0666 2.8436 75.1144C2.65403 75.6882 2.8436 76.2619 2.74881 76.8357C2.65403 77.266 2.65403 77.6485 2.98578 78.031C3.17535 78.2223 3.12796 78.4135 2.79621 78.4135C2.55924 78.4135 2.74881 78.557 2.79621 78.6526C2.89099 78.796 2.93839 78.8438 2.79621 79.0829C2.55924 79.3698 2.79621 79.8957 2.36967 80.1348C2.32227 80.1348 2.36967 80.3261 2.41706 80.3739C2.65403 80.6129 2.65403 80.8998 2.55924 81.2345C2.51185 81.4258 2.55924 81.5692 2.55924 81.7605C2.55924 82.0473 2.79621 82.4298 2.22749 82.4777C2.22749 82.4777 2.22749 82.6211 2.22749 82.6689C2.27488 82.908 2.27488 83.147 2.51185 83.2905C2.60663 83.3383 2.93839 84.3424 2.89099 84.438C2.89099 84.4858 2.8436 84.5814 2.8436 84.5814C2.60663 84.6771 2.74881 84.7727 2.79621 84.9161C2.89099 85.0596 3.12796 85.2508 2.70142 85.203C2.70142 85.203 2.65403 85.2986 2.65403 85.3464C3.08057 85.3943 2.89099 85.7289 2.8436 85.9202C2.65403 86.6374 2.65403 87.1633 2.98578 87.8805C3.08057 88.1196 2.55924 88.3109 2.93839 88.5499C2.46445 88.9802 2.70142 89.3149 3.08057 89.6974C3.12796 89.7453 3.03317 89.8887 3.03317 89.9843C2.89099 89.7931 2.65403 89.6974 2.79621 90.0799C2.89099 90.319 2.65403 90.3668 2.74881 90.4625C2.89099 90.6537 2.79621 90.8928 2.74881 91.084C2.74881 91.2753 2.93839 91.4665 2.65403 91.5622C2.65403 91.5622 2.65403 91.8012 2.70142 91.8012C3.08057 91.849 2.93839 92.0881 2.89099 92.2794C2.8436 92.4228 2.46445 92.5662 2.93839 92.614C3.17535 92.6619 3.27014 92.8053 3.31753 93.0444C3.41232 93.0922 3.64929 93.14 3.64929 93.1878C3.64929 93.3312 3.60189 93.5703 3.50711 93.6659C3.41232 93.7616 3.17535 93.7616 3.03317 93.8572C2.70142 94.1441 2.60663 94.5266 2.89099 95.0525C3.03317 95.3394 3.03317 95.4828 2.89099 95.7219C2.74881 96.0088 2.89099 96.1044 3.12796 95.9132C3.17535 95.9132 3.22275 95.961 3.31753 95.961C3.31753 96.0088 3.27014 96.1044 3.22275 96.1522C3.17535 96.2 3.12796 96.2479 3.08057 96.2479C2.65403 96.4391 2.60663 96.4869 2.79621 96.8216C2.93839 97.0129 2.89099 97.1085 2.79621 97.2997C2.65403 97.5388 2.55924 97.8735 2.98578 98.0169C3.12796 98.0648 3.27014 98.3038 2.98578 98.5429C2.79621 98.6863 3.03317 98.6863 3.08057 98.7341C3.12796 98.782 3.17535 98.8776 3.17535 98.9254C3.31753 98.8776 3.45971 98.8298 3.5545 98.7341C3.60189 98.6863 3.27014 98.3994 3.64929 98.4473C3.93365 98.4951 4.07583 98.4951 3.83886 98.1604C3.79147 98.1126 4.31279 97.5866 4.40758 97.6344C4.45497 97.6344 4.45497 97.7301 4.50237 97.7779C4.59715 97.8735 4.59715 98.1126 4.88152 97.9691C5.07109 97.8735 5.26066 97.8735 5.26066 97.5866C4.92891 97.3476 5.0237 96.9651 5.0237 96.6304C5.0237 96.4869 4.88151 96.2479 4.92891 96.1522C4.9763 96.0088 5.21327 95.9132 5.35545 95.8175C5.49763 95.7219 5.59242 95.5785 5.6872 95.435C5.7346 95.3872 5.7346 95.2916 5.78199 95.2438C5.7346 95.2438 5.63981 95.196 5.59242 95.196C5.35545 95.435 5.26066 95.1481 5.11848 95.1003C5.07109 95.1481 5.0237 95.2438 4.9763 95.2438C4.78673 95.2916 4.54976 95.2916 4.31279 95.3394C4.31279 95.3394 4.31279 95.3394 4.36019 95.3394C4.31279 95.3872 4.31279 95.435 4.2654 95.4828C4.2654 95.4828 4.21801 95.435 4.17061 95.435C4.21801 95.3872 4.21801 95.3872 4.31279 95.3394C4.40758 95.1003 4.36019 94.8135 4.64455 94.7178C4.9763 94.6222 4.88152 95.1003 5.11848 95.1003C5.16588 94.8613 5.35545 94.9569 5.49763 94.9569C5.78199 95.0047 5.82938 94.8613 5.6872 94.6222C5.63981 94.5266 5.54502 94.431 5.49763 94.3353C5.35545 94.0006 5.6872 93.8572 5.78199 93.6181C5.82938 93.5225 6.49289 93.5225 6.63507 93.6659C6.72986 93.7616 6.82464 94.0006 6.82464 94.1441C6.72986 94.5266 6.77725 94.8613 6.91943 95.196C6.96682 95.3872 6.87204 95.3872 6.82464 95.435C6.58768 95.7697 6.87204 95.7697 7.29858 95.7697C7.39336 95.7697 7.29858 95.8175 7.25118 95.8175C7.20379 95.8175 7.1564 95.8175 7.06161 95.7697C7.109 95.7219 7.1564 95.6263 7.20379 95.6263C7.25118 95.6263 7.34597 95.6741 7.25118 95.7697C7.39336 96.2479 6.87204 96.5347 6.82464 96.9172C6.82464 97.0129 6.82464 97.2997 6.91943 97.3476C7.01422 97.3954 7.109 97.4432 7.20379 97.5388C7.20379 97.5388 7.20379 97.6344 7.20379 97.6823C6.72986 97.491 7.01422 98.256 6.54028 98.2082C6.35071 98.1604 6.35071 98.3516 6.3981 98.5429C6.49289 98.8776 6.87204 98.1126 6.87204 98.6863C6.87204 99.021 7.20379 98.8298 7.48815 98.8776C7.53554 98.8776 7.48815 98.8776 7.48815 98.9254C7.48815 98.8776 7.44076 98.8776 7.44076 98.8298C7.48815 98.8298 7.53554 98.782 7.58294 98.782C7.58294 98.782 7.63033 98.8298 7.53554 98.8776C7.44076 98.9254 7.44076 99.021 7.44076 99.021C7.20379 99.021 6.91943 98.9254 6.77725 99.0688C6.49289 99.2601 6.68246 99.6904 6.4455 99.9773C6.30332 100.121 6.91943 100.551 6.54028 100.79C6.16114 101.077 6.63507 101.364 6.4455 101.603C6.4455 101.651 6.49289 101.794 6.54028 101.794C7.01422 101.842 6.96682 101.985 6.58768 102.177C6.49289 102.225 6.35071 102.32 6.30332 102.416C6.25592 102.464 6.30332 102.559 6.25592 102.655C6.30332 102.655 6.3981 102.607 6.4455 102.607C6.54028 102.607 6.58768 102.607 6.68246 102.655C6.63507 102.703 6.63507 102.798 6.58768 102.846C6.49289 102.942 6.49289 103.133 6.20853 103.133C5.97156 103.133 5.97156 103.611 6.11374 103.85C6.20853 103.994 6.25592 104.137 6.35071 104.28C6.49289 104.52 6.35071 104.615 6.16114 104.711C6.30332 104.759 6.4455 104.854 6.58768 104.902C6.54028 104.95 6.54028 104.998 6.49289 105.045C6.4455 105.093 6.35071 105.045 6.30332 105.045C6.06635 105.189 6.35071 105.38 6.30332 105.476C6.20853 105.667 5.97156 105.763 5.87678 105.906C5.78199 106.05 5.7346 106.289 5.78199 106.432C5.87678 106.671 6.06635 106.815 6.30332 107.149C6.35071 107.245 6.25592 107.149 6.20853 107.101C6.25592 107.101 6.30332 107.006 6.30332 107.054C6.3981 107.101 6.4455 107.149 6.54028 107.197C6.49289 107.197 6.4455 107.245 6.30332 107.149C5.87678 107.245 5.87678 107.532 6.06635 107.819C6.16114 108.01 6.16114 108.058 6.01896 108.249C5.7346 108.631 6.30332 108.918 6.30332 109.301C6.30332 109.349 6.68246 109.349 6.68246 109.444C6.72986 109.731 6.77725 110.018 6.72986 110.305C6.72986 110.544 6.63507 110.735 6.96682 110.783C6.96682 110.783 7.01422 110.974 6.96682 111.022C6.77725 111.166 6.58768 111.309 6.82464 111.548C6.77725 111.596 6.72986 111.644 6.68246 111.644C6.63507 111.692 6.54028 111.692 6.49289 111.739C6.77725 111.883 6.30332 112.409 6.82464 112.457C6.82464 112.6 6.82464 112.839 6.72986 112.935C6.58768 113.078 6.63507 113.222 6.63507 113.365C6.58768 113.747 7.109 113.7 7.01422 114.082C6.91943 114.321 7.06161 114.656 7.109 114.943C7.1564 115.134 7.25118 115.278 7.25118 115.421C7.25118 115.517 7.1564 115.66 7.109 115.66C6.72986 115.66 6.77725 115.803 6.91943 116.043C7.109 116.282 7.34597 116.521 7.01422 116.855C7.20379 117.047 7.39336 117.142 7.29858 117.477C7.25118 117.668 7.29858 117.955 7.34597 118.146C7.34597 118.242 7.44076 118.338 7.53554 118.385C7.58294 118.433 7.72512 118.385 7.77251 118.385C7.77251 118.338 7.72512 118.242 7.72512 118.194C7.67772 117.907 7.53554 117.573 7.58294 117.286C7.67772 116.76 7.58294 116.282 7.63033 115.803C7.63033 115.756 7.67772 115.66 7.67772 115.612C7.39336 115.612 7.44076 115.421 7.44076 115.23C7.58294 114.56 7.77251 113.891 7.44076 113.174C7.39336 113.078 7.53554 112.839 7.63033 112.696C7.77251 112.552 7.96208 112.457 7.77251 112.217C8.05687 111.835 7.96208 111.596 7.48815 111.548C7.44076 111.548 7.44076 111.452 7.39336 111.405C7.53554 111.405 7.8199 111.452 7.72512 111.166C7.67772 111.022 7.48815 110.927 7.34597 110.831C7.20379 110.687 7.29858 110.64 7.44076 110.64L8.38863 109.588C8.43602 109.301 8.62559 108.918 8.53081 108.679C8.38863 108.392 8.62559 107.914 8.10427 107.723C8.10427 107.723 8.10427 107.723 8.15166 107.723C8.10427 107.771 8.10427 107.819 8.05687 107.866C8.05687 107.866 8.00948 107.819 7.96208 107.819C8.00948 107.771 8.00948 107.771 8.10427 107.723C8.15166 107.532 8.24645 107.341 8.15166 107.197C8.00948 106.862 8.19905 106.623 8.19905 106.289C8.19905 106.241 8.38863 106.241 8.53081 106.193C8.53081 106.145 8.48341 106.05 8.48341 106.002C8.48341 105.906 8.48341 105.763 8.48341 105.667C8.53081 105.571 8.53081 105.428 8.62559 105.332C8.72038 105.237 8.81517 105.141 8.95735 105.045C9.00474 105.141 8.81517 105.093 8.5782 104.998C8.5782 105.045 8.62559 105.093 8.62559 105.141C8.62559 105.237 8.5782 105.285 8.53081 105.38C8.48341 105.38 8.43602 105.332 8.43602 105.332C8.43602 105.237 8.48341 105.141 8.5782 104.998ZM5.54502 90.7493C5.49763 90.7972 5.49763 90.7971 5.45024 90.845C5.45024 90.7971 5.40284 90.7972 5.40284 90.7493C5.45024 90.7493 5.49763 90.7015 5.54502 90.7015C5.54502 90.7015 5.59242 90.7493 5.30806 90.845C5.35545 90.845 5.35545 90.845 5.40284 90.845C5.35545 90.8928 5.35545 90.9406 5.30806 90.9884C5.30806 90.9884 5.26066 90.9406 5.21327 90.9406C5.21327 90.845 5.26066 90.845 5.54502 90.7493ZM7.48815 65.1215C7.44076 65.1693 7.44076 65.1693 7.39337 65.2171C7.39337 65.1693 7.34597 65.1693 7.34597 65.1215C7.39337 65.1215 7.44076 65.0737 7.48815 65.0737C7.48815 65.0737 7.53555 65.1215 7.25119 65.1215C7.29858 65.2171 7.34597 65.2649 7.34597 65.3127C7.34597 65.4083 7.29858 65.4562 7.25119 65.5518C7.20379 65.5518 7.1564 65.504 7.1564 65.504C7.10901 65.3605 7.10901 65.2649 7.48815 65.1215ZM4.45498 41.1192C4.40758 41.2149 4.3128 41.2627 4.2654 41.3583C4.2654 41.2627 4.21801 41.2149 4.2654 41.1192C4.2654 41.0236 4.36019 40.928 4.40758 40.8324C4.45498 40.928 4.45498 41.0236 4.50237 41.5974C4.45498 41.5496 4.45498 41.5496 4.40758 41.5017C4.45498 41.5017 4.45498 41.4539 4.50237 41.4539C4.50237 41.5017 4.54976 41.5496 4.54976 41.5974C4.54976 41.5017 4.50237 41.5496 4.45498 41.1192ZM4.64455 58.2364C4.54976 58.332 4.45498 58.4276 4.45498 58.4276C4.36019 58.3798 4.2654 58.332 4.21801 58.2842C4.2654 58.1885 4.36019 58.0929 4.40758 58.0929C4.45498 58.0929 4.54976 58.1885 4.64455 58.6667C4.59716 58.6189 4.59716 58.6189 4.54976 58.5711C4.59716 58.5711 4.59716 58.5232 4.64455 58.5232C4.64455 58.5711 4.69194 58.6189 4.69194 58.6667C4.69194 58.6189 4.64455 58.6189 4.64455 58.2364ZM6.06635 1.8646C6.11375 1.8646 6.11375 1.8646 6.16114 1.8646C6.11375 1.91241 6.11375 1.96023 6.06635 2.00804C6.06635 2.00804 6.01896 1.96023 5.97157 1.96023C5.97157 1.96023 6.01896 1.91241 6.16114 1.91241C6.16114 1.76897 6.11375 1.67335 6.11375 1.52991C6.4455 1.57772 6.4455 1.48209 6.25593 1.24303C5.92417 0.860523 6.35071 0.908336 6.72986 0.764896C6.68247 0.81271 6.68247 0.81271 6.63507 0.860523C6.63507 0.81271 6.58768 0.81271 6.58768 0.764896C6.63507 0.764896 6.68247 0.717083 6.72986 0.717083C6.72986 0.717083 6.77725 0.764896 6.58768 0.860523C6.77725 1.19522 6.68247 1.52991 6.58768 1.8646C6.49289 1.8646 6.25593 1.8646 6.06635 1.8646ZM8.19905 92.614C8.15166 92.6619 8.10427 92.6619 8.05687 92.7097C7.91469 92.8053 7.81991 92.8531 7.67773 92.7097C7.58294 92.5662 7.39336 92.4228 7.58294 92.2794C7.58294 92.2794 7.77251 92.4228 7.8673 92.4228C7.96209 92.4706 8.05687 92.4706 8.10427 92.4706C8.19905 92.4706 8.19905 92.5662 8.19905 92.614ZM6.01896 3.01212C5.87678 3.10774 5.78199 3.20337 5.78199 3.15556C5.63981 3.05993 5.54503 2.91649 5.40285 2.82086C5.49763 2.77305 5.63981 2.62961 5.68721 2.62961C5.82939 2.72524 5.92417 2.82086 6.01896 3.01212ZM7.63033 85.0596C7.48815 84.9639 7.39337 84.8683 7.39337 84.8683C7.44076 84.7249 7.34597 84.4858 7.58294 84.438C7.63033 84.438 7.77251 84.5336 7.77251 84.5814C7.77251 84.6771 7.67773 84.8205 7.63033 85.0596ZM4.83412 57.0888C4.73934 57.2323 4.64455 57.3757 4.59716 57.4713C4.54976 57.3279 4.40758 57.1845 4.45498 57.0888C4.45498 56.9932 4.64455 56.8976 4.73934 56.802C4.73934 56.8976 4.78673 56.9932 4.83412 57.0888ZM8.00948 96.9651C7.91469 96.9172 7.77251 96.8694 7.67773 96.7738C7.77251 96.7738 7.91469 96.7738 8.00948 96.6782C8.10427 96.6304 8.19905 96.5347 8.24645 96.726C8.29384 96.7738 8.29384 96.8694 8.34123 96.9172C8.24645 96.9172 8.15166 96.9172 8.10427 96.9172C8.10427 97.0129 8.05687 97.0129 8.00948 96.9651ZM1.99052 3.44244L2.03792 3.44244C2.08531 3.6815 2.1327 3.87275 2.1801 4.11182C2.1801 4.11182 2.08531 4.15963 2.03792 4.15963C1.89574 4.06401 1.84834 3.6815 1.89574 3.49025C1.94313 3.49025 1.94313 3.49025 1.99052 3.44244ZM8.86256 67.5599C8.72038 67.6556 8.62559 67.7034 8.53081 67.7034C8.48341 67.7034 8.43602 67.6078 8.38863 67.5599C8.48341 67.5121 8.53081 67.4165 8.62559 67.3687C8.62559 67.3209 8.72038 67.4165 8.86256 67.5599ZM7.1564 72.9628C7.10901 72.9628 7.01422 72.8672 6.91943 72.8194C7.01422 72.8194 7.1564 72.8194 7.25119 72.8194C7.34597 72.8194 7.44076 72.8194 7.53555 72.8672C7.58294 72.8672 7.58294 72.9628 7.58294 73.0106L7.53555 73.0585C7.39337 73.0106 7.29858 72.9628 7.1564 72.9628ZM4.9763 74.2538C4.88152 74.3494 4.83412 74.3972 4.83412 74.445C4.69194 74.3016 4.59716 74.206 4.45498 74.0625C4.54976 74.0625 4.64455 74.0147 4.69194 74.0625C4.78673 74.0625 4.88152 74.1582 4.9763 74.2538ZM3.93365 86.5418C4.02843 86.5896 4.12322 86.6374 4.21801 86.733C4.12322 86.7808 3.98104 86.9243 3.93365 86.9243C3.83886 86.8765 3.74407 86.733 3.64929 86.6374C3.74407 86.5896 3.83886 86.5896 3.93365 86.5418ZM8.43602 99.1166C8.53081 99.1645 8.62559 99.2123 8.72038 99.3079C8.62559 99.3557 8.48341 99.4992 8.43602 99.4992C8.34123 99.4513 8.24645 99.3079 8.15166 99.2123C8.24645 99.1645 8.34123 99.1645 8.43602 99.1166ZM8.10427 101.316C7.96209 101.412 7.8673 101.507 7.8199 101.507C7.72512 101.459 7.67773 101.364 7.63033 101.268C7.63033 101.268 7.72512 101.125 7.77251 101.125C7.8673 101.125 7.96209 101.22 8.10427 101.316ZM7.67773 103.276C7.58294 103.276 7.48815 103.324 7.44076 103.324C7.34597 103.229 7.25118 103.085 7.1564 102.942C7.20379 102.942 7.29858 102.894 7.29858 102.894C7.44076 103.037 7.53554 103.133 7.67773 103.276ZM7.2038 1.91241C7.34598 1.91241 7.44076 1.96023 7.53555 1.96023C7.53555 1.96023 7.58294 2.05585 7.58294 2.10367C7.34598 2.05585 7.1564 2.00804 6.91944 1.96023C6.96683 1.91241 6.96683 1.8646 7.01422 1.8646C7.06162 1.8646 7.10901 1.8646 7.2038 1.91241ZM4.64455 40.6889C4.54976 40.6411 4.45498 40.5933 4.36019 40.4977C4.45498 40.4499 4.59716 40.3064 4.64455 40.3064C4.73934 40.3542 4.83412 40.4977 4.88152 40.5933C4.78673 40.6411 4.73934 40.6411 4.64455 40.6889ZM3.98104 97.1563C4.07583 97.2041 4.12322 97.2519 4.17061 97.2997C4.07583 97.3954 3.98104 97.491 3.88625 97.5388C3.88625 97.491 3.83886 97.4432 3.83886 97.3954C3.83886 97.2997 3.93365 97.2519 3.98104 97.1563ZM5.40284 74.1103C5.59242 74.206 5.6872 74.2538 5.82938 74.3016C5.78199 74.3494 5.6872 74.3972 5.63981 74.3972C5.54502 74.3972 5.45024 74.3016 5.30806 74.3016C5.35545 74.206 5.40284 74.1582 5.40284 74.1103ZM3.36493 53.7897C3.27014 53.981 3.22275 54.0766 3.17535 54.2201C3.12796 54.1722 3.08057 54.0766 3.08057 54.0288C3.08057 53.9332 3.17535 53.8375 3.17535 53.6941C3.27014 53.7419 3.31753 53.7897 3.36493 53.7897ZM8.15166 78.8438C8.19905 78.9395 8.29384 79.0351 8.34123 79.1307C8.24645 79.1307 8.15166 79.2264 8.10427 79.1785C8.05687 79.0829 8.00948 78.9873 8.00948 78.8917C8.05687 78.8917 8.10427 78.8438 8.15166 78.8438ZM6.11374 80.1826C6.06635 80.087 6.01896 80.0392 6.01896 79.9436C6.01896 79.8957 6.06635 79.8479 6.11374 79.8001C6.20853 79.8957 6.30332 79.9914 6.35071 80.087C6.25592 80.1348 6.20853 80.1348 6.11374 80.1826ZM4.40758 81.4258C4.3128 81.4258 4.21801 81.4736 4.12322 81.4736C4.07583 81.4736 4.02843 81.4258 3.98104 81.3779C4.07583 81.3301 4.21801 81.2345 4.3128 81.1867C4.40758 81.2823 4.40758 81.3301 4.40758 81.4258ZM8.10427 104.663C8.00948 104.759 7.91469 104.806 7.8199 104.902C7.8199 104.806 7.77251 104.711 7.77251 104.663C7.8673 104.615 7.96209 104.615 8.05687 104.567C8.05687 104.567 8.10427 104.663 8.10427 104.663ZM3.31753 90.9884C3.41232 91.0362 3.50711 91.084 3.60189 91.1797C3.50711 91.1797 3.41232 91.2275 3.36493 91.2275C3.27014 91.1797 3.17535 91.1318 3.08057 91.084C3.12796 91.0362 3.22275 91.0362 3.31753 90.9884ZM3.98104 38.2983C4.07583 38.2026 4.12322 38.1548 4.12322 38.107C4.17062 38.2026 4.2654 38.3461 4.3128 38.4417C4.2654 38.4417 4.17062 38.4895 4.17062 38.4417C4.07583 38.4417 4.02844 38.3461 3.98104 38.2983ZM5.11848 31.2219C5.21327 31.2697 5.30806 31.3175 5.40284 31.4132C5.30806 31.4132 5.21327 31.461 5.16588 31.461C5.07109 31.4132 4.9763 31.3653 4.88152 31.3175C4.92891 31.3175 5.0237 31.2697 5.11848 31.2219ZM1.75356 1.43428C1.80095 1.52991 1.84834 1.57772 1.89574 1.67335C1.89574 1.72116 1.84834 1.76897 1.80095 1.81679C1.70616 1.72116 1.61138 1.62553 1.51659 1.52991C1.56398 1.52991 1.61138 1.48209 1.75356 1.43428ZM3.5545 94.2875C3.60189 94.3831 3.69668 94.4788 3.74407 94.5744C3.64929 94.5744 3.5545 94.67 3.50711 94.6222C3.45971 94.5266 3.41232 94.431 3.41232 94.3353C3.41232 94.3353 3.50711 94.3353 3.5545 94.2875ZM5.7346 87.3068C5.7346 87.4024 5.7346 87.498 5.7346 87.5937C5.7346 87.6415 5.63981 87.6415 5.59242 87.6415C5.59242 87.5459 5.59242 87.4502 5.59242 87.4024C5.59242 87.3546 5.6872 87.3068 5.7346 87.3068ZM5.7346 82.5733C5.6872 82.5255 5.59242 82.4777 5.54502 82.4298C5.59242 82.4298 5.63981 82.3342 5.6872 82.382C5.78199 82.382 5.82938 82.4777 5.87678 82.5255C5.82938 82.5255 5.78199 82.5255 5.7346 82.5733ZM5.7346 81.8561C5.7346 81.8083 5.7346 81.7605 5.6872 81.6648C5.7346 81.6648 5.82938 81.617 5.82938 81.617C5.87678 81.6648 5.92417 81.7126 5.97156 81.7605C5.92417 81.8083 5.87678 81.8083 5.7346 81.8561ZM4.2654 78.2223C4.17061 78.3657 4.17061 78.4135 4.12322 78.4613C4.07583 78.4135 4.02843 78.3657 4.02843 78.2701C4.02843 78.2223 4.07583 78.1745 4.12322 78.1266C4.17061 78.1745 4.21801 78.1745 4.2654 78.2223ZM5.63981 76.4532C5.6872 76.501 5.78199 76.5488 5.82938 76.5966C5.78199 76.5966 5.7346 76.6923 5.6872 76.6444C5.59242 76.6444 5.54502 76.5488 5.49763 76.501C5.49763 76.501 5.54502 76.501 5.63981 76.4532ZM8.05687 74.9232C8.00948 74.9232 7.96209 74.9232 7.8673 74.971C7.8673 74.9232 7.81991 74.8275 7.81991 74.8275C7.8673 74.7797 7.91469 74.7319 7.96209 74.6841C8.00948 74.6841 8.00948 74.7797 8.05687 74.9232ZM3.27014 71.5284C3.27014 71.4806 3.27014 71.4328 3.22275 71.3372C3.27014 71.3372 3.36493 71.2894 3.36493 71.2894C3.41232 71.3372 3.45971 71.385 3.50711 71.4328C3.45971 71.4806 3.41232 71.4806 3.27014 71.5284ZM3.50711 68.3249C3.50711 68.3728 3.45971 68.4684 3.45971 68.4684C3.36493 68.4684 3.31753 68.4684 3.22275 68.4206L3.22275 68.3249C3.31753 68.2771 3.41232 68.3249 3.50711 68.3249ZM8.10427 67.0818C8.05687 67.1296 8.00948 67.1774 7.96209 67.2252C7.96209 67.1296 7.91469 67.0818 7.91469 66.9862C7.91469 66.9384 7.96209 66.8906 8.00948 66.8427C8.05687 66.9384 8.05687 67.034 8.10427 67.0818ZM3.36493 60.6748C3.41232 60.627 3.45971 60.5792 3.50711 60.5314C3.50711 60.627 3.5545 60.6748 3.5545 60.7705C3.5545 60.8183 3.50711 60.8661 3.45971 60.9139C3.41232 60.8183 3.41232 60.7705 3.36493 60.6748ZM3.22275 57.9017C3.22275 57.8539 3.22275 57.806 3.17535 57.7104C3.22275 57.7104 3.31753 57.6626 3.31753 57.6626C3.36493 57.7104 3.41232 57.7582 3.45972 57.806C3.45972 57.8539 3.36493 57.8539 3.22275 57.9017ZM7.72512 56.6585C7.63033 56.7063 7.58294 56.7542 7.53555 56.7542C7.44076 56.7542 7.39337 56.6585 7.34597 56.6107C7.39337 56.6107 7.44076 56.5629 7.48815 56.5629C7.53555 56.5629 7.63033 56.6107 7.72512 56.6585ZM6.25593 55.4632C6.16114 55.6066 6.16114 55.6544 6.11374 55.7023C6.06635 55.6544 6.01896 55.6066 6.01896 55.511C6.01896 55.4632 6.06635 55.4154 6.11374 55.3676C6.16114 55.4154 6.20853 55.4154 6.25593 55.4632ZM9.09953 51.5425C9.09953 51.5903 9.05214 51.686 9.05214 51.686C8.95735 51.686 8.90996 51.686 8.81517 51.6381L8.81517 51.5425C8.90996 51.4947 9.00474 51.4947 9.09953 51.5425ZM7.96209 47.2871C8.10427 47.3828 8.15166 47.3828 8.19905 47.4306C8.15166 47.4784 8.10427 47.5262 8.00948 47.5262C7.96209 47.5262 7.91469 47.4784 7.8673 47.4306C7.8673 47.3828 7.91469 47.335 7.96209 47.2871ZM3.83886 44.3227C3.79147 44.2749 3.74408 44.2271 3.69668 44.1793C3.79147 44.1793 3.83886 44.1315 3.93365 44.1315C3.98104 44.1315 4.02844 44.1793 4.07583 44.2271C3.98104 44.2749 3.88626 44.3227 3.83886 44.3227ZM1.80095 9.70596C1.75355 9.70596 1.70616 9.70596 1.61137 9.75378C1.61137 9.70596 1.56398 9.61034 1.56398 9.61034C1.61137 9.56252 1.65877 9.51471 1.70616 9.4669C1.75355 9.51471 1.75356 9.56252 1.80095 9.70596ZM1.18483 5.35496C1.13744 5.30715 1.04265 5.25934 1.04265 5.25934C1.04265 5.16371 1.09005 5.1159 1.13744 5.02027C1.18483 5.06808 1.23223 5.06808 1.23223 5.1159C1.23223 5.16371 1.18483 5.25934 1.18483 5.35496ZM6.01896 4.30307C6.16114 4.3987 6.20853 4.3987 6.25593 4.44651C6.20853 4.49433 6.16114 4.54214 6.06635 4.54214C6.01896 4.54214 5.97157 4.49433 5.92417 4.44651C5.97157 4.3987 5.97157 4.30307 6.01896 4.30307ZM8.86256 92.4228C8.81517 92.4706 8.76777 92.5184 8.72038 92.5662C8.72038 92.4706 8.67299 92.4228 8.67299 92.3272C8.67299 92.2794 8.72038 92.2315 8.76777 92.1837C8.81517 92.2794 8.81517 92.375 8.86256 92.4228ZM6.68246 106.432C6.63507 106.48 6.58768 106.576 6.58768 106.576C6.49289 106.576 6.4455 106.528 6.35071 106.48C6.3981 106.432 6.3981 106.384 6.4455 106.384C6.54028 106.384 6.58768 106.432 6.68246 106.432ZM7.53554 101.794C7.44076 101.794 7.34597 101.794 7.25118 101.794C7.20379 101.794 7.20379 101.699 7.20379 101.651C7.29858 101.651 7.39336 101.651 7.44076 101.651C7.48815 101.651 7.48815 101.699 7.53554 101.794ZM3.31753 97.8257C3.31753 97.9213 3.31753 98.0169 3.31753 98.1126C3.31753 98.1604 3.22275 98.1604 3.17535 98.1604C3.17535 98.0648 3.17535 97.9691 3.17535 97.9213C3.17535 97.8735 3.22275 97.8735 3.31753 97.8257ZM3.83886 95.3394C3.74407 95.3872 3.69668 95.435 3.64929 95.435C3.5545 95.435 3.50711 95.3394 3.45971 95.2916C3.50711 95.2916 3.5545 95.2438 3.60189 95.2438C3.64929 95.2438 3.74407 95.2916 3.83886 95.3394ZM4.54976 90.0799C4.45497 90.0799 4.36019 90.0799 4.2654 90.0799C4.21801 90.0799 4.21801 89.9843 4.21801 89.9365C4.31279 89.9365 4.40758 89.9365 4.45497 89.9365C4.50237 89.9365 4.50237 89.9843 4.54976 90.0799ZM8.24645 102.99C8.19905 102.99 8.19905 103.037 8.19905 103.037C8.15166 103.037 8.10427 102.99 8.10427 102.942C8.15166 102.942 8.15166 102.894 8.15166 102.894C8.19905 102.942 8.24645 102.99 8.24645 102.99ZM7.67773 102.655C7.67773 102.703 7.72512 102.703 7.72512 102.75C7.67772 102.75 7.63033 102.798 7.58294 102.798L7.53554 102.75C7.63033 102.655 7.63033 102.655 7.67773 102.655ZM7.01422 100.455C6.96682 100.503 6.96682 100.503 6.91943 100.551C6.91943 100.503 6.87204 100.503 6.87204 100.503C6.87204 100.455 6.91943 100.408 6.96682 100.408C6.96682 100.408 6.96682 100.455 7.01422 100.455ZM8.15166 100.36C8.10427 100.36 8.10427 100.408 8.05687 100.408C8.05687 100.36 8.00948 100.312 8.00948 100.264L8.05687 100.216C8.10427 100.264 8.10427 100.312 8.15166 100.36ZM8.53081 99.7382C8.5782 99.786 8.5782 99.786 8.62559 99.8338C8.5782 99.8338 8.5782 99.8817 8.5782 99.8817C8.53081 99.8817 8.48341 99.8338 8.48341 99.786C8.48341 99.786 8.48341 99.786 8.53081 99.7382ZM3.5545 97.5866C3.50711 97.6344 3.50711 97.6344 3.45971 97.6823C3.45971 97.6344 3.41232 97.6344 3.41232 97.6344C3.41232 97.5866 3.45971 97.5388 3.50711 97.5388C3.50711 97.5388 3.5545 97.5388 3.5545 97.5866ZM7.01422 98.1126C6.96682 98.0648 6.96682 98.0648 6.91943 98.0169C6.96682 98.0169 6.96682 97.9691 6.96682 97.9691C7.01422 97.9691 7.06161 98.0169 7.06161 98.0648C7.06161 98.0648 7.01422 98.0648 7.01422 98.1126ZM8.43602 97.8735C8.48341 97.8735 8.48341 97.8257 8.53081 97.8257C8.53081 97.8735 8.5782 97.9213 8.5782 97.9691L8.53081 98.0169C8.48341 97.9691 8.48341 97.9213 8.43602 97.8735ZM2.74881 96.5825C2.70142 96.5347 2.70142 96.5347 2.65403 96.4869C2.70142 96.4869 2.70142 96.4391 2.70142 96.4391C2.74881 96.4391 2.79621 96.4869 2.79621 96.5347C2.79621 96.5347 2.79621 96.5347 2.74881 96.5825ZM3.17535 95.6263C3.12796 95.6741 3.12796 95.6741 3.08057 95.7219C3.08057 95.6741 3.03317 95.6741 3.03317 95.6741C3.03317 95.6263 3.08057 95.5785 3.12796 95.5785C3.12796 95.5307 3.12796 95.5785 3.17535 95.6263ZM8.95735 95.961C9.00474 95.9132 9.00474 95.9132 9.05213 95.8653C9.05213 95.9132 9.09953 95.9132 9.09953 95.9132C9.09953 95.961 9.05213 96.0088 9.00474 96.0088C9.00474 96.0088 9.00474 96.0088 8.95735 95.961ZM4.36019 93.3791C4.31279 93.3791 4.31279 93.4269 4.31279 93.4269C4.2654 93.4269 4.21801 93.3791 4.21801 93.3312C4.2654 93.3312 4.2654 93.2834 4.2654 93.2834C4.2654 93.3313 4.31279 93.3791 4.36019 93.3791ZM5.82938 93.2834C5.78199 93.2834 5.78199 93.3312 5.7346 93.3312C5.7346 93.2834 5.6872 93.2356 5.6872 93.1878L5.7346 93.14C5.78199 93.2356 5.82938 93.2834 5.82938 93.2834ZM8.29384 92.9009C8.29384 92.9487 8.34123 92.9487 8.34123 92.9966C8.29384 92.9966 8.24645 93.0444 8.19905 93.0444L8.15166 92.9966C8.19905 92.9487 8.24645 92.9009 8.29384 92.9009ZM6.35071 90.7493C6.3981 90.7015 6.3981 90.7015 6.4455 90.6537C6.4455 90.7015 6.49289 90.7015 6.49289 90.7015C6.49289 90.7493 6.4455 90.7971 6.3981 90.7971C6.35071 90.7971 6.35071 90.7493 6.35071 90.7493ZM2.98578 86.9721C2.93839 86.9243 2.93839 86.9243 2.89099 86.8765C2.93839 86.8765 2.93839 86.8287 2.93839 86.8287C2.98578 86.8287 3.03317 86.8765 3.03317 86.9243C3.03317 86.9243 2.98578 86.9243 2.98578 86.9721ZM8.05687 85.1552C8.00948 85.1552 8.00948 85.203 8.00948 85.203C7.96209 85.203 7.91469 85.1552 7.91469 85.1074C7.96209 85.1074 7.96209 85.0596 7.96209 85.0596C7.96209 85.1074 8.00948 85.1074 8.05687 85.1552ZM8.86256 84.9161C8.81517 84.9161 8.81517 84.9639 8.81517 84.9639C8.76777 84.9639 8.72038 84.9161 8.72038 84.8683C8.76777 84.8683 8.76777 84.8205 8.76777 84.8205C8.76777 84.8683 8.81517 84.8683 8.86256 84.9161ZM3.98104 81.8083C4.02843 81.7605 4.02843 81.7605 4.07583 81.7126C4.07583 81.7605 4.12322 81.7605 4.12322 81.7605C4.12322 81.8083 4.07583 81.8561 4.02843 81.8561L3.98104 81.8083ZM5.16588 80.8998C5.11848 80.852 5.11848 80.852 5.07109 80.8042C5.11848 80.8042 5.11848 80.7564 5.11848 80.7564C5.16588 80.7564 5.21327 80.8042 5.21327 80.852C5.21327 80.852 5.21327 80.8998 5.16588 80.8998ZM4.07583 80.0392C4.02843 80.087 4.02843 80.087 3.98104 80.1348C3.98104 80.087 3.93365 80.087 3.93365 80.087C3.93365 80.0392 3.98104 79.9914 4.02843 79.9914C4.02843 79.9914 4.02843 79.9914 4.07583 80.0392ZM2.93839 75.5926C2.89099 75.5447 2.8436 75.4969 2.8436 75.4969C2.89099 75.4969 2.89099 75.4491 2.89099 75.4491C2.93839 75.4491 2.98578 75.4969 2.98578 75.5447C2.98578 75.5447 2.93839 75.5447 2.93839 75.5926ZM6.49289 74.206C6.54028 74.2538 6.54028 74.2538 6.58768 74.3016C6.54028 74.3016 6.54028 74.3494 6.54028 74.3494C6.49289 74.3494 6.4455 74.3016 6.4455 74.2538C6.4455 74.206 6.49289 74.206 6.49289 74.206ZM5.49763 73.3453C5.54502 73.2975 5.54502 73.2975 5.59242 73.2497C5.59242 73.2975 5.63981 73.2975 5.63981 73.2975C5.63981 73.3453 5.59242 73.3931 5.54502 73.3931C5.54502 73.3931 5.49763 73.3931 5.49763 73.3453ZM8.00948 73.6322C7.96209 73.6322 7.96209 73.68 7.91469 73.68C7.91469 73.6322 7.8673 73.5844 7.8673 73.5366L7.91469 73.4888C8.00948 73.5366 8.00948 73.5844 8.00948 73.6322ZM7.44076 68.2293C7.39337 68.1815 7.39337 68.1815 7.34597 68.1337C7.39337 68.1337 7.39337 68.0859 7.39337 68.0859C7.44076 68.0859 7.48815 68.1337 7.48815 68.1815C7.48815 68.1815 7.44076 68.2293 7.44076 68.2293ZM5.45024 65.9343C5.40284 65.9343 5.40284 65.9821 5.40284 65.9821C5.35545 65.9821 5.30806 65.9343 5.30806 65.8865C5.35545 65.8865 5.35545 65.8387 5.35545 65.8387C5.40284 65.8387 5.45024 65.8865 5.45024 65.9343ZM7.10901 63.6393C7.10901 63.5914 7.06161 63.5914 7.06161 63.5914C7.06161 63.5436 7.10901 63.4958 7.1564 63.4958C7.1564 63.5436 7.20379 63.5436 7.20379 63.5436C7.1564 63.5914 7.10901 63.6393 7.10901 63.6393ZM5.92417 61.9658C5.92417 62.0136 5.97156 62.0136 5.97156 62.0614C5.92417 62.0614 5.87678 62.1092 5.82938 62.1092L5.78199 62.0614C5.82938 61.9658 5.87678 61.9658 5.92417 61.9658ZM4.73934 61.153C4.73934 61.2008 4.78673 61.2008 4.78673 61.2486C4.73934 61.2486 4.69194 61.2964 4.64455 61.2964L4.59716 61.2486C4.64455 61.2008 4.69194 61.2008 4.73934 61.153ZM8.29384 55.0807C8.24645 55.0807 8.24645 55.1285 8.19905 55.1285C8.19905 55.0807 8.15166 55.0329 8.15166 54.9851L8.19905 54.9373C8.29384 54.9851 8.29384 55.0329 8.29384 55.0807ZM5.21327 53.5507C5.16588 53.5507 5.16588 53.5985 5.16588 53.5985C5.11848 53.5985 5.07109 53.5507 5.07109 53.5029C5.11848 53.5029 5.11848 53.455 5.11848 53.455C5.16588 53.5029 5.16588 53.5507 5.21327 53.5507ZM4.92891 51.5425C4.92891 51.5903 4.9763 51.5903 4.9763 51.6381C4.92891 51.6381 4.88152 51.686 4.83412 51.686L4.78673 51.6381C4.88152 51.5903 4.92891 51.5425 4.92891 51.5425ZM3.31754 50.3472C3.27014 50.395 3.27014 50.395 3.22275 50.4428C3.22275 50.395 3.17535 50.395 3.17535 50.395C3.17535 50.3472 3.22275 50.2994 3.27014 50.2994C3.27014 50.2994 3.31754 50.2994 3.31754 50.3472ZM7.91469 51.0166C7.8673 51.0166 7.8673 51.0644 7.81991 51.0644C7.81991 51.0166 7.77251 50.9688 7.77251 50.9209L7.81991 50.8731C7.8673 50.9688 7.8673 51.0166 7.91469 51.0166ZM3.93365 44.753C3.88626 44.8009 3.88626 44.8009 3.83886 44.8487C3.83886 44.8009 3.79147 44.8009 3.79147 44.8009C3.79147 44.753 3.83886 44.7052 3.88626 44.7052C3.88626 44.7052 3.93365 44.753 3.93365 44.753ZM8.5782 44.6096C8.5782 44.5618 8.53081 44.5618 8.53081 44.5618C8.53081 44.514 8.5782 44.4662 8.6256 44.4662C8.6256 44.514 8.67299 44.514 8.67299 44.514C8.67299 44.514 8.6256 44.5618 8.5782 44.6096ZM2.65403 40.5455C2.70142 40.5455 2.70142 40.4977 2.74881 40.4977C2.74881 40.5455 2.79621 40.5933 2.79621 40.6411L2.74881 40.6889C2.70142 40.6411 2.70142 40.5933 2.65403 40.5455ZM7.44076 41.5496C7.44076 41.5017 7.39337 41.5017 7.39337 41.5017C7.39337 41.4539 7.44076 41.4061 7.48815 41.4061C7.48815 41.4539 7.53555 41.4539 7.53555 41.4539C7.53555 41.5017 7.48815 41.5017 7.44076 41.5496ZM3.79147 40.163C3.79147 40.2108 3.83886 40.2108 3.83886 40.2586C3.79147 40.2586 3.74408 40.3064 3.69668 40.3064L3.64929 40.2586C3.69668 40.163 3.74408 40.163 3.79147 40.163ZM6.16114 40.6889C6.11375 40.6889 6.11375 40.7367 6.06635 40.7367C6.06635 40.6889 6.01896 40.6411 6.01896 40.5933L6.06635 40.5455C6.16114 40.5933 6.16114 40.6411 6.16114 40.6889ZM8.15166 39.5892C8.15166 39.5414 8.10427 39.5414 8.10427 39.4936C8.15166 39.4936 8.19905 39.4458 8.24645 39.4458L8.29384 39.4936C8.24645 39.5414 8.19906 39.5414 8.15166 39.5892ZM3.27014 33.7082C3.22275 33.7082 3.22275 33.756 3.17536 33.756C3.17536 33.7082 3.12796 33.6604 3.12796 33.6126L3.17536 33.5648C3.27014 33.6126 3.27014 33.6604 3.27014 33.7082ZM8.90996 34.6166C8.90996 34.6645 8.95735 34.6645 8.95735 34.7123C8.90996 34.7123 8.86256 34.7601 8.81517 34.7601L8.76778 34.7123C8.81517 34.6645 8.86256 34.6645 8.90996 34.6166ZM6.87204 30.0744C6.87204 30.0266 6.82465 30.0266 6.82465 30.0266C6.82465 29.9788 6.87204 29.9309 6.91943 29.9309C6.91943 29.9788 6.96683 29.9788 6.96683 29.9788C6.91943 30.0266 6.87204 30.0266 6.87204 30.0744ZM6.11375 28.0184C6.06635 27.9706 6.06635 27.9706 6.01896 27.9228C6.06635 27.9228 6.06635 27.875 6.06635 27.875C6.11375 27.875 6.16114 27.9228 6.16114 27.9706C6.16114 27.9706 6.16114 28.0184 6.11375 28.0184ZM8.15166 25.0062C8.15166 24.9584 8.10427 24.9584 8.10427 24.9584C8.10427 24.9106 8.15166 24.8627 8.19906 24.8627C8.19906 24.9106 8.24645 24.9106 8.24645 24.9106C8.19906 24.9106 8.15166 24.9584 8.15166 25.0062ZM7.96209 13.6745C7.9147 13.7223 7.9147 13.7223 7.8673 13.7701C7.8673 13.7223 7.81991 13.7223 7.81991 13.7223C7.81991 13.6745 7.8673 13.6266 7.9147 13.6266C7.9147 13.6266 7.96209 13.6266 7.96209 13.6745ZM7.34598 10.9491C7.29858 10.9491 7.29858 10.9969 7.29858 10.9969C7.25119 10.9969 7.20379 10.9491 7.20379 10.9013C7.25119 10.9013 7.25119 10.8535 7.25119 10.8535C7.29858 10.8535 7.29858 10.9013 7.34598 10.9491ZM1.13744 9.03658C1.18483 9.03658 1.18483 8.98877 1.23223 8.98877C1.23223 9.03658 1.27962 9.08439 1.27962 9.13221L1.23223 9.18002C1.18483 9.08439 1.18483 9.08439 1.13744 9.03658ZM4.21801 9.37127C4.17062 9.41908 4.17062 9.41908 4.12322 9.4669C4.12322 9.41908 4.07583 9.41909 4.07583 9.41909C4.07583 9.37127 4.12322 9.32346 4.17062 9.32346L4.21801 9.37127ZM8.29384 8.79751C8.24645 8.84533 8.24645 8.84533 8.19906 8.89314C8.19906 8.84533 8.15166 8.84533 8.15166 8.84533C8.15166 8.79751 8.19906 8.7497 8.24645 8.7497C8.24645 8.7497 8.24645 8.7497 8.29384 8.79751ZM1.80095 7.3153C1.75356 7.3153 1.75356 7.36312 1.70616 7.36312C1.70616 7.3153 1.65877 7.26749 1.65877 7.21968L1.70616 7.17186C1.75356 7.21968 1.75356 7.26749 1.80095 7.3153ZM2.08531 6.50248C2.08531 6.55029 2.1327 6.55029 2.1327 6.59811C2.08531 6.59811 2.03792 6.64592 1.99052 6.64592L1.94313 6.59811C1.99052 6.50248 2.03792 6.50248 2.08531 6.50248ZM4.83413 6.55029C4.83413 6.50248 4.78673 6.50248 4.78673 6.45467C4.83413 6.45467 4.88152 6.40685 4.92891 6.40685L4.97631 6.45467C4.88152 6.55029 4.88152 6.55029 4.83413 6.55029ZM0.805687 4.63777C0.805687 4.63777 0.853081 4.58995 0.900474 4.54214C0.900474 4.58995 0.947868 4.58995 0.947868 4.63777C0.947868 4.68558 0.900474 4.73339 0.853081 4.73339C0.853081 4.68558 0.805687 4.68558 0.805687 4.63777ZM0.710901 4.06401C0.758294 4.01619 0.758294 4.01619 0.805687 3.96838C0.805687 4.01619 0.853081 4.01619 0.853081 4.01619C0.853081 4.06401 0.805687 4.11182 0.758294 4.11182C0.758294 4.11182 0.710901 4.11182 0.710901 4.06401ZM7.2038 5.16371C7.2038 5.21152 7.25119 5.21152 7.25119 5.25934C7.2038 5.25934 7.1564 5.30715 7.10901 5.30715L7.06161 5.25934C7.10901 5.16371 7.1564 5.16371 7.2038 5.16371ZM7.67773 4.68558C7.63034 4.73339 7.63034 4.73339 7.58294 4.78121C7.58294 4.73339 7.53555 4.73339 7.53555 4.73339C7.53555 4.68558 7.58294 4.63777 7.63034 4.63777C7.63034 4.63777 7.67773 4.68558 7.67773 4.68558ZM5.59242 3.6815C5.54503 3.63369 5.54503 3.63369 5.49763 3.58588C5.54503 3.58588 5.54503 3.53806 5.54503 3.53806C5.59242 3.53806 5.63981 3.58588 5.63981 3.63369C5.63981 3.63369 5.59242 3.63369 5.59242 3.6815ZM5.92417 3.53806C5.92417 3.49025 5.87678 3.49025 5.87678 3.44244C5.92417 3.44244 5.97157 3.39462 6.01896 3.39462L6.06635 3.44244C6.01896 3.49025 5.97157 3.53806 5.92417 3.53806ZM1.4218 2.24711C1.4692 2.24711 1.4692 2.19929 1.51659 2.19929C1.51659 2.24711 1.56398 2.29492 1.56398 2.34273L1.51659 2.39054C1.4218 2.34273 1.4218 2.29492 1.4218 2.24711ZM5.07109 2.53398C5.0237 2.5818 5.0237 2.5818 4.97631 2.62961C4.97631 2.5818 4.92891 2.5818 4.92891 2.5818C4.92891 2.53398 4.97631 2.48617 5.0237 2.48617C5.0237 2.48617 5.0237 2.48617 5.07109 2.53398ZM4.83412 100.312C4.88151 100.36 4.92891 100.36 4.9763 100.408C4.83412 100.503 4.59715 100.503 4.59715 100.647C4.50237 100.934 4.45497 100.934 4.31279 100.694C4.2654 100.599 4.21801 100.551 4.17061 100.455C4.07583 100.408 3.98104 100.408 3.93365 100.408C3.93365 100.455 3.88625 100.551 3.88625 100.599C3.88625 100.742 3.88625 100.886 3.88625 101.029C3.88625 101.077 3.74407 101.125 3.69668 101.125C3.64929 101.125 3.5545 101.077 3.5545 101.029C3.64929 100.694 3.5545 100.455 3.12796 100.455C3.12796 100.455 3.08057 100.312 3.08057 100.216C3.12796 100.216 3.22275 100.216 3.27014 100.216C3.31753 100.216 3.41232 100.264 3.45971 100.264C3.45971 100.169 3.50711 100.073 3.83886 99.9773C4.07583 99.786 3.98104 99.6904 3.98104 99.6904C3.83886 99.7382 3.69668 99.8338 3.50711 99.8817C3.5545 99.9295 3.60189 99.9773 3.64929 99.9773C3.79147 99.9773 3.93365 99.9773 3.83886 99.9295C3.22275 99.9295 3.03317 99.786 3.03317 99.4992C3.27014 99.547 3.22275 99.3079 3.27014 99.2123C3.36493 99.0688 3.50711 98.9732 3.60189 98.8776C3.64929 99.021 3.74407 99.1645 3.64929 99.2601C3.50711 99.2601 3.41232 99.3557 3.36493 99.4035C3.36493 99.4513 3.41232 99.4992 3.45971 99.547C3.5545 99.4513 3.64929 99.3557 3.74407 99.2601C3.69668 99.2601 3.64929 99.2601 3.60189 99.2601C3.79147 99.2123 3.88625 99.021 3.98104 99.021C4.12322 99.021 4.31279 99.1166 4.36019 99.2123C4.50237 99.4035 4.54976 99.4035 4.73933 99.2601C4.88151 99.1645 5.07109 99.1645 5.21327 99.1645C5.21327 99.547 5.16588 99.6426 4.88151 99.9773C4.83412 100.025 4.83412 100.169 4.83412 100.216C4.92891 100.264 4.88151 100.312 4.83412 100.312ZM3.88625 102.033C3.88625 101.985 3.83886 101.938 3.83886 101.89C3.79147 101.89 3.79147 101.938 3.74407 101.938C3.79147 101.985 3.79147 101.985 3.79147 101.938C3.88625 101.794 4.07583 101.746 4.07583 101.699C4.12322 101.555 4.02843 101.412 4.07583 101.22C4.07583 101.125 4.07583 100.838 4.31279 101.125C4.36019 101.22 4.50237 101.22 4.64455 101.268C4.69194 101.316 4.78673 101.364 4.78673 101.412C4.78673 101.459 4.69194 101.603 4.64455 101.603C4.36019 101.507 4.31279 101.699 4.31279 101.89C4.31279 102.129 4.21801 102.368 3.98104 102.368C3.69668 102.416 3.5545 102.511 3.5545 102.798C3.5545 102.846 3.41232 102.894 3.31753 102.846C3.27014 102.846 3.22275 102.75 3.17535 102.655C3.12796 102.511 3.17535 102.368 3.12796 102.272C3.08057 102.225 2.98578 102.177 2.93839 102.129C3.03317 102.129 3.08057 102.081 3.17535 102.081C3.41232 102.081 3.31753 101.842 3.36493 101.746C3.50711 101.746 3.60189 101.794 3.74407 101.89C3.83886 102.081 3.88625 102.033 3.88625 102.033ZM3.88625 107.341C3.79147 107.341 3.69668 107.293 3.5545 107.293C3.64929 107.197 3.69668 107.101 3.79147 107.101C4.17061 107.006 4.45497 107.293 4.36019 107.627C4.31279 107.771 4.12322 107.914 4.12322 108.058C4.07583 108.201 4.21801 108.392 4.21801 108.584C4.21801 108.823 4.02843 108.871 3.83886 108.679C3.79147 108.631 3.74407 108.584 3.74407 108.536C3.41232 108.823 3.31753 108.631 3.27014 108.297C3.27014 108.297 3.03317 108.249 2.98578 108.297C2.89099 108.345 3.03317 108.631 2.74881 108.536C2.70142 108.536 2.65403 108.488 2.60663 108.44C2.70142 108.297 2.79621 108.153 2.89099 108.058C2.93839 108.01 3.08057 108.058 3.12796 108.058C3.36493 108.058 3.50711 108.201 3.64929 108.345C3.74407 108.44 3.98104 108.249 3.88625 108.153C3.60189 107.866 4.02843 107.819 3.98104 107.627C4.12322 107.388 4.12322 107.341 3.88625 107.341ZM4.40758 105.619C4.17061 105.524 3.98104 105.38 3.74407 105.237C3.69668 105.189 3.64929 105.093 3.60189 104.998C3.69668 104.998 3.74407 104.95 3.83886 104.95C4.17061 104.95 4.45497 105.189 4.78673 104.998L4.88151 105.093C4.83412 105.476 4.59715 105.715 4.40758 105.619ZM2.51184 109.922C2.46445 110.018 2.41706 110.066 2.41706 110.161C2.36966 110.114 2.32227 110.018 2.22748 109.97C1.94312 109.731 2.1327 109.54 2.22748 109.301C2.27488 109.205 2.32227 109.11 2.36966 109.062C2.41706 109.157 2.55924 109.253 2.55924 109.349C2.55924 109.444 2.51184 109.588 2.51184 109.731C2.55924 109.827 2.55924 109.875 2.51184 109.922ZM5.21327 103.133C5.26066 103.276 4.64455 103.468 4.50237 103.324C4.45497 103.276 4.45497 103.181 4.45497 103.181C4.54976 102.99 4.69194 102.846 4.83412 102.655C4.9763 102.846 5.16588 102.942 5.21327 103.133ZM3.22275 106.336C2.98578 106.336 2.74881 106.145 2.55924 106.336C2.55924 106.336 2.41706 106.289 2.41706 106.241C2.41706 106.002 2.51184 105.81 2.70142 105.763C2.93839 105.715 2.74881 106.002 2.8436 106.05C2.93839 106.097 3.08057 106.145 3.17535 106.193C3.22275 106.193 3.27014 106.241 3.31753 106.289C3.31753 106.289 3.27014 106.336 3.22275 106.336ZM2.79621 100.551C2.74881 100.503 2.70142 100.503 2.70142 100.455C2.65403 100.312 2.60663 100.121 2.51185 99.9773C2.51185 99.9295 2.51185 99.8338 2.46445 99.786C2.55924 99.786 2.65403 99.786 2.70142 99.8338C2.79621 99.9773 2.8436 100.169 2.89099 100.312C2.89099 100.455 2.8436 100.503 2.79621 100.551ZM4.36019 114.656C4.36019 114.56 4.07583 114.465 4.2654 114.321C4.31279 114.273 4.31279 114.178 4.2654 114.13C4.21801 114.082 4.12322 114.034 4.07583 113.939C4.17061 113.939 4.2654 113.939 4.31279 113.939C4.69194 113.939 4.54976 114.178 4.50237 114.465C4.50237 114.512 4.40758 114.56 4.36019 114.656ZM2.46445 93.3791C2.51185 93.2834 2.51185 93.1878 2.60663 93.1878C2.74881 93.14 2.93839 93.0922 3.08057 93.0922C3.08057 93.2356 3.03317 93.3312 3.03317 93.4747C2.89099 93.905 2.8436 93.3313 2.65403 93.5225C2.60663 93.4747 2.51185 93.4269 2.46445 93.3791ZM3.83886 111.883C3.79147 111.883 3.69668 111.787 3.69668 111.787C3.69668 111.452 4.07583 111.739 4.17061 111.5C4.21801 111.548 4.2654 111.596 4.31279 111.644C4.21801 111.978 4.21801 111.978 3.83886 111.883ZM2.70142 99.3079C2.65403 99.2123 2.65403 99.0688 2.65403 98.9254C2.74881 98.9254 2.89099 98.9254 2.98578 98.9254C3.03317 99.1166 3.03317 99.3079 3.08057 99.4992C2.93839 99.4513 2.79621 99.4035 2.70142 99.3079ZM3.31753 117.716L3.27014 117.716C3.12796 117.62 3.03317 117.238 3.12796 117.047L3.17535 116.999C3.22275 116.999 3.27014 117.047 3.27014 117.094C3.31753 117.238 3.36493 117.429 3.36493 117.573C3.36493 117.62 3.36493 117.668 3.31753 117.716ZM3.12796 116.568C3.12796 116.568 3.03317 116.473 3.08057 116.425C3.17535 116.282 3.31753 116.186 3.41232 116.043C3.45971 116.138 3.5545 116.234 3.64929 116.329C3.45971 116.425 3.27014 116.521 3.12796 116.568ZM3.27014 101.746C3.22275 101.699 3.12796 101.651 3.08057 101.651C2.93839 101.746 2.8436 101.746 2.89099 101.555C2.89099 101.507 2.98578 101.412 3.03317 101.412C3.31753 101.364 3.50711 101.555 3.36493 101.842C3.31753 101.794 3.31753 101.746 3.27014 101.746ZM3.31753 107.388C3.31753 107.436 3.22275 107.436 3.17535 107.436C3.12796 107.245 3.08057 107.101 3.08057 106.91C3.08057 106.862 3.22275 106.815 3.27014 106.767C3.31753 106.815 3.31753 106.91 3.36493 106.958C3.36493 107.006 3.36493 107.054 3.31753 107.149C3.36493 107.245 3.36493 107.341 3.31753 107.388ZM2.46445 101.459L2.36967 101.364C2.46445 101.22 2.55924 101.125 2.70142 100.981C2.74881 101.077 2.79621 101.173 2.8436 101.316C2.70142 101.364 2.55924 101.412 2.46445 101.459ZM3.03317 115.756C3.03317 115.66 3.03317 115.517 3.03317 115.421C3.03317 115.325 3.03317 115.23 3.08057 115.134C3.08057 115.086 3.17535 115.086 3.22275 115.086L3.27014 115.134C3.27014 115.23 3.22275 115.325 3.22275 115.517C3.17535 115.564 3.12796 115.66 3.03317 115.756ZM4.69194 104.137C4.64455 104.137 4.59715 104.041 4.54976 103.994C4.64455 103.946 4.69194 103.85 4.78673 103.802C4.83412 103.802 4.88151 103.898 5.0237 103.994C4.83412 104.041 4.73933 104.137 4.69194 104.137ZM2.74881 108.966C2.8436 108.823 2.93839 108.727 3.03317 108.631C3.03317 108.775 3.03317 108.966 3.03317 109.11C3.03317 109.157 2.89099 109.157 2.74881 109.205C2.74881 109.062 2.74881 108.966 2.74881 108.966ZM3.27014 109.97C3.17535 109.922 3.03317 109.875 2.93839 109.779C3.03317 109.731 3.12796 109.588 3.22275 109.588C3.31753 109.588 3.36493 109.779 3.45971 109.875C3.41232 109.922 3.31753 109.97 3.27014 109.97ZM2.51184 111.261C2.51184 111.166 2.70142 111.118 2.79621 111.07C2.79621 111.166 2.8436 111.309 2.8436 111.405C2.8436 111.452 2.79621 111.5 2.74881 111.596C2.60663 111.452 2.46445 111.309 2.51184 111.261ZM3.5545 112.552C3.45971 112.6 3.36493 112.743 3.27014 112.743C3.22275 112.743 3.12796 112.6 3.03317 112.504C3.12796 112.457 3.17535 112.409 3.27014 112.361C3.41232 112.457 3.45971 112.504 3.5545 112.552ZM5.16587 101.412C5.07109 101.316 4.9763 101.22 4.88151 101.125C4.92891 101.077 5.0237 101.029 5.0237 101.029C5.11848 101.077 5.16588 101.125 5.21327 101.173C5.16588 101.268 5.16587 101.364 5.16587 101.412ZM3.93365 103.181C4.02843 103.133 4.17061 103.037 4.2654 102.99C4.2654 103.037 4.31279 103.133 4.2654 103.133C4.21801 103.229 4.12322 103.276 4.07583 103.324C3.98104 103.229 3.93365 103.181 3.93365 103.181ZM2.89099 115.278C2.7962 115.278 2.70142 115.325 2.65402 115.325C2.60663 115.23 2.60663 115.134 2.55924 115.038L2.65402 114.991C2.74881 115.086 2.7962 115.182 2.89099 115.278ZM2.46445 106.91C2.41706 106.91 2.36966 106.862 2.32227 106.815C2.36966 106.767 2.46445 106.623 2.51185 106.623C2.55924 106.623 2.65403 106.671 2.74881 106.719C2.65403 106.815 2.55924 106.862 2.46445 106.91ZM4.59715 110.735C4.50237 110.64 4.40758 110.544 4.31279 110.448C4.36019 110.448 4.40758 110.353 4.45497 110.401C4.54976 110.448 4.59715 110.496 4.69194 110.544C4.64455 110.64 4.59715 110.687 4.59715 110.735ZM4.07583 120.537C3.98104 120.537 3.93365 120.441 3.88625 120.394C3.93365 120.394 3.98104 120.346 4.02843 120.346C4.12322 120.346 4.17061 120.394 4.2654 120.441C4.17061 120.489 4.12322 120.537 4.07583 120.537ZM2.70142 114.608C2.70142 114.512 2.65402 114.465 2.65402 114.369C2.65402 114.321 2.70142 114.273 2.74881 114.226C2.79621 114.321 2.79621 114.369 2.79621 114.465C2.79621 114.512 2.74881 114.56 2.70142 114.608ZM3.5545 114.656C3.45971 114.656 3.41232 114.704 3.31753 114.704C3.27014 114.704 3.22275 114.656 3.17535 114.608C3.27014 114.56 3.31753 114.56 3.41232 114.56C3.45971 114.56 3.50711 114.608 3.5545 114.656ZM2.74881 113.269C2.74881 113.222 2.65402 113.174 2.70142 113.126C2.70142 113.03 2.79621 112.982 2.8436 112.935C2.8436 112.982 2.89099 113.03 2.93839 113.126C2.89099 113.174 2.8436 113.222 2.74881 113.269ZM4.17061 106.528C4.17061 106.48 4.07583 106.432 4.12322 106.384C4.12322 106.289 4.21801 106.241 4.2654 106.193C4.2654 106.241 4.31279 106.289 4.36019 106.384C4.2654 106.384 4.21801 106.48 4.17061 106.528ZM3.45971 105.667C3.45971 105.571 3.5545 105.524 3.60189 105.476C3.60189 105.524 3.64929 105.571 3.64929 105.619C3.64929 105.715 3.60189 105.763 3.5545 105.858C3.50711 105.81 3.45971 105.715 3.45971 105.667ZM2.36966 103.707C2.36966 103.659 2.32227 103.563 2.32227 103.563C2.36967 103.515 2.41706 103.468 2.46445 103.42C2.46445 103.468 2.51185 103.515 2.51185 103.659C2.51185 103.659 2.46445 103.707 2.36966 103.707ZM4.83412 102.368C4.83412 102.272 4.88151 102.225 4.92891 102.129C4.9763 102.177 5.0237 102.177 5.0237 102.225C5.0237 102.32 4.9763 102.368 4.92891 102.464C4.88151 102.416 4.78673 102.368 4.83412 102.368ZM4.40758 98.5907C4.40758 98.5429 4.36019 98.4473 4.36019 98.4473C4.40758 98.3994 4.45497 98.3516 4.50237 98.3038C4.50237 98.3516 4.54976 98.3995 4.54976 98.5429C4.54976 98.5429 4.50237 98.5429 4.40758 98.5907ZM6.3981 96.8694C6.3981 96.8216 6.35071 96.726 6.35071 96.726C6.3981 96.6782 6.4455 96.6304 6.49289 96.5825C6.49289 96.6304 6.54028 96.6782 6.54028 96.8216C6.54028 96.8216 6.49289 96.8216 6.3981 96.8694ZM2.7962 129C2.7962 128.952 2.74881 128.952 2.74881 128.952C2.74881 128.904 2.7962 128.856 2.8436 128.856C2.8436 128.904 2.89099 128.904 2.89099 128.952C2.8436 128.952 2.7962 129 2.7962 129ZM3.17535 126.322C3.12796 126.322 3.08056 126.37 3.03317 126.37L2.98578 126.322C3.03317 126.322 3.08056 126.275 3.12796 126.275C3.12796 126.275 3.17535 126.322 3.17535 126.322ZM3.50711 124.984C3.50711 125.031 3.5545 125.079 3.5545 125.127L3.50711 125.175C3.50711 125.127 3.45971 125.079 3.45971 125.031C3.45971 125.031 3.50711 124.984 3.50711 124.984ZM3.79147 123.979C3.74407 123.979 3.69668 124.027 3.64929 124.027L3.60189 123.979C3.64929 123.979 3.69668 123.932 3.74407 123.932C3.74407 123.932 3.74407 123.979 3.79147 123.979ZM2.89099 123.167C2.89099 123.119 2.8436 123.119 2.8436 123.119C2.8436 123.071 2.89099 123.023 2.93838 123.023C2.93838 123.071 2.98578 123.071 2.98578 123.119C2.93838 123.071 2.93838 123.119 2.89099 123.167ZM3.36493 118.863C3.31753 118.911 3.31753 118.959 3.27014 119.007C3.27014 119.007 3.22275 118.959 3.17535 118.959C3.22275 118.911 3.22275 118.911 3.27014 118.863C3.31753 118.863 3.36493 118.863 3.36493 118.863ZM3.45971 118.911C3.45971 118.863 3.41232 118.863 3.41232 118.816C3.45971 118.816 3.50711 118.768 3.5545 118.768L3.60189 118.816C3.50711 118.863 3.50711 118.863 3.45971 118.911ZM7.34597 118.768C7.39336 118.768 7.39336 118.72 7.39336 118.72C7.44076 118.72 7.48815 118.768 7.48815 118.816C7.44076 118.816 7.44076 118.863 7.39336 118.863C7.39336 118.816 7.39336 118.768 7.34597 118.768ZM3.83886 116.903C3.83886 116.951 3.88625 116.999 3.88625 117.047L3.83886 117.094C3.83886 117.047 3.79147 116.999 3.79147 116.951C3.79147 116.903 3.79147 116.903 3.83886 116.903ZM3.93365 115.182C3.93365 115.23 3.98104 115.278 3.98104 115.325L3.93365 115.373C3.93365 115.325 3.88625 115.278 3.88625 115.23C3.88625 115.23 3.88625 115.23 3.93365 115.182ZM3.12796 114.034C3.12796 113.987 3.17535 113.939 3.22275 113.939C3.22275 113.987 3.27014 113.987 3.27014 113.987C3.27014 114.034 3.22275 114.082 3.17535 114.082C3.17535 114.082 3.12796 114.082 3.12796 114.034ZM4.31279 113.174C4.31279 113.222 4.36019 113.269 4.36019 113.317L4.31279 113.365C4.31279 113.317 4.2654 113.269 4.2654 113.222C4.2654 113.222 4.2654 113.174 4.31279 113.174ZM3.74407 113.078C3.74407 113.03 3.69668 113.03 3.69668 113.03C3.69668 112.982 3.74407 112.935 3.79147 112.935C3.79147 112.982 3.83886 112.982 3.83886 113.03C3.79147 113.03 3.79147 113.03 3.74407 113.078ZM2.55924 112.313C2.55924 112.265 2.51184 112.265 2.51184 112.265C2.51184 112.217 2.55924 112.17 2.60663 112.17C2.60663 112.217 2.65402 112.217 2.65402 112.265C2.60663 112.217 2.60663 112.265 2.55924 112.313ZM3.64929 112.504C3.64929 112.457 3.60189 112.457 3.60189 112.409C3.64929 112.409 3.69668 112.361 3.74407 112.361L3.79147 112.409C3.74407 112.457 3.69668 112.457 3.64929 112.504ZM3.93365 111.166C3.88625 111.166 3.83886 111.118 3.83886 111.07C3.88625 111.07 3.88625 111.022 3.88625 111.022C3.93365 111.022 3.98104 111.07 3.98104 111.118C3.98104 111.166 3.93365 111.166 3.93365 111.166ZM2.27488 110.735C2.27488 110.687 2.22748 110.64 2.22748 110.592L2.27488 110.544C2.27488 110.592 2.32227 110.64 2.32227 110.687C2.32227 110.687 2.32227 110.735 2.27488 110.735ZM2.70142 106.91C2.74881 106.91 2.74881 106.862 2.79621 106.862C2.79621 106.91 2.8436 106.958 2.8436 107.006L2.79621 107.054C2.74881 106.958 2.70142 106.958 2.70142 106.91ZM3.64929 106.241C3.64929 106.193 3.60189 106.145 3.60189 106.097L3.64929 106.05C3.64929 106.097 3.69668 106.145 3.69668 106.193L3.64929 106.241ZM4.59715 105.715C4.64455 105.715 4.64455 105.667 4.69194 105.667C4.69194 105.715 4.73933 105.763 4.73933 105.81L4.69194 105.858C4.64455 105.81 4.59715 105.763 4.59715 105.715ZM2.46445 104.52C2.46445 104.567 2.51185 104.567 2.51185 104.567C2.51185 104.615 2.46445 104.663 2.41706 104.663C2.41706 104.615 2.36966 104.615 2.36966 104.567C2.41706 104.567 2.41706 104.52 2.46445 104.52ZM4.31279 104.663C4.31279 104.615 4.2654 104.615 4.2654 104.615C4.2654 104.567 4.31279 104.52 4.36019 104.52C4.36019 104.567 4.40758 104.567 4.40758 104.615C4.36019 104.567 4.31279 104.615 4.31279 104.663ZM3.64929 104.137C3.64929 104.089 3.60189 104.041 3.60189 103.994L3.64929 103.946C3.64929 103.994 3.69668 104.041 3.69668 104.089C3.69668 104.137 3.64929 104.137 3.64929 104.137ZM2.74881 102.846C2.74881 102.894 2.79621 102.942 2.79621 102.99L2.74881 103.037C2.74881 102.99 2.70142 102.942 2.70142 102.894C2.70142 102.894 2.70142 102.894 2.74881 102.846ZM5.16587 101.459C5.21327 101.459 5.21327 101.412 5.26066 101.412C5.26066 101.459 5.30806 101.507 5.30806 101.555L5.26066 101.603C5.21327 101.555 5.16587 101.507 5.16587 101.459ZM4.9763 100.216C5.0237 100.264 5.07109 100.264 5.11848 100.312C5.07109 100.36 5.02369 100.36 4.92891 100.408C4.9763 100.36 4.9763 100.312 4.9763 100.216ZM5.45024 99.1645C5.45024 99.1166 5.40284 99.1166 5.40284 99.0688C5.45024 99.0688 5.49763 99.021 5.54502 99.021L5.59242 99.0688C5.54502 99.1166 5.49763 99.1645 5.45024 99.1645ZM4.88152 98.1126C4.88152 98.1604 4.92891 98.2082 4.92891 98.256L4.88152 98.3038C4.88152 98.256 4.83412 98.2082 4.83412 98.1604C4.83412 98.1604 4.88152 98.1604 4.88152 98.1126ZM5.16588 97.5866C5.16588 97.5388 5.11848 97.5388 5.11848 97.491C5.16588 97.491 5.21327 97.4432 5.26066 97.4432L5.30806 97.491C5.26066 97.5388 5.21327 97.5866 5.16588 97.5866ZM0.900474 8.08031C0.853081 8.08031 0.805687 8.12813 0.758294 8.12813L0.7109 8.08031C0.758294 8.08031 0.805687 8.0325 0.853081 8.0325C0.900474 8.0325 0.900474 8.0325 0.900474 8.08031ZM0.189573 2.72524C0.14218 2.67742 0.0947867 2.67742 0.0473933 2.62961C0.0473933 2.62961 0.0947867 2.5818 0.0947867 2.53398C0.14218 2.5818 0.14218 2.5818 0.189573 2.62961C0.189573 2.67742 0.189573 2.67742 0.189573 2.72524ZM0.0473933 1.91241C-8.77792e-08 1.8646 -8.77792e-08 1.8646 -8.56892e-08 1.81679L0.0473933 1.76897C0.0473933 1.81679 0.0947867 1.8646 0.0947867 1.91241C0.0947867 1.91241 0.0473933 1.91241 0.0473933 1.91241Z" fill="black"/>
</g>
<defs>
<clipPath id="clip0_221_29">
<rect width="129" height="10" fill="white" transform="matrix(-4.37114e-08 1 1 4.37114e-08 0 0)"/>
</clipPath>
</defs>
</svg>
