<svg width="38" height="38" viewBox="0 0 38 38" fill="none" xmlns="http://www.w3.org/2000/svg">
<path d="M19 0C8.531 0 0 8.531 0 19C0 29.469 8.531 38 19 38C29.469 38 38 29.469 38 19C38 8.531 29.469 0 19 0ZM28.082 14.63L17.309 25.403C17.043 25.669 16.682 25.821 16.302 25.821C15.922 25.821 15.561 25.669 15.295 25.403L9.918 20.026C9.367 19.475 9.367 18.563 9.918 18.012C10.469 17.461 11.381 17.461 11.932 18.012L16.302 22.382L26.068 12.616C26.619 12.065 27.531 12.065 28.082 12.616C28.633 13.167 28.633 14.06 28.082 14.63Z" fill="#292D32"/>
</svg>
